<?xml version="1.0" standalone="no"?>
<!DOCTYPE svg PUBLIC "-//W3C//DTD SVG 1.1//EN" "http://www.w3.org/Graphics/SVG/1.1/DTD/svg11.dtd" >
<svg xmlns="http://www.w3.org/2000/svg" xmlns:xlink="http://www.w3.org/1999/xlink" version="1.1">
<metadata>
Created by FontForge 20170731 at Tue Mar 27 11:14:09 2018
 By Aleksey,,,
Copyright (c) 2018 Monotype Imaging Inc. All rights reserved.
</metadata>
<defs>
<font id="NeuePlakText-LightItalic" horiz-adv-x="0" >
  <font-face 
    font-family="Neue Plak Text Light"
    font-weight="300"
    font-style="italic"
    font-stretch="normal"
    units-per-em="1000"
    panose-1="2 11 4 4 3 2 2 9 2 4"
    ascent="800"
    descent="-200"
    x-height="483"
    cap-height="706"
    bbox="-750 -247 1048 1145"
    underline-thickness="50"
    underline-position="-200"
    slope="-11"
    unicode-range="U+000D-FEFF"
  />
<missing-glyph horiz-adv-x="644" 
d="M31 0l141 706h485l-141 -706h-485zM115 64h343l116 578h-343z" />
    <glyph glyph-name=".notdef" horiz-adv-x="644" 
d="M31 0l141 706h485l-141 -706h-485zM115 64h343l116 578h-343z" />
    <glyph glyph-name=".null" 
 />
    <glyph glyph-name="nonmarkingreturn" horiz-adv-x="333" 
 />
    <glyph glyph-name="NULL" 
 />
    <glyph glyph-name="NULL" 
 />
    <glyph glyph-name="CR" unicode="&#xd;" horiz-adv-x="181" 
 />
    <glyph glyph-name="space" unicode=" " horiz-adv-x="181" 
 />
    <glyph glyph-name="exclam" unicode="!" horiz-adv-x="264" 
d="M92 183l97 523h72l-112 -523h-57zM91 -13q-23 0 -37 14t-14 36q0 23 14 37.5t37 14.5q22 0 36.5 -14.5t14.5 -37.5q0 -22 -14.5 -36t-36.5 -14z" />
    <glyph glyph-name="quotedbl" unicode="&#x22;" horiz-adv-x="387" 
d="M125 425l49 281h67l-62 -281h-54zM282 425l49 281h67l-62 -281h-54z" />
    <glyph glyph-name="numbersign" unicode="#" horiz-adv-x="648" 
d="M661 444h-124l-65 -183h124l-23 -60h-123l-77 -216h-65l77 216h-186l-77 -216h-65l77 216h-122l23 60h120l65 183h-119l23 60h118l77 217h65l-77 -217h185l77 217h67l-78 -217h126zM406 261l65 183h-186l-65 -183h186z" />
    <glyph glyph-name="dollar" unicode="$" horiz-adv-x="596" 
d="M571 485h-72q5 27 5 44q0 110 -105 129l-53 -265l17 -6q92 -32 135 -73.5t43 -116.5q0 -98 -74 -155t-194 -57h-5l-18 -88h-45l18 91q-94 11 -139 64.5t-45 137.5q0 13 2 43h76q-3 -24 -3 -43q0 -125 123 -142l58 292h-1q-87 30 -131.5 71t-44.5 114q0 87 68 141.5
t173 54.5h9l17 88h46l-19 -92q82 -12 123 -61t41 -124q0 -22 -5 -47zM307 408l50 254h-1q-75 0 -120.5 -37t-45.5 -96q0 -46 28.5 -72t88.5 -49zM466 192q0 52 -32.5 80.5t-99.5 53.5l-56 -281q86 1 137 40.5t51 106.5z" />
    <glyph glyph-name="percent" unicode="%" horiz-adv-x="741" 
d="M228 407q-60 0 -88 35.5t-28 94.5q0 75 40.5 125t110.5 50q116 0 116 -130q0 -75 -40.5 -125t-110.5 -50zM51 0l619 706h65l-619 -706h-65zM231 453q49 0 73.5 37t24.5 93q0 84 -69 84q-49 0 -73.5 -37.5t-24.5 -94.5q0 -82 69 -82zM524 -6q-60 0 -88.5 35t-28.5 94
q0 76 41 126t111 50q116 0 116 -130q0 -75 -40.5 -125t-110.5 -50zM526 40q50 0 74.5 37t24.5 92q0 84 -69 84q-49 0 -74 -37.5t-25 -93.5q0 -82 69 -82z" />
    <glyph glyph-name="ampersand" unicode="&#x26;" horiz-adv-x="622" 
d="M450 103q40 -42 105 -44l-12 -59q-89 0 -141 56q-83 -69 -191 -69q-92 0 -141 43.5t-49 117.5q0 75 52 130t144 108q-37 87 -37 150q0 87 52.5 136t141.5 49q76 0 117 -32.5t41 -90.5q0 -31 -15 -61t-32.5 -50t-56 -46.5t-60 -38.5t-70.5 -39q1 -1 8 -14.5t11 -20.5
l97 -173q0 -1 1 -1q39 46 114 171l52 -27q-79 -134 -131 -195zM244 537q0 -52 29 -120q44 24 61 34t50 31.5t46.5 36t25.5 36t12 42.5q0 70 -97 70q-59 0 -93 -34t-34 -96zM216 45q83 0 152 60l-7 12l-103 185q-10 20 -15 29q-71 -42 -110.5 -84.5t-39.5 -96.5
q0 -49 32.5 -77t90.5 -28z" />
    <glyph glyph-name="quotesingle" unicode="'" horiz-adv-x="229" 
d="M125 425l49 281h67l-62 -281h-54z" />
    <glyph glyph-name="parenleft" unicode="(" horiz-adv-x="383" 
d="M181 -201q-54 175 -54 337q0 352 248 670h71q-258 -311 -258 -673q0 -169 54 -334h-61z" />
    <glyph glyph-name="parenright" unicode=")" horiz-adv-x="383" 
d="M227 806q54 -173 54 -337q0 -353 -249 -670h-70q258 313 258 673q0 170 -54 334h61z" />
    <glyph glyph-name="asterisk" unicode="*" horiz-adv-x="355" 
d="M148 439l-33 37l94 78l-110 54l25 45l104 -66l17 121l49 -10l-30 -118l120 21l7 -51l-123 -8l58 -108l-46 -22l-45 115z" />
    <glyph glyph-name="plus" unicode="+" horiz-adv-x="572" 
d="M532 310l-12 -57h-203l-41 -205h-59l41 205h-203l12 57h203l41 206h59l-41 -206h203z" />
    <glyph glyph-name="comma" unicode="," horiz-adv-x="266" 
d="M-27 -169l128 325h68l-141 -325h-55z" />
    <glyph glyph-name="hyphen" unicode="-" horiz-adv-x="380" 
d="M55 251l13 61h273l-13 -61h-273z" />
    <glyph glyph-name="period" unicode="." horiz-adv-x="264" 
d="M91 -13q-23 0 -37 14t-14 36q0 23 14 37.5t37 14.5q22 0 36.5 -14.5t14.5 -37.5q0 -22 -14.5 -36t-36.5 -14z" />
    <glyph glyph-name="slash" unicode="/" horiz-adv-x="435" 
d="M-22 -50l443 771h74l-444 -771h-73z" />
    <glyph glyph-name="zero" unicode="0" horiz-adv-x="600" 
d="M263 -15q-105 0 -154 67.5t-49 180.5q0 69 15 147q31 152 108.5 246.5t197.5 94.5q105 0 154 -67.5t49 -180.5q0 -77 -15 -147q-32 -152 -109 -246.5t-197 -94.5zM265 49q90 0 148.5 78t82.5 201q16 82 16 143q0 186 -133 186q-61 0 -109 -39.5t-77 -99.5t-45 -140
q-15 -77 -15 -143q0 -186 132 -186z" />
    <glyph glyph-name="one" unicode="1" horiz-adv-x="600" 
d="M248 0l128 642h-171l26 64h227l-141 -706h-69z" />
    <glyph glyph-name="two" unicode="2" horiz-adv-x="600" 
d="M5 0l1 3l342 296q56 48 84.5 77t50.5 70.5t22 86.5q0 58 -33 91.5t-102 33.5q-153 0 -187 -190h-69q22 116 86 184.5t174 68.5q103 0 153.5 -50t50.5 -136q0 -73 -37 -128.5t-113 -121.5q-47 -40 -263 -222h328l-12 -63h-476z" />
    <glyph glyph-name="three" unicode="3" horiz-adv-x="600" 
d="M584 551q0 -74 -44.5 -120.5t-121.5 -59.5q114 -35 114 -158q0 -105 -71.5 -166.5t-188.5 -61.5q-116 0 -167 49.5t-51 144.5q0 35 7 69h67q-7 -38 -7 -63q0 -138 152 -138q87 0 138.5 46t51.5 123q0 129 -177 129h-10l11 56h28q93 0 146.5 37.5t53.5 108.5
q0 55 -35 85.5t-104 30.5q-156 0 -189 -179h-69q22 112 87.5 174.5t176.5 62.5q101 0 151.5 -46t50.5 -124z" />
    <glyph glyph-name="four" unicode="4" horiz-adv-x="600" 
d="M570 245l-12 -60h-101l-37 -185h-69l37 185h-384l1 3l428 518h128l-92 -461h101zM129 245h271l86 432h-1z" />
    <glyph glyph-name="five" unicode="5" horiz-adv-x="600" 
d="M564 644h-287l-73 -199q51 12 101 12q112 0 168 -57.5t56 -157.5q0 -114 -74 -185.5t-193 -71.5q-211 0 -211 188q0 20 5 52h67q-4 -21 -4 -46q0 -133 144 -133q90 0 142 53t52 137q0 163 -186 163q-84 0 -159 -26l120 333h357z" />
    <glyph glyph-name="six" unicode="6" horiz-adv-x="600" 
d="M347 455q100 0 154.5 -57.5t54.5 -148.5q0 -111 -78.5 -187.5t-193.5 -76.5q-223 0 -223 263q0 126 37.5 231.5t116 173.5t185.5 68q98 0 151 -55.5t53 -150.5h-69q1 70 -35 108.5t-102 38.5q-109 0 -177 -92.5t-87 -230.5q32 54 87.5 85t125.5 31zM284 45q88 0 144 60
t56 145q0 67 -39 107t-112 40q-89 0 -143 -57t-54 -141q0 -67 38 -110.5t110 -43.5z" />
    <glyph glyph-name="seven" unicode="7" horiz-adv-x="600" 
d="M115 0l412 642h-376l12 64h484l-448 -706h-84z" />
    <glyph glyph-name="eight" unicode="8" horiz-adv-x="600" 
d="M427 372q116 -36 116 -162q0 -103 -75 -164t-191 -61q-121 0 -180.5 50t-59.5 138q0 83 54 140t140 67q-53 18 -79.5 59t-26.5 96q0 86 69 136t173 50q111 0 169 -43.5t58 -122.5q0 -72 -46.5 -122t-120.5 -61zM195 526q0 -58 38 -91t109 -33q78 0 129.5 40.5t51.5 103.5
q0 57 -39 89t-118 32q-77 0 -124 -38t-47 -103zM278 43q85 0 139 45t54 119q0 63 -41 100t-120 37q-88 0 -144.5 -46t-56.5 -119q0 -63 42.5 -99.5t126.5 -36.5z" />
    <glyph glyph-name="nine" unicode="9" horiz-adv-x="600" 
d="M361 721q223 0 223 -263q0 -126 -37.5 -231.5t-116.5 -173.5t-185 -68q-99 0 -152 55t-53 151h70q-1 -70 35 -108.5t102 -38.5q73 0 130 45.5t88.5 116t44.5 159.5q-32 -53 -87 -83.5t-125 -30.5q-100 0 -154.5 57.5t-54.5 148.5q0 111 78 187.5t194 76.5zM311 309
q89 0 143.5 57t54.5 141q0 67 -38 110.5t-111 43.5q-87 0 -143.5 -60t-56.5 -145q0 -66 39.5 -106.5t111.5 -40.5z" />
    <glyph glyph-name="colon" unicode=":" horiz-adv-x="264" 
d="M163 349q-23 0 -37 14t-14 36q0 23 14 37t37 14q22 0 36.5 -14t14.5 -37q0 -22 -14.5 -36t-36.5 -14zM91 -13q-23 0 -37 14t-14 36q0 23 14 37.5t37 14.5q22 0 37 -14.5t15 -37.5q0 -22 -15 -36t-37 -14z" />
    <glyph glyph-name="semicolon" unicode=";" horiz-adv-x="290" 
d="M189 349q-23 0 -37 14t-14 36q0 23 14 37t37 14q22 0 36.5 -14t14.5 -37q0 -22 -14.5 -36t-36.5 -14zM-27 -169l128 325h68l-141 -325h-55z" />
    <glyph glyph-name="less" unicode="&#x3c;" horiz-adv-x="572" 
d="M567 479l-12 -60l-441 -138l386 -138l-13 -60l-432 159l4 22l11 56z" />
    <glyph glyph-name="equal" unicode="=" horiz-adv-x="572" 
d="M75 351l12 57h465l-11 -57h-466zM36 155l12 56h465l-12 -56h-465z" />
    <glyph glyph-name="greater" unicode="&#x3e;" horiz-adv-x="572" 
d="M534 320l-8 -38l-8 -40l-496 -159l12 60l441 138l-386 138l12 60z" />
    <glyph glyph-name="question" unicode="?" horiz-adv-x="482" 
d="M181 183q145 168 181 216q72 100 72 166q0 44 -28 71.5t-90 27.5q-75 0 -109.5 -38.5t-48.5 -112.5h-67q18 101 71.5 154.5t155.5 53.5q93 0 140 -42.5t47 -114.5q0 -68 -46.5 -139t-162.5 -207q-20 -23 -30 -35h-85zM194 -13q-23 0 -37 14t-14 36q0 23 14 37.5t37 14.5
q22 0 36.5 -14.5t14.5 -37.5q0 -22 -14.5 -36t-36.5 -14z" />
    <glyph glyph-name="at" unicode="@" horiz-adv-x="828" 
d="M471 676q159 0 240.5 -84.5t81.5 -223.5q0 -131 -72 -216.5t-196 -85.5h-39l11 53q-53 -62 -145 -62q-65 0 -96.5 30.5t-31.5 83.5q0 141 204 141h107q6 36 6 54q0 42 -21 61.5t-74 19.5t-79 -22.5t-35 -67.5h-59q24 139 177 139q81 0 114 -32.5t33 -97.5q0 -28 -8 -70
l-38 -187q93 7 145 81t51 177q0 123 -70 195.5t-207 72.5q-171 0 -267 -116t-96 -296q0 -136 70.5 -215t217.5 -79q32 0 59 3l-10 -42q-21 -3 -52 -3q-170 0 -250.5 91.5t-80.5 244.5q0 198 111 325.5t299 127.5zM377 106q65 0 98.5 38t51.5 126h-98q-69 0 -106 -21.5
t-37 -74.5q0 -68 91 -68z" />
    <glyph glyph-name="A" unicode="A" horiz-adv-x="610" 
d="M483 0l-26 189h-317l-102 -189h-77l383 706h107l102 -706h-70zM172 248h276l-56 405h-2z" />
    <glyph glyph-name="B" unicode="B" horiz-adv-x="591" 
d="M425 365q108 -34 108 -155q0 -101 -72 -155.5t-195 -54.5h-220l141 706h185q99 0 149 -44t50 -121q0 -65 -39 -112t-107 -64zM247 650l-52 -258h124q81 0 130 39t49 104q0 115 -147 115h-104zM258 57q97 0 149.5 39.5t52.5 116.5q0 122 -160 122h-116l-56 -278h130z" />
    <glyph glyph-name="C" unicode="C" horiz-adv-x="693" 
d="M329 -15q-133 0 -195.5 78t-62.5 214q0 118 42 218t127 163t197 63q116 0 182.5 -66t66.5 -178q0 -12 -1 -21h-69q1 8 1 20q0 85 -49.5 134t-135.5 49q-90 0 -157.5 -56t-99.5 -141.5t-32 -184.5q0 -230 191 -230q92 0 154 51.5t86 139.5h71q-25 -120 -110.5 -186.5
t-205.5 -66.5z" />
    <glyph glyph-name="D" unicode="D" horiz-adv-x="681" 
d="M46 0l141 706h172q294 0 294 -287q0 -185 -102.5 -302t-279.5 -117h-225zM129 61h135q153 0 234.5 99.5t81.5 260.5q0 107 -52 165.5t-172 58.5h-110z" />
    <glyph glyph-name="E" unicode="E" horiz-adv-x="536" 
d="M46 0l141 706h392l-12 -61h-321l-51 -253h318l-13 -63h-318l-53 -268h320l-11 -61h-392z" />
    <glyph glyph-name="F" unicode="F" horiz-adv-x="522" 
d="M46 0l141 706h385l-12 -61h-314l-51 -253h312l-13 -63h-312l-65 -329h-71z" />
    <glyph glyph-name="G" unicode="G" horiz-adv-x="701" 
d="M438 659q-95 0 -163.5 -56t-100.5 -145t-32 -199q0 -96 48 -154t140 -58q210 0 259 242l3 13h-196l12 62h266l-16 -77q-27 -136 -108 -219t-223 -83q-127 0 -192 77.5t-65 205.5q-1 125 42 227t128.5 164t200.5 62q123 0 184.5 -64t60.5 -185h-68q-2 187 -180 187z" />
    <glyph glyph-name="H" unicode="H" horiz-adv-x="674" 
d="M46 0l141 706h71l-63 -314h344l62 314h71l-141 -706h-71l67 330h-344l-66 -330h-71z" />
    <glyph glyph-name="I" unicode="I" horiz-adv-x="260" 
d="M46 0l141 706h71l-141 -706h-71z" />
    <glyph glyph-name="J" unicode="J" horiz-adv-x="347" 
d="M38 -3q-38 0 -67 5l13 65q21 -4 51 -4q70 0 107 34t53 114l99 495h70l-102 -516q-20 -100 -73.5 -146.5t-150.5 -46.5z" />
    <glyph glyph-name="K" unicode="K" horiz-adv-x="572" 
d="M610 706l-352 -330l252 -376h-82l-239 359l-72 -359h-71l141 706h71l-60 -299l321 299h91z" />
    <glyph glyph-name="L" unicode="L" horiz-adv-x="470" 
d="M46 0l141 706h71l-129 -643h286l-12 -63h-357z" />
    <glyph glyph-name="M" unicode="M" horiz-adv-x="841" 
d="M46 0l141 706h85l121 -596l354 596h93l-141 -706h-68l119 593l-358 -593h-38l-121 594l-119 -594h-68z" />
    <glyph glyph-name="N" unicode="N" horiz-adv-x="700" 
d="M46 0l141 706h76l246 -606l121 606h68l-141 -706h-75l-246 606l-122 -606h-68z" />
    <glyph glyph-name="O" unicode="O" horiz-adv-x="718" 
d="M329 -15q-132 0 -195.5 78t-63.5 206q0 122 41.5 223.5t125.5 165t196 63.5q133 0 196.5 -77.5t63.5 -205.5q0 -123 -41.5 -224.5t-125.5 -165t-197 -63.5zM338 47q88 0 154 57.5t97.5 145.5t31.5 192q0 99 -47.5 158t-148.5 59q-88 0 -154 -57t-97.5 -145t-31.5 -191
q0 -100 47 -159.5t149 -59.5z" />
    <glyph glyph-name="P" unicode="P" horiz-adv-x="562" 
d="M46 0l141 706h190q214 0 214 -171q0 -98 -64.5 -153.5t-173.5 -55.5h-171l-65 -326h-71zM194 386h147q84 0 130.5 37.5t46.5 107.5q0 115 -147 115h-125z" />
    <glyph glyph-name="Q" unicode="Q" horiz-adv-x="718" 
d="M693 438q0 -154 -66 -273t-184 -161l59 -132l-60 -26l-59 143q-24 -4 -54 -4q-132 0 -195.5 78t-63.5 206q0 122 41.5 223.5t125.5 165t196 63.5q133 0 196.5 -77.5t63.5 -205.5zM418 61q96 34 149.5 141t53.5 240q0 99 -47.5 158t-148.5 59q-88 0 -154 -57t-97.5 -145
t-31.5 -191q0 -100 47 -159.5t149 -59.5q14 0 20 1l-38 92l53 23z" />
    <glyph glyph-name="R" unicode="R" horiz-adv-x="605" 
d="M609 534q0 -96 -66 -150.5t-176 -56.5l179 -327h-77l-178 327h-109l-65 -327h-71l141 706h208q214 0 214 -172zM353 385q88 0 135 37.5t47 110.5q0 58 -36 86t-114 28h-139l-52 -262h159z" />
    <glyph glyph-name="S" unicode="S" horiz-adv-x="587" 
d="M272 -15q-120 0 -178.5 55t-58.5 150q0 20 3 43h73q-4 -21 -4 -42q0 -69 42.5 -107.5t127.5 -38.5q86 0 136 39.5t50 105.5q0 22 -5 39.5t-19 32t-25 24t-37 20.5t-40 16.5t-48 17.5q-86 30 -130 71t-44 112q0 89 66.5 143.5t175.5 54.5q105 0 159.5 -51.5t54.5 -136.5
q0 -28 -4 -48h-70q5 27 5 45q0 61 -38.5 96.5t-111.5 35.5q-75 0 -120 -37t-45 -97q0 -16 4 -30t10 -24t18 -20t21 -16.5t26.5 -14.5t28 -12t32.5 -12t32 -12q93 -35 135 -75t42 -115q0 -99 -71 -155.5t-193 -56.5z" />
    <glyph glyph-name="T" unicode="T" horiz-adv-x="543" 
d="M188 0l129 645h-217l12 61h505l-12 -61h-217l-129 -645h-71z" />
    <glyph glyph-name="U" unicode="U" horiz-adv-x="630" 
d="M277 -15q-211 0 -211 178q0 31 8 74l94 469h71l-96 -480q-6 -32 -6 -58q0 -62 34 -91.5t108 -29.5q88 0 135.5 41t64.5 128l97 490h71l-101 -506q-23 -110 -87.5 -162.5t-181.5 -52.5z" />
    <glyph glyph-name="V" unicode="V" horiz-adv-x="602" 
d="M610 706h76l-397 -706h-72l-115 706h72l95 -624z" />
    <glyph glyph-name="W" unicode="W" horiz-adv-x="882" 
d="M893 706h72l-335 -706h-77l-44 609l-274 -609h-74l-59 706h67l47 -606l271 606h78l44 -603z" />
    <glyph glyph-name="X" unicode="X" horiz-adv-x="636" 
d="M-35 0l333 378l-172 328h77l145 -280l241 280h88l-295 -337l193 -369h-78l-165 320l-277 -320h-90z" />
    <glyph glyph-name="Y" unicode="Y" horiz-adv-x="549" 
d="M192 0l61 305l-151 401h72l125 -332l250 332h84l-310 -401l-61 -305h-70z" />
    <glyph glyph-name="Z" unicode="Z" horiz-adv-x="559" 
d="M-25 0l507 644h-361l12 62h480l-505 -644h388l-12 -62h-509z" />
    <glyph glyph-name="bracketleft" unicode="[" horiz-adv-x="373" 
d="M73 -201l201 1007h189l-11 -54h-129l-180 -899h129l-11 -54h-188z" />
    <glyph glyph-name="backslash" unicode="\" horiz-adv-x="436" 
d="M341 -50h-64l-145 771h64z" />
    <glyph glyph-name="bracketright" unicode="]" horiz-adv-x="373" 
d="M325 806l-201 -1007h-189l11 54h129l180 899h-129l11 54h188z" />
    <glyph glyph-name="asciicircum" unicode="^" horiz-adv-x="429" 
d="M424 374h-63l-59 282l-172 -282h-72l204 332h90z" />
    <glyph glyph-name="underscore" unicode="_" horiz-adv-x="384" 
d="M-80 -158l12 60h384l-12 -60h-384z" />
    <glyph glyph-name="grave" unicode="`" horiz-adv-x="265" 
d="M281 573h-60l-74 153h66z" />
    <glyph glyph-name="a" unicode="a" horiz-adv-x="528" 
d="M288 495q94 0 135.5 -42t41.5 -120q0 -31 -10 -80l-51 -253h-65l14 71q-65 -82 -181 -82q-74 0 -112 34t-38 94q0 164 238 164h135q6 32 6 55q0 51 -26.5 77t-87.5 26q-118 0 -139 -105h-68q13 75 66.5 118t141.5 43zM192 44q80 0 126.5 45t65.5 140h-119
q-173 0 -173 -102q0 -83 100 -83z" />
    <glyph glyph-name="b" unicode="b" horiz-adv-x="563" 
d="M346 495q91 0 134 -56t43 -149q0 -123 -70.5 -211.5t-180.5 -88.5q-127 0 -157 104l-19 -94h-65l141 706h65l-58 -290q67 79 167 79zM263 49q87 0 139 71t52 168q0 67 -30 107t-94 40q-68 0 -116.5 -44t-63.5 -120q-12 -63 -12 -88q0 -64 32.5 -99t92.5 -35z" />
    <glyph glyph-name="c" unicode="c" horiz-adv-x="515" 
d="M233 -10q-97 0 -144 56t-47 149q0 125 72.5 212.5t187.5 87.5q84 0 133 -43.5t49 -120.5q0 -14 -1 -22h-68q1 6 1 16q0 52 -31 81t-85 29q-87 0 -138 -71.5t-51 -169.5q0 -67 30.5 -106t94.5 -39q58 0 98.5 33.5t51.5 87.5h71q-17 -84 -78 -132t-146 -48z" />
    <glyph glyph-name="d" unicode="d" horiz-adv-x="563" 
d="M512 706h65l-141 -706h-65l14 69q-66 -80 -167 -80q-91 0 -134 56t-43 148q0 123 70 212t181 89q61 0 101.5 -26.5t54.5 -78.5zM233 48q68 0 116.5 44t63.5 120q12 64 12 89q0 64 -32.5 99t-92.5 35q-86 0 -138.5 -71.5t-52.5 -168.5q0 -66 30 -106.5t94 -40.5z" />
    <glyph glyph-name="e" unicode="e" horiz-adv-x="537" 
d="M492 231h-381q-2 -26 -2 -39q0 -146 137 -146q118 0 159 105h70q-24 -77 -85.5 -119t-144.5 -42q-103 0 -153 55t-50 148q0 128 71.5 215t189.5 87q90 0 142 -53.5t52 -149.5q0 -32 -5 -61zM301 438q-70 0 -116 -42.5t-65 -112.5h311v11q0 144 -130 144z" />
    <glyph glyph-name="f" unicode="f" horiz-adv-x="324" 
d="M53 0l85 427h-78l11 56h79l20 98q27 134 166 134q31 0 59 -5l-12 -57q-20 5 -44 5q-89 0 -107 -93l-16 -82h131l-11 -56h-132l-85 -427h-66z" />
    <glyph glyph-name="g" unicode="g" horiz-adv-x="563" 
d="M468 483h64l-99 -496q-17 -93 -75.5 -146t-162.5 -53q-98 0 -148.5 42t-38.5 123h66q-8 -54 25.5 -82t97.5 -28q143 0 172 156l13 67q-64 -75 -164 -75q-91 0 -134 56t-43 146q0 124 70 212.5t181 88.5q127 0 157 -106zM234 51q68 0 116.5 43.5t63.5 118.5q11 59 11 88
q0 64 -32.5 99t-92.5 35q-86 0 -138 -70t-52 -167q0 -67 30 -107t94 -40z" />
    <glyph glyph-name="h" unicode="h" horiz-adv-x="550" 
d="M337 495q151 0 151 -156q0 -35 -9 -76l-52 -263h-66l53 266q8 38 8 66q0 103 -105 103q-134 0 -163 -150l-58 -285h-65l141 706h65l-56 -282q59 71 156 71z" />
    <glyph glyph-name="i" unicode="i" horiz-adv-x="224" 
d="M195 600q-22 0 -36 13.5t-14 34.5t14 35t36 14q20 0 34.5 -14t14.5 -35t-14 -34.5t-35 -13.5zM31 0l96 483h66l-97 -483h-65z" />
    <glyph glyph-name="j" unicode="j" horiz-adv-x="224" 
d="M194 600q-22 0 -35.5 13.5t-13.5 34.5t13.5 35t35.5 14q20 0 34.5 -14t14.5 -35t-14 -34.5t-35 -13.5zM-64 -204q-25 0 -46 4l12 58q11 -2 28 -2q39 0 59.5 18t28.5 61l109 548h66l-113 -568q-13 -63 -47 -91t-97 -28z" />
    <glyph glyph-name="k" unicode="k" horiz-adv-x="449" 
d="M473 483l-263 -222l193 -261h-78l-180 245l-49 -245h-65l141 706h65l-84 -419l228 196h92z" />
    <glyph glyph-name="l" unicode="l" horiz-adv-x="224" 
d="M31 0l141 706h65l-141 -706h-65z" />
    <glyph glyph-name="m" unicode="m" horiz-adv-x="851" 
d="M645 495q143 0 143 -149q0 -37 -8 -83l-53 -263h-65l53 266q7 35 7 67q0 53 -23.5 77.5t-72.5 24.5q-127 0 -157 -150l-57 -285h-66l53 266q8 38 8 63q0 106 -96 106q-128 0 -157 -150l-58 -285h-65l96 483h66l-11 -57q56 69 148 69q117 0 138 -106q62 106 177 106z" />
    <glyph glyph-name="n" unicode="n" horiz-adv-x="550" 
d="M338 495q74 0 112 -39t38 -108q0 -42 -9 -85l-52 -263h-66l53 264q7 35 7 70q0 101 -108 101q-62 0 -103.5 -38.5t-55.5 -111.5l-58 -285h-65l96 483h66l-12 -59q61 71 157 71z" />
    <glyph glyph-name="o" unicode="o" horiz-adv-x="538" 
d="M236 -11q-99 0 -146.5 57.5t-47.5 149.5q0 126 72 212.5t187 86.5q98 0 146 -59.5t48 -152.5q0 -125 -70 -209.5t-189 -84.5zM239 48q90 0 139 70t49 167q0 150 -129 150q-88 0 -138 -72.5t-50 -166.5q0 -148 129 -148z" />
    <glyph glyph-name="p" unicode="p" horiz-adv-x="563" 
d="M346 495q91 0 134 -56.5t43 -148.5q0 -123 -70.5 -211.5t-180.5 -88.5q-126 0 -157 103l-59 -294h-65l136 684h65l-14 -69q66 81 168 81zM263 49q87 0 139 71t52 168q0 67 -30 107t-94 40q-68 0 -116.5 -44t-63.5 -120q-12 -63 -12 -88q0 -64 32.5 -99t92.5 -35z" />
    <glyph glyph-name="q" unicode="q" horiz-adv-x="563" 
d="M468 483h65l-137 -684h-65l54 270q-66 -80 -167 -80q-91 0 -134 56t-43 149q0 122 70 211t181 89q128 0 157 -107zM233 48q68 0 116.5 44t63.5 120q12 64 12 89q0 64 -32.5 99t-92.5 35q-86 0 -138.5 -71.5t-52.5 -168.5q0 -66 30 -106.5t94 -40.5z" />
    <glyph glyph-name="r" unicode="r" horiz-adv-x="331" 
d="M316 489q21 0 49 -6l-12 -61q-22 5 -45 5q-63 0 -102 -38t-53 -108l-57 -281h-65l96 483h63l-12 -61q52 67 138 67z" />
    <glyph glyph-name="s" unicode="s" horiz-adv-x="458" 
d="M193 -11q-87 0 -129 36t-42 99q0 19 3 37h65q-3 -13 -3 -29q0 -90 111 -90q58 0 92 24.5t34 65.5q0 20 -7.5 34.5t-25.5 25.5t-32.5 17t-42.5 16q-65 23 -98.5 51.5t-33.5 80.5q0 63 49.5 100.5t129.5 37.5q76 0 115.5 -33t39.5 -91q0 -15 -3 -31h-64q3 12 3 26
q0 36 -24.5 57t-71.5 21q-49 0 -78.5 -22t-29.5 -57q0 -33 27 -52t84 -39q67 -23 99.5 -53.5t32.5 -82.5q0 -69 -55.5 -109t-144.5 -40z" />
    <glyph glyph-name="t" unicode="t" horiz-adv-x="351" 
d="M202 -7q-124 0 -124 105q0 21 7 58l54 271h-80l11 56h80l24 118h66l-24 -118h147l-12 -56h-147l-54 -274q-4 -20 -4 -38q0 -64 72 -64q26 0 57 7l-11 -59q-32 -6 -62 -6z" />
    <glyph glyph-name="u" unicode="u" horiz-adv-x="550" 
d="M454 483h65l-96 -483h-66l12 59q-61 -71 -157 -71q-74 0 -112 39t-38 108q0 41 9 85l52 263h66l-53 -264q-7 -35 -7 -70q0 -101 108 -101q61 0 103 38.5t56 111.5z" />
    <glyph glyph-name="v" unicode="v" horiz-adv-x="482" 
d="M155 0l-88 483h68l69 -406l232 406h75l-281 -483h-75z" />
    <glyph glyph-name="w" unicode="w" horiz-adv-x="729" 
d="M684 483h75l-262 -483h-67l-39 394l-189 -394h-66l-69 483h68l46 -399l195 399h62l40 -397z" />
    <glyph glyph-name="x" unicode="x" horiz-adv-x="503" 
d="M-24 0l238 250l-138 233h74l110 -189l177 189h86l-235 -241l145 -242h-74l-114 197l-182 -197h-87z" />
    <glyph glyph-name="y" unicode="y" horiz-adv-x="496" 
d="M450 483h76l-426 -684h-73l126 203l-86 481h67l69 -407z" />
    <glyph glyph-name="z" unicode="z" horiz-adv-x="452" 
d="M473 483l-371 -427h285l-11 -56h-402l374 427h-264l12 56h377z" />
    <glyph glyph-name="braceleft" unicode="{" horiz-adv-x="342" 
d="M375 806h56l-10 -52h-26q-51 0 -76.5 -22.5t-34.5 -66.5l-53 -261q-12 -56 -33.5 -78.5t-70.5 -25.5q34 -5 49 -23t15 -55q0 -16 -7 -54l-46 -228q-3 -16 -3 -29q0 -61 79 -61h26l-10 -51h-35q-115 0 -115 108q0 21 4 40l45 227q6 38 6 49q0 28 -18.5 39t-64.5 11l12 59
q62 0 83.5 20t33.5 80l51 257q11 53 47 85t96 32z" />
    <glyph glyph-name="bar" unicode="|" horiz-adv-x="407" 
d="M82 -201l191 957h67l-191 -957h-67z" />
    <glyph glyph-name="braceright" unicode="}" horiz-adv-x="342" 
d="M231 383q0 -28 18.5 -39.5t65.5 -11.5l-12 -59q-62 0 -83.5 -20t-33.5 -80l-52 -257q-11 -53 -47 -85t-95 -32h-57l11 52h26q51 0 76.5 22.5t34.5 66.5l52 261q11 56 33 78.5t71 24.5q-34 5 -49 23.5t-15 55.5q0 17 7 54l46 229q3 15 3 28q0 61 -79 61h-26l11 51h35
q58 0 86.5 -28.5t28.5 -79.5q0 -21 -4 -40l-45 -227q-7 -33 -7 -48z" />
    <glyph glyph-name="asciitilde" unicode="~" horiz-adv-x="572" 
d="M379 189q-36 0 -58.5 18t-42.5 50q-13 20 -20.5 29.5t-21 18t-29.5 8.5q-36 0 -58.5 -31.5t-39.5 -89.5h-56q49 181 157 181q36 0 58 -18t42 -50q14 -20 22 -30t21 -18.5t29 -8.5q36 0 58 31t39 89h56q-48 -179 -156 -179z" />
    <glyph glyph-name="uni00A0" unicode="&#xa0;" horiz-adv-x="181" 
 />
    <glyph glyph-name="exclamdown" unicode="&#xa1;" horiz-adv-x="264" 
d="M177 518q23 0 37 -14t14 -36q0 -23 -14 -37t-37 -14q-22 0 -36.5 14t-14.5 37q0 22 14.5 36t36.5 14zM176 323l-96 -524h-73l112 524h57z" />
    <glyph glyph-name="cent" unicode="&#xa2;" horiz-adv-x="515" 
d="M506 421h-69q1 6 1 16q0 46 -24 74t-68 34l-78 -386q55 3 92 36.5t48 86.5h71q-17 -84 -77.5 -132t-144.5 -49l-20 -101h-45l20 104q-76 12 -112.5 66t-36.5 136q0 121 70 208t180 92l20 100h45l-20 -102q70 -8 109.5 -50t39.5 -111q0 -15 -1 -22zM131 305
q0 -124 93 -143l78 384q-79 -9 -125 -78.5t-46 -162.5z" />
    <glyph glyph-name="sterling" unicode="&#xa3;" horiz-adv-x="603" 
d="M600 470h-66q6 35 6 63q0 63 -28 96t-95 33q-82 0 -120.5 -46t-57.5 -138l-20 -102h201l-9 -48h-202l-54 -271h112q105 0 155.5 47.5t70.5 146.5h65q-29 -133 -88.5 -192t-190.5 -59h-286l12 57h79l54 271h-79l9 48h80l21 108q23 118 79.5 177.5t169.5 59.5
q101 0 144 -46t43 -134q0 -28 -5 -71z" />
    <glyph glyph-name="currency" unicode="&#xa4;" horiz-adv-x="537" 
d="M502 378q0 -111 -82 -182l60 -92h-67l-40 61q-51 -24 -108 -24q-70 0 -118 37l-78 -74h-66l112 107q-35 49 -35 118q0 112 82 183l-60 91h66l40 -61q51 24 108 24q71 0 119 -37l78 74h67l-113 -107q35 -50 35 -118zM138 330q0 -59 35.5 -97t96.5 -38q77 0 125 53.5
t48 128.5q0 59 -35.5 97t-96.5 38q-77 0 -125 -53.5t-48 -128.5z" />
    <glyph glyph-name="yen" unicode="&#xa5;" horiz-adv-x="540" 
d="M629 706l-297 -365h179l-9 -45h-184l-17 -85h183l-9 -46h-183l-33 -165h-72l33 165h-185l9 46h185l17 85h-185l9 45h181l-154 365h71l128 -310l250 310h83z" />
    <glyph glyph-name="brokenbar" unicode="&#xa6;" horiz-adv-x="407" 
d="M208 428l65 328h67l-65 -328h-67zM82 -201l66 329h67l-66 -329h-67z" />
    <glyph glyph-name="section" unicode="&#xa7;" horiz-adv-x="480" 
d="M484 561h-64q1 7 1 20q0 90 -105 90q-57 0 -90.5 -27t-33.5 -71q0 -24 7.5 -42.5t28.5 -35t32 -23t44 -24.5q67 -36 98.5 -73.5t31.5 -95.5q0 -76 -52 -124t-136 -53q57 -29 86.5 -62t29.5 -91q0 -75 -54 -118t-142 -43q-168 0 -168 140q0 18 1 28h67q-2 -18 -2 -27
q0 -90 102 -90q62 0 95 29.5t33 80.5q0 46 -25.5 70.5t-81.5 52.5q-66 33 -100 71.5t-34 97.5q0 76 56 121t144 47q-31 18 -48 29.5t-37.5 31.5t-30 45t-9.5 56q0 69 52.5 109.5t135.5 40.5q85 0 127 -37t42 -103q0 -13 -1 -20zM232 146q62 0 100.5 35t38.5 90
q0 46 -29.5 71t-85.5 25q-64 0 -102.5 -32.5t-38.5 -87.5q0 -47 30 -74t87 -27z" />
    <glyph glyph-name="dieresis" unicode="&#xa8;" horiz-adv-x="381" 
d="M178 592q-21 0 -34.5 13.5t-13.5 33.5q0 21 13.5 34.5t34.5 13.5t35 -13.5t14 -34.5q0 -20 -14.5 -33.5t-34.5 -13.5zM362 592q-21 0 -34.5 13.5t-13.5 33.5q0 21 13.5 34.5t34.5 13.5q20 0 34 -13.5t14 -34.5q0 -20 -14 -33.5t-34 -13.5z" />
    <glyph glyph-name="copyright" unicode="&#xa9;" horiz-adv-x="813" 
d="M392 -15q-150 0 -234.5 86.5t-84.5 231.5q0 172 113 295t280 123q150 0 234 -86t84 -230q0 -175 -112 -297.5t-280 -122.5zM394 28q150 0 247.5 110t97.5 266q0 126 -72 200t-201 74q-151 0 -249 -109.5t-98 -264.5q0 -127 72.5 -201.5t202.5 -74.5zM396 108
q-83 0 -130 54.5t-47 152.5q0 120 63.5 202.5t173.5 82.5q83 0 131.5 -47t46.5 -135h-60q3 62 -29 95.5t-90 33.5q-85 0 -132 -69.5t-47 -164.5q0 -151 122 -151q58 0 98.5 34t53.5 93h60q-18 -86 -75.5 -133.5t-138.5 -47.5z" />
    <glyph glyph-name="ordfeminine" unicode="&#xaa;" horiz-adv-x="376" 
d="M260 715q70 0 101 -28t31 -82q0 -24 -6 -54l-37 -182h-55l9 42q-45 -50 -120 -50q-53 0 -80.5 25t-27.5 70q0 116 168 116h91q4 19 4 34q0 34 -18.5 50.5t-62.5 16.5q-72 0 -85 -70h-56q21 112 144 112zM203 405q51 0 80.5 30.5t43.5 96.5h-82q-111 0 -111 -71
q0 -56 69 -56z" />
    <glyph glyph-name="guillemotleft" unicode="&#xab;" horiz-adv-x="459" 
d="M150 118l-121 161l184 159h80l-190 -165l117 -155h-70zM337 118l-120 161l183 159h80l-189 -165l116 -155h-70z" />
    <glyph glyph-name="logicalnot" unicode="&#xac;" horiz-adv-x="572" 
d="M421 47l64 320h-407l12 55h464l-75 -375h-58z" />
    <glyph glyph-name="uni00AD" unicode="&#xad;" horiz-adv-x="380" 
d="M55 251l13 61h273l-13 -61h-273z" />
    <glyph glyph-name="registered" unicode="&#xae;" horiz-adv-x="493" 
d="M323 720q88 0 134 -51t46 -134q0 -99 -62 -165t-162 -66q-88 0 -134.5 52t-46.5 135q0 97 63 163t162 66zM279 335q89 0 140.5 57.5t51.5 144.5q0 70 -37.5 111t-110.5 41q-87 0 -140 -57t-53 -140q0 -72 38 -114.5t111 -42.5zM326 640q90 0 90 -68q0 -58 -57 -70
q28 -13 28 -47q0 -11 -3 -24l-10 -48h-39l10 50q3 14 3 21q0 18 -10.5 25.5t-35.5 7.5h-59l-21 -104h-40l51 257h93zM315 520q60 0 60 46q0 40 -51 40h-57l-17 -86h65z" />
    <glyph glyph-name="macron" unicode="&#xaf;" horiz-adv-x="377" 
d="M124 613l10 50h276l-9 -50h-277z" />
    <glyph glyph-name="degree" unicode="&#xb0;" horiz-adv-x="300" 
d="M220 472q-58 0 -93.5 34.5t-35.5 89.5q0 56 35.5 90.5t93.5 34.5t94.5 -34.5t36.5 -90.5q0 -55 -36.5 -89.5t-94.5 -34.5zM221 522q34 0 54 20.5t20 53.5q0 35 -20 56t-54 21t-54.5 -21t-20.5 -56q0 -33 20.5 -53.5t54.5 -20.5z" />
    <glyph glyph-name="plusminus" unicode="&#xb1;" horiz-adv-x="572" 
d="M340 363h202l-11 -57h-203l-35 -177h-59l35 177h-203l12 57h203l34 173h59zM10 27l12 57h465l-12 -57h-465z" />
    <glyph glyph-name="uni00B2" unicode="&#xb2;" horiz-adv-x="343" 
d="M62 438l1 3l200 167q47 39 66 63.5t19 57.5q0 60 -71 60q-82 0 -100 -90h-54q12 64 50.5 100.5t103.5 36.5q63 0 94.5 -27.5t31.5 -77.5q0 -41 -21 -71.5t-64 -64.5l-128 -105h167l-10 -52h-285z" />
    <glyph glyph-name="uni00B3" unicode="&#xb3;" horiz-adv-x="369" 
d="M419 737q0 -75 -85 -97q58 -20 58 -85q0 -59 -43.5 -93t-113.5 -34q-138 0 -138 116q0 16 3 34h51q-3 -14 -3 -27q0 -77 87 -77q47 0 74.5 22.5t27.5 60.5q0 63 -90 63h-12l9 43h21q98 0 98 69q0 58 -74 58q-45 0 -70.5 -24t-32.5 -61h-52q11 59 53 95t111 36
q59 0 90 -27t31 -72z" />
    <glyph glyph-name="acute" unicode="&#xb4;" horiz-adv-x="266" 
d="M117 573l120 153h75l-126 -153h-69z" />
    <glyph glyph-name="uni00B5" unicode="&#xb5;" horiz-adv-x="554" 
d="M458 483h65l-96 -483h-65l13 65q-61 -76 -161 -76q-87 0 -114 58q-5 -51 -19 -119l-25 -129h-65l136 684h65l-56 -280q-7 -31 -7 -59q0 -50 25 -73t77 -23q67 0 111 39t60 113z" />
    <glyph glyph-name="paragraph" unicode="&#xb6;" horiz-adv-x="625" 
d="M208 -201l103 516h-39q-192 0 -192 176q0 102 58 158.5t165 56.5h395l-11 -58h-68l-169 -849h-63l169 849h-117l-169 -849h-62z" />
    <glyph glyph-name="periodcentered" unicode="&#xb7;" horiz-adv-x="264" 
d="M140 235q-23 0 -37 14t-14 36q0 23 14 37.5t37 14.5q22 0 36.5 -14.5t14.5 -37.5q0 -22 -14.5 -36t-36.5 -14z" />
    <glyph glyph-name="cedilla" unicode="&#xb8;" horiz-adv-x="288" 
d="M71 -54q91 -5 91 -75q0 -43 -33 -65t-87 -22q-48 0 -81 16l17 42q31 -12 63 -12q30 0 49 11.5t19 31.5q0 38 -78 38h-31l47 94h54z" />
    <glyph glyph-name="uni00B9" unicode="&#xb9;" horiz-adv-x="256" 
d="M148 438l67 337h-81l19 51h130l-78 -388h-57z" />
    <glyph glyph-name="ordmasculine" unicode="&#xba;" horiz-adv-x="381" 
d="M228 361q-71 0 -105 40.5t-34 108.5q0 86 51 145.5t132 59.5q70 0 104.5 -40t34.5 -107q0 -86 -51.5 -146.5t-131.5 -60.5zM231 411q57 0 90.5 46t33.5 110q0 100 -85 100q-58 0 -91.5 -46t-33.5 -111q0 -99 86 -99z" />
    <glyph glyph-name="guillemotright" unicode="&#xbb;" horiz-adv-x="459" 
d="M136 438l121 -161l-184 -159h-80l190 165l-117 155h70zM324 438l120 -161l-183 -159h-81l190 165l-116 155h70z" />
    <glyph glyph-name="onequarter" unicode="&#xbc;" horiz-adv-x="756" 
d="M65 0l554 706h61l-554 -706h-61zM124 318l67 337h-81l19 51h130l-78 -388h-57zM580 0l20 99h-231v2l240 287h104l-48 -241h57l-10 -48h-57l-20 -99h-55zM471 147h138l44 221z" />
    <glyph glyph-name="onehalf" unicode="&#xbd;" horiz-adv-x="783" 
d="M65 0l554 706h61l-554 -706h-61zM124 318l67 337h-81l19 51h130l-78 -388h-57zM414 0l1 3l200 167q47 39 66 63.5t19 57.5q0 60 -71 60q-82 0 -100 -90h-54q12 64 50.5 100.5t103.5 36.5q63 0 94.5 -27.5t31.5 -77.5q0 -41 -21 -71.5t-64 -64.5l-128 -105h167l-10 -52
h-285z" />
    <glyph glyph-name="threequarters" unicode="&#xbe;" horiz-adv-x="867" 
d="M368 435q0 -59 -43.5 -93t-113.5 -34q-138 0 -138 116q0 16 3 34h51q-3 -14 -3 -27q0 -77 87 -77q47 0 74.5 22.5t27.5 60.5q0 63 -90 63h-12l9 43h21q98 0 98 69q0 58 -74 58q-45 0 -70.5 -24t-32.5 -61h-52q11 59 53 95t111 36q59 0 90 -27t31 -72q0 -75 -85 -97
q58 -20 58 -85zM730 706h61l-554 -706h-61zM776 147h57l-10 -48h-57l-20 -99h-55l20 99h-231v2l240 287h104zM720 147l44 221l-182 -221h138z" />
    <glyph glyph-name="questiondown" unicode="&#xbf;" horiz-adv-x="482" 
d="M293 523q23 0 37 -14t14 -36q0 -23 -14 -37.5t-37 -14.5q-22 0 -36.5 14.5t-14.5 37.5q0 22 14.5 36t36.5 14zM306 327q-145 -168 -181 -216q-72 -100 -72 -166q0 -44 28 -71.5t90 -27.5q75 0 109.5 38.5t48.5 112.5h67q-18 -101 -71.5 -154.5t-155.5 -53.5
q-93 0 -140 42.5t-47 114.5q0 68 46.5 139t162.5 207q20 23 30 35h85z" />
    <glyph glyph-name="Agrave" unicode="&#xc0;" horiz-adv-x="610" 
d="M482 779h-68l-108 124h75zM483 0l-26 189h-317l-102 -189h-77l383 706h107l102 -706h-70zM172 248h276l-56 405h-2z" />
    <glyph glyph-name="Aacute" unicode="&#xc1;" horiz-adv-x="610" 
d="M562 903l-146 -124h-80l140 124h86zM344 706h107l102 -706h-70l-26 189h-317l-102 -189h-77zM172 248h276l-56 405h-2z" />
    <glyph glyph-name="Acircumflex" unicode="&#xc2;" horiz-adv-x="610" 
d="M433 868l-107 -89h-81l148 124h84l97 -124h-68zM344 706h107l102 -706h-70l-26 189h-317l-102 -189h-77zM172 248h276l-56 405h-2z" />
    <glyph glyph-name="Atilde" unicode="&#xc3;" horiz-adv-x="610" 
d="M565 903h50q-35 -128 -126 -128q-46 0 -80 42q-2 2 -7.5 8.5t-7 8.5t-6.5 7t-8 6.5l-8 4t-10.5 3.5t-11.5 1q-49 0 -73 -79h-50q32 129 127 129q46 0 81 -43q2 -2 6 -7.5t6 -7.5t6 -6.5t6 -6l6 -4.5t7.5 -4t8.5 -2t10 -1q50 0 74 79zM344 706h107l102 -706h-70l-26 189
h-317l-102 -189h-77zM172 248h276l-56 405h-2z" />
    <glyph glyph-name="Adieresis" unicode="&#xc4;" horiz-adv-x="610" 
d="M318 805q-21 0 -34 13t-13 33q0 21 13 34.5t34 13.5q20 0 34 -13.5t14 -34.5q0 -20 -14 -33t-34 -13zM523 899q20 0 33.5 -13.5t13.5 -34.5q0 -20 -13.5 -33t-33.5 -13q-21 0 -34.5 13t-13.5 33q0 21 13.5 34.5t34.5 13.5zM344 706h107l102 -706h-70l-26 189h-317
l-102 -189h-77zM172 248h276l-56 405h-2z" />
    <glyph glyph-name="Aring" unicode="&#xc5;" horiz-adv-x="610" 
d="M412 746q-48 0 -77 27.5t-29 73.5t29 73.5t77 27.5t77.5 -28t29.5 -73q0 -46 -29.5 -73.5t-77.5 -27.5zM412 907q-28 0 -44.5 -16.5t-16.5 -43.5t16.5 -43.5t44.5 -16.5t44.5 16.5t16.5 43.5t-17 43.5t-44 16.5zM483 0l-26 189h-317l-102 -189h-77l383 706h107l102 -706
h-70zM172 248h276l-56 405h-2z" />
    <glyph glyph-name="AE" unicode="&#xc6;" horiz-adv-x="770" 
d="M801 645h-304l-19 -254h269l-13 -62h-260l-20 -268h230l-12 -61h-295l16 191h-239l-114 -191h-79l428 706h424zM398 250l33 400h-2l-239 -400h208z" />
    <glyph glyph-name="Ccedilla" unicode="&#xc7;" horiz-adv-x="693" 
d="M685 456h-69q1 8 1 20q0 85 -49.5 134t-135.5 49q-90 0 -157.5 -56t-99.5 -141.5t-32 -184.5q0 -230 191 -230q92 0 154 51.5t86 139.5h71q-24 -117 -107 -184t-200 -69l-20 -39q91 -5 91 -75q0 -43 -33 -65t-87 -22q-48 0 -81 16l17 42q31 -12 63 -12q30 0 49 11.5
t19 31.5q0 38 -78 38h-31l38 76q-110 13 -162 89.5t-52 200.5q0 118 42 218t127 163t197 63q116 0 182.5 -66t66.5 -178q0 -12 -1 -21z" />
    <glyph glyph-name="Egrave" unicode="&#xc8;" horiz-adv-x="536" 
d="M463 779h-68l-108 124h75zM46 0l141 706h392l-12 -61h-321l-51 -253h318l-13 -63h-318l-53 -268h320l-11 -61h-392z" />
    <glyph glyph-name="Eacute" unicode="&#xc9;" horiz-adv-x="536" 
d="M317 779l140 124h86l-146 -124h-80zM46 0l141 706h392l-12 -61h-321l-51 -253h318l-13 -63h-318l-53 -268h320l-11 -61h-392z" />
    <glyph glyph-name="Ecircumflex" unicode="&#xca;" horiz-adv-x="536" 
d="M226 779l148 124h84l97 -124h-68l-73 89l-107 -89h-81zM46 0l141 706h392l-12 -61h-321l-51 -253h318l-13 -63h-318l-53 -268h320l-11 -61h-392z" />
    <glyph glyph-name="Edieresis" unicode="&#xcb;" horiz-adv-x="536" 
d="M299 805q-21 0 -34 13t-13 33q0 21 13 34.5t34 13.5q20 0 34 -13.5t14 -34.5q0 -20 -14 -33t-34 -13zM504 805q-21 0 -34.5 13t-13.5 33q0 21 13.5 34.5t34.5 13.5q20 0 33.5 -13.5t13.5 -34.5q0 -20 -13.5 -33t-33.5 -13zM46 0l141 706h392l-12 -61h-321l-51 -253h318
l-13 -63h-318l-53 -268h320l-11 -61h-392z" />
    <glyph glyph-name="Igrave" unicode="&#xcc;" horiz-adv-x="260" 
d="M310 779h-68l-108 124h75zM46 0l141 706h71l-141 -706h-71z" />
    <glyph glyph-name="Iacute" unicode="&#xcd;" horiz-adv-x="260" 
d="M164 779l140 124h86l-146 -124h-80zM46 0l141 706h71l-141 -706h-71z" />
    <glyph glyph-name="Icircumflex" unicode="&#xce;" horiz-adv-x="260" 
d="M111 779l108 124h77l60 -124h-59l-42 88l-77 -88h-67zM46 0l141 706h71l-141 -706h-71z" />
    <glyph glyph-name="Idieresis" unicode="&#xcf;" horiz-adv-x="260" 
d="M174 795q-19 0 -31.5 12t-12.5 31t12.5 31.5t31.5 12.5q18 0 30.5 -12.5t12.5 -31.5t-12.5 -31t-30.5 -12zM308 794q-19 0 -31 12t-12 31t12 31.5t31 12.5q18 0 30.5 -12.5t12.5 -31.5t-12.5 -31t-30.5 -12zM46 0l141 706h71l-141 -706h-71z" />
    <glyph glyph-name="Eth" unicode="&#xd0;" horiz-adv-x="681" 
d="M359 706q294 0 294 -287q0 -185 -102.5 -302t-279.5 -117h-225l67 333h-59l10 54h59l64 319h172zM264 61q153 0 234.5 99.5t81.5 260.5q0 107 -52 165.5t-172 58.5h-110l-52 -258h178l-11 -54h-178l-54 -272h135z" />
    <glyph glyph-name="Ntilde" unicode="&#xd1;" horiz-adv-x="700" 
d="M537 775q-46 0 -80 42q-2 2 -7.5 8.5t-7 8.5t-6.5 7t-8 6.5l-8 4t-10.5 3.5t-11.5 1q-49 0 -73 -79h-50q32 129 127 129q46 0 81 -43q2 -2 6 -7.5t6 -7.5t6 -6.5t6 -6l6 -4.5t7.5 -4t8.5 -2t10 -1q50 0 74 79h50q-35 -128 -126 -128zM46 0l141 706h76l246 -606l121 606
h68l-141 -706h-75l-246 606l-122 -606h-68z" />
    <glyph glyph-name="Ograve" unicode="&#xd2;" horiz-adv-x="718" 
d="M534 779h-68l-108 124h75zM329 -15q-132 0 -195.5 78t-63.5 206q0 122 41.5 223.5t125.5 165t196 63.5q133 0 196.5 -77.5t63.5 -205.5q0 -123 -41.5 -224.5t-125.5 -165t-197 -63.5zM338 47q88 0 154 57.5t97.5 145.5t31.5 192q0 99 -47.5 158t-148.5 59q-88 0 -154 -57
t-97.5 -145t-31.5 -191q0 -100 47 -159.5t149 -59.5z" />
    <glyph glyph-name="Oacute" unicode="&#xd3;" horiz-adv-x="718" 
d="M388 779l140 124h86l-146 -124h-80zM329 -15q-132 0 -195.5 78t-63.5 206q0 122 41.5 223.5t125.5 165t196 63.5q133 0 196.5 -77.5t63.5 -205.5q0 -123 -41.5 -224.5t-125.5 -165t-197 -63.5zM338 47q88 0 154 57.5t97.5 145.5t31.5 192q0 99 -47.5 158t-148.5 59
q-88 0 -154 -57t-97.5 -145t-31.5 -191q0 -100 47 -159.5t149 -59.5z" />
    <glyph glyph-name="Ocircumflex" unicode="&#xd4;" horiz-adv-x="718" 
d="M297 779l148 124h84l97 -124h-68l-73 89l-107 -89h-81zM329 -15q-132 0 -195.5 78t-63.5 206q0 122 41.5 223.5t125.5 165t196 63.5q133 0 196.5 -77.5t63.5 -205.5q0 -123 -41.5 -224.5t-125.5 -165t-197 -63.5zM338 47q88 0 154 57.5t97.5 145.5t31.5 192
q0 99 -47.5 158t-148.5 59q-88 0 -154 -57t-97.5 -145t-31.5 -191q0 -100 47 -159.5t149 -59.5z" />
    <glyph glyph-name="Otilde" unicode="&#xd5;" horiz-adv-x="718" 
d="M541 775q-46 0 -80 42q-2 2 -7.5 8.5t-7 8.5t-6.5 7t-8 6.5l-8 4t-10.5 3.5t-11.5 1q-49 0 -73 -79h-50q32 129 127 129q46 0 81 -43q2 -2 6 -7.5t6 -7.5t6 -6.5t6 -6l6 -4.5t7.5 -4t8.5 -2t10 -1q50 0 74 79h50q-35 -128 -126 -128zM329 -15q-132 0 -195.5 78t-63.5 206
q0 122 41.5 223.5t125.5 165t196 63.5q133 0 196.5 -77.5t63.5 -205.5q0 -123 -41.5 -224.5t-125.5 -165t-197 -63.5zM338 47q88 0 154 57.5t97.5 145.5t31.5 192q0 99 -47.5 158t-148.5 59q-88 0 -154 -57t-97.5 -145t-31.5 -191q0 -100 47 -159.5t149 -59.5z" />
    <glyph glyph-name="Odieresis" unicode="&#xd6;" horiz-adv-x="718" 
d="M370 805q-21 0 -34 13t-13 33q0 21 13 34.5t34 13.5q20 0 34 -13.5t14 -34.5q0 -20 -14 -33t-34 -13zM575 805q-21 0 -34.5 13t-13.5 33q0 21 13.5 34.5t34.5 13.5q20 0 33.5 -13.5t13.5 -34.5q0 -20 -13.5 -33t-33.5 -13zM329 -15q-132 0 -195.5 78t-63.5 206
q0 122 41.5 223.5t125.5 165t196 63.5q133 0 196.5 -77.5t63.5 -205.5q0 -123 -41.5 -224.5t-125.5 -165t-197 -63.5zM338 47q88 0 154 57.5t97.5 145.5t31.5 192q0 99 -47.5 158t-148.5 59q-88 0 -154 -57t-97.5 -145t-31.5 -191q0 -100 47 -159.5t149 -59.5z" />
    <glyph glyph-name="multiply" unicode="&#xd7;" horiz-adv-x="572" 
d="M540 449l-206 -172l133 -167l-43 -36l-134 167l-205 -171l-36 44l206 172l-134 167l44 37l133 -168l205 171z" />
    <glyph glyph-name="Oslash" unicode="&#xd8;" horiz-adv-x="718" 
d="M778 706l-117 -111q32 -65 32 -157q0 -123 -41.5 -224.5t-125.5 -165t-197 -63.5q-139 0 -206 91l-78 -76h-70l124 117q-29 64 -29 152q0 122 41.5 223.5t125.5 165t196 63.5q136 0 203 -86l72 71h70zM425 659q-88 0 -154 -57t-97.5 -145t-31.5 -191q0 -56 13 -96
l427 418q-48 71 -157 71zM338 47q88 0 154 57.5t97.5 145.5t31.5 192q0 58 -16 102l-429 -420q49 -77 162 -77z" />
    <glyph glyph-name="Ugrave" unicode="&#xd9;" horiz-adv-x="630" 
d="M495 779h-68l-108 124h75zM277 -15q-211 0 -211 178q0 31 8 74l94 469h71l-96 -480q-6 -32 -6 -58q0 -62 34 -91.5t108 -29.5q88 0 135.5 41t64.5 128l97 490h71l-101 -506q-23 -110 -87.5 -162.5t-181.5 -52.5z" />
    <glyph glyph-name="Uacute" unicode="&#xda;" horiz-adv-x="630" 
d="M349 779l140 124h86l-146 -124h-80zM277 -15q-211 0 -211 178q0 31 8 74l94 469h71l-96 -480q-6 -32 -6 -58q0 -62 34 -91.5t108 -29.5q88 0 135.5 41t64.5 128l97 490h71l-101 -506q-23 -110 -87.5 -162.5t-181.5 -52.5z" />
    <glyph glyph-name="Ucircumflex" unicode="&#xdb;" horiz-adv-x="630" 
d="M258 779l148 124h84l97 -124h-68l-73 89l-107 -89h-81zM277 -15q-211 0 -211 178q0 31 8 74l94 469h71l-96 -480q-6 -32 -6 -58q0 -62 34 -91.5t108 -29.5q88 0 135.5 41t64.5 128l97 490h71l-101 -506q-23 -110 -87.5 -162.5t-181.5 -52.5z" />
    <glyph glyph-name="Udieresis" unicode="&#xdc;" horiz-adv-x="630" 
d="M331 805q-21 0 -34 13t-13 33q0 21 13 34.5t34 13.5q20 0 34 -13.5t14 -34.5q0 -20 -14 -33t-34 -13zM536 805q-21 0 -34.5 13t-13.5 33q0 21 13.5 34.5t34.5 13.5q20 0 33.5 -13.5t13.5 -34.5q0 -20 -13.5 -33t-33.5 -13zM277 -15q-211 0 -211 178q0 31 8 74l94 469h71
l-96 -480q-6 -32 -6 -58q0 -62 34 -91.5t108 -29.5q88 0 135.5 41t64.5 128l97 490h71l-101 -506q-23 -110 -87.5 -162.5t-181.5 -52.5z" />
    <glyph glyph-name="Yacute" unicode="&#xdd;" horiz-adv-x="549" 
d="M303 779l140 124h86l-146 -124h-80zM192 0l61 305l-151 401h72l125 -332l250 332h84l-310 -401l-61 -305h-70z" />
    <glyph glyph-name="Thorn" unicode="&#xde;" horiz-adv-x="563" 
d="M46 0l141 706h71l-25 -127h100q227 0 227 -196q0 -117 -71.5 -183t-192.5 -66h-152l-27 -134h-71zM156 195h128q97 0 150 47.5t53 136.5q0 70 -39 104.5t-122 34.5h-105z" />
    <glyph glyph-name="germandbls" unicode="&#xdf;" horiz-adv-x="552" 
d="M388 392q112 -38 112 -169q0 -106 -74.5 -165t-205.5 -59q-25 0 -53 2l11 57q20 -2 41 -2q100 0 155.5 44.5t55.5 126.5q0 65 -38 102t-115 37h-37l12 54h47q77 0 126.5 37.5t49.5 101.5q0 108 -116 108q-74 0 -110 -42t-51 -120l-102 -505h-65l103 515q41 206 228 206
q89 0 134 -44.5t45 -118.5q0 -67 -41.5 -111t-111.5 -55z" />
    <glyph glyph-name="agrave" unicode="&#xe0;" horiz-adv-x="528" 
d="M383 573h-60l-74 153h66zM288 495q94 0 135.5 -42t41.5 -120q0 -31 -10 -80l-51 -253h-65l14 71q-65 -82 -181 -82q-74 0 -112 34t-38 94q0 164 238 164h135q6 32 6 55q0 51 -26.5 77t-87.5 26q-118 0 -139 -105h-68q13 75 66.5 118t141.5 43zM192 44q80 0 126.5 45
t65.5 140h-119q-173 0 -173 -102q0 -83 100 -83z" />
    <glyph glyph-name="aacute" unicode="&#xe1;" horiz-adv-x="528" 
d="M457 726l-126 -153h-69l120 153h75zM288 495q94 0 135.5 -42t41.5 -120q0 -31 -10 -80l-51 -253h-65l14 71q-65 -82 -181 -82q-74 0 -112 34t-38 94q0 164 238 164h135q6 32 6 55q0 51 -26.5 77t-87.5 26q-118 0 -139 -105h-68q13 75 66.5 118t141.5 43zM192 44
q80 0 126.5 45t65.5 140h-119q-173 0 -173 -102q0 -83 100 -83z" />
    <glyph glyph-name="acircumflex" unicode="&#xe2;" horiz-adv-x="528" 
d="M349 692l-104 -120h-68l135 154h82l73 -154h-62zM288 495q94 0 135.5 -42t41.5 -120q0 -31 -10 -80l-51 -253h-65l14 71q-65 -82 -181 -82q-74 0 -112 34t-38 94q0 164 238 164h135q6 32 6 55q0 51 -26.5 77t-87.5 26q-118 0 -139 -105h-68q13 75 66.5 118t141.5 43z
M192 44q80 0 126.5 45t65.5 140h-119q-173 0 -173 -102q0 -83 100 -83z" />
    <glyph glyph-name="atilde" unicode="&#xe3;" horiz-adv-x="528" 
d="M274 678q-23 0 -37.5 -24.5t-28.5 -81.5h-49q18 82 45.5 119.5t73.5 37.5q25 0 41.5 -12.5t32.5 -43.5q2 -4 6.5 -12.5t6 -11.5t5.5 -9t6.5 -8.5t6.5 -6t9 -4.5t10 -1q23 0 36.5 24t28.5 82h49q-20 -85 -45.5 -121t-75.5 -36q-49 0 -72 55q-2 3 -6 11.5t-5.5 11.5
t-5.5 9.5t-6.5 9t-6.5 6t-9 5t-10 1.5zM288 495q94 0 135.5 -42t41.5 -120q0 -31 -10 -80l-51 -253h-65l14 71q-65 -82 -181 -82q-74 0 -112 34t-38 94q0 164 238 164h135q6 32 6 55q0 51 -26.5 77t-87.5 26q-118 0 -139 -105h-68q13 75 66.5 118t141.5 43zM192 44
q80 0 126.5 45t65.5 140h-119q-173 0 -173 -102q0 -83 100 -83z" />
    <glyph glyph-name="adieresis" unicode="&#xe4;" horiz-adv-x="528" 
d="M244 592q-21 0 -34.5 13.5t-13.5 33.5q0 21 13.5 34.5t34.5 13.5t35 -13.5t14 -34.5q0 -20 -14.5 -33.5t-34.5 -13.5zM428 592q-21 0 -34.5 13.5t-13.5 33.5q0 21 13.5 34.5t34.5 13.5q20 0 34 -13.5t14 -34.5q0 -20 -14 -33.5t-34 -13.5zM288 495q94 0 135.5 -42
t41.5 -120q0 -31 -10 -80l-51 -253h-65l14 71q-65 -82 -181 -82q-74 0 -112 34t-38 94q0 164 238 164h135q6 32 6 55q0 51 -26.5 77t-87.5 26q-118 0 -139 -105h-68q13 75 66.5 118t141.5 43zM192 44q80 0 126.5 45t65.5 140h-119q-173 0 -173 -102q0 -83 100 -83z" />
    <glyph glyph-name="aring" unicode="&#xe5;" horiz-adv-x="528" 
d="M333 556q-48 0 -77 27.5t-29 73.5t29 73.5t77 27.5t77.5 -28t29.5 -73t-29.5 -73t-77.5 -28zM333 717q-27 0 -44 -16.5t-17 -43.5t17 -43.5t44 -16.5q28 0 44.5 16.5t16.5 43.5t-17 43.5t-44 16.5zM288 495q94 0 135.5 -42t41.5 -120q0 -31 -10 -80l-51 -253h-65l14 71
q-65 -82 -181 -82q-74 0 -112 34t-38 94q0 164 238 164h135q6 32 6 55q0 51 -26.5 77t-87.5 26q-118 0 -139 -105h-68q13 75 66.5 118t141.5 43zM192 44q80 0 126.5 45t65.5 140h-119q-173 0 -173 -102q0 -83 100 -83z" />
    <glyph glyph-name="ae" unicode="&#xe6;" horiz-adv-x="854" 
d="M809 231h-358q-2 -26 -2 -39q0 -146 124 -146q111 0 149 105h70q-24 -77 -82.5 -119t-137.5 -42q-143 0 -176 129q-65 -130 -217 -130q-78 0 -117.5 34.5t-39.5 96.5q0 85 64.5 123.5t173.5 38.5h135q6 32 6 54q0 51 -26.5 77t-87.5 26q-121 0 -140 -105h-67
q13 75 66.5 118t141.5 43q131 0 163 -90q67 90 179 90q85 0 134.5 -53.5t49.5 -149.5q0 -34 -5 -61zM629 438q-66 0 -109.5 -42.5t-60.5 -113.5h289v12q0 68 -29.5 106t-89.5 38zM193 44q81 0 127 45.5t65 141.5h-120q-173 0 -173 -104q0 -83 101 -83z" />
    <glyph glyph-name="ccedilla" unicode="&#xe7;" horiz-adv-x="515" 
d="M483 309h-68q1 6 1 16q0 52 -31 81t-85 29q-87 0 -138 -71.5t-51 -169.5q0 -67 30.5 -106t94.5 -39q58 0 98.5 33.5t51.5 87.5h71q-16 -82 -75 -130t-141 -50l-22 -44q91 -5 91 -75q0 -43 -33 -65t-87 -22q-48 0 -81 16l17 42q31 -12 63 -12q30 0 49 11.5t19 31.5
q0 38 -78 38h-31l41 82q-74 13 -110.5 67t-36.5 135q0 125 72.5 212.5t187.5 87.5q84 0 133 -43.5t49 -120.5q0 -14 -1 -22z" />
    <glyph glyph-name="egrave" unicode="&#xe8;" horiz-adv-x="537" 
d="M386 573h-60l-74 153h66zM492 231h-381q-2 -26 -2 -39q0 -146 137 -146q118 0 159 105h70q-24 -77 -85.5 -119t-144.5 -42q-103 0 -153 55t-50 148q0 128 71.5 215t189.5 87q90 0 142 -53.5t52 -149.5q0 -32 -5 -61zM301 438q-70 0 -116 -42.5t-65 -112.5h311v11
q0 144 -130 144z" />
    <glyph glyph-name="eacute" unicode="&#xe9;" horiz-adv-x="537" 
d="M460 726l-126 -153h-69l120 153h75zM492 231h-381q-2 -26 -2 -39q0 -146 137 -146q118 0 159 105h70q-24 -77 -85.5 -119t-144.5 -42q-103 0 -153 55t-50 148q0 128 71.5 215t189.5 87q90 0 142 -53.5t52 -149.5q0 -32 -5 -61zM301 438q-70 0 -116 -42.5t-65 -112.5h311
v11q0 144 -130 144z" />
    <glyph glyph-name="ecircumflex" unicode="&#xea;" horiz-adv-x="537" 
d="M352 692l-104 -120h-68l135 154h82l73 -154h-62zM492 231h-381q-2 -26 -2 -39q0 -146 137 -146q118 0 159 105h70q-24 -77 -85.5 -119t-144.5 -42q-103 0 -153 55t-50 148q0 128 71.5 215t189.5 87q90 0 142 -53.5t52 -149.5q0 -32 -5 -61zM301 438q-70 0 -116 -42.5
t-65 -112.5h311v11q0 144 -130 144z" />
    <glyph glyph-name="edieresis" unicode="&#xeb;" horiz-adv-x="537" 
d="M247 592q-21 0 -34.5 13.5t-13.5 33.5q0 21 13.5 34.5t34.5 13.5t35 -13.5t14 -34.5q0 -20 -14.5 -33.5t-34.5 -13.5zM431 592q-21 0 -34.5 13.5t-13.5 33.5q0 21 13.5 34.5t34.5 13.5q20 0 34 -13.5t14 -34.5q0 -20 -14 -33.5t-34 -13.5zM492 231h-381q-2 -26 -2 -39
q0 -146 137 -146q118 0 159 105h70q-24 -77 -85.5 -119t-144.5 -42q-103 0 -153 55t-50 148q0 128 71.5 215t189.5 87q90 0 142 -53.5t52 -149.5q0 -32 -5 -61zM301 438q-70 0 -116 -42.5t-65 -112.5h311v11q0 144 -130 144z" />
    <glyph glyph-name="igrave" unicode="&#xec;" horiz-adv-x="224" 
d="M224 573h-59l-57 153h65zM31 0l96 483h66l-97 -483h-65z" />
    <glyph glyph-name="iacute" unicode="&#xed;" horiz-adv-x="224" 
d="M134 573l103 153h74l-111 -153h-66zM31 0l96 483h66l-97 -483h-65z" />
    <glyph glyph-name="icircumflex" unicode="&#xee;" horiz-adv-x="224" 
d="M50 572l119 154h73l57 -154h-56l-43 116l-90 -116h-60zM31 0l96 483h66l-97 -483h-65z" />
    <glyph glyph-name="idieresis" unicode="&#xef;" horiz-adv-x="224" 
d="M123 594q-19 0 -30.5 11.5t-11.5 30.5q0 20 12 31.5t32 11.5q18 0 29.5 -11.5t11.5 -29.5q0 -19 -12 -31.5t-31 -12.5zM252 594q-19 0 -30.5 11.5t-11.5 30.5t12 31t32 12q18 0 29.5 -11.5t11.5 -29.5q0 -19 -12 -31.5t-31 -12.5zM31 0l96 483h66l-97 -483h-65z" />
    <glyph glyph-name="eth" unicode="&#xf0;" horiz-adv-x="539" 
d="M533 693l-10 -53l-97 -33q73 -156 73 -298q0 -141 -69 -230t-193 -89q-101 0 -148.5 55t-47.5 149q0 118 70 201t181 83q97 0 139 -69q-17 84 -63 178l-212 -73l10 52l180 62q-25 46 -44 76v2h70l33 -57zM239 48q87 0 136.5 65t49.5 161q0 149 -129 149q-86 0 -135.5 -67
t-49.5 -163q0 -145 128 -145z" />
    <glyph glyph-name="ntilde" unicode="&#xf1;" horiz-adv-x="550" 
d="M496 726h49q-20 -85 -45.5 -121t-75.5 -36q-49 0 -72 55q-2 3 -6 11.5t-5.5 11.5t-5.5 9.5t-6.5 9t-6.5 6t-9 5t-10 1.5q-23 0 -37.5 -24.5t-28.5 -81.5h-49q18 82 45.5 119.5t73.5 37.5q25 0 41.5 -12.5t32.5 -43.5q2 -4 6.5 -12.5t6 -11.5t5.5 -9t6.5 -8.5t6.5 -6
t9 -4.5t10 -1q23 0 36.5 24t28.5 82zM338 495q74 0 112 -39t38 -108q0 -42 -9 -85l-52 -263h-66l53 264q7 35 7 70q0 101 -108 101q-62 0 -103.5 -38.5t-55.5 -111.5l-58 -285h-65l96 483h66l-12 -59q61 71 157 71z" />
    <glyph glyph-name="ograve" unicode="&#xf2;" horiz-adv-x="538" 
d="M396 573h-60l-74 153h66zM236 -11q-99 0 -146.5 57.5t-47.5 149.5q0 126 72 212.5t187 86.5q98 0 146 -59.5t48 -152.5q0 -125 -70 -209.5t-189 -84.5zM239 48q90 0 139 70t49 167q0 150 -129 150q-88 0 -138 -72.5t-50 -166.5q0 -148 129 -148z" />
    <glyph glyph-name="oacute" unicode="&#xf3;" horiz-adv-x="538" 
d="M274 573l120 153h75l-126 -153h-69zM236 -11q-99 0 -146.5 57.5t-47.5 149.5q0 126 72 212.5t187 86.5q98 0 146 -59.5t48 -152.5q0 -125 -70 -209.5t-189 -84.5zM239 48q90 0 139 70t49 167q0 150 -129 150q-88 0 -138 -72.5t-50 -166.5q0 -148 129 -148z" />
    <glyph glyph-name="ocircumflex" unicode="&#xf4;" horiz-adv-x="538" 
d="M189 572l135 154h82l73 -154h-62l-56 120l-104 -120h-68zM236 -11q-99 0 -146.5 57.5t-47.5 149.5q0 126 72 212.5t187 86.5q98 0 146 -59.5t48 -152.5q0 -125 -70 -209.5t-189 -84.5zM239 48q90 0 139 70t49 167q0 150 -129 150q-88 0 -138 -72.5t-50 -166.5
q0 -148 129 -148z" />
    <glyph glyph-name="otilde" unicode="&#xf5;" horiz-adv-x="538" 
d="M408 569q-49 0 -72 55q-2 3 -6 11.5t-5.5 11.5t-5.5 9.5t-6.5 9t-6.5 6t-9 5t-10 1.5q-23 0 -37.5 -24.5t-28.5 -81.5h-49q18 82 45.5 119.5t73.5 37.5q25 0 41.5 -12.5t32.5 -43.5q2 -4 6.5 -12.5t6 -11.5t5.5 -9t6.5 -8.5t6.5 -6t9 -4.5t10 -1q23 0 36.5 24t28.5 82h49
q-20 -85 -45.5 -121t-75.5 -36zM236 -11q-99 0 -146.5 57.5t-47.5 149.5q0 126 72 212.5t187 86.5q98 0 146 -59.5t48 -152.5q0 -125 -70 -209.5t-189 -84.5zM239 48q90 0 139 70t49 167q0 150 -129 150q-88 0 -138 -72.5t-50 -166.5q0 -148 129 -148z" />
    <glyph glyph-name="odieresis" unicode="&#xf6;" horiz-adv-x="538" 
d="M257 592q-21 0 -34.5 13.5t-13.5 33.5q0 21 13.5 34.5t34.5 13.5t35 -13.5t14 -34.5q0 -20 -14.5 -33.5t-34.5 -13.5zM441 592q-21 0 -34.5 13.5t-13.5 33.5q0 21 13.5 34.5t34.5 13.5q20 0 34 -13.5t14 -34.5q0 -20 -14 -33.5t-34 -13.5zM236 -11q-99 0 -146.5 57.5
t-47.5 149.5q0 126 72 212.5t187 86.5q98 0 146 -59.5t48 -152.5q0 -125 -70 -209.5t-189 -84.5zM239 48q90 0 139 70t49 167q0 150 -129 150q-88 0 -138 -72.5t-50 -166.5q0 -148 129 -148z" />
    <glyph glyph-name="divide" unicode="&#xf7;" horiz-adv-x="572" 
d="M335 443q-20 0 -32 11.5t-12 31.5t12 32t32 12q18 0 30.5 -12t12.5 -32q0 -19 -12.5 -31t-30.5 -12zM55 253l12 57h465l-11 -57h-466zM253 33q-20 0 -32 12t-12 31q0 20 12 32t32 12q18 0 30.5 -12t12.5 -32q0 -18 -12.5 -30.5t-30.5 -12.5z" />
    <glyph glyph-name="oslash" unicode="&#xf8;" horiz-adv-x="538" 
d="M542 483l-76 -74q29 -51 29 -126q0 -125 -70 -209.5t-189 -84.5q-91 0 -141 52l-43 -41h-60l78 75q-28 50 -28 121q0 126 72 212.5t187 86.5q89 0 139 -52l41 40h61zM298 435q-88 0 -138 -72.5t-50 -166.5q0 -44 11 -71l273 273q-34 37 -96 37zM239 48q90 0 139 70
t49 167q0 44 -12 77l-274 -275q33 -39 98 -39z" />
    <glyph glyph-name="ugrave" unicode="&#xf9;" horiz-adv-x="550" 
d="M390 573h-60l-74 153h66zM454 483h65l-96 -483h-66l12 59q-61 -71 -157 -71q-74 0 -112 39t-38 108q0 41 9 85l52 263h66l-53 -264q-7 -35 -7 -70q0 -101 108 -101q61 0 103 38.5t56 111.5z" />
    <glyph glyph-name="uacute" unicode="&#xfa;" horiz-adv-x="550" 
d="M464 726l-126 -153h-69l120 153h75zM454 483h65l-96 -483h-66l12 59q-61 -71 -157 -71q-74 0 -112 39t-38 108q0 41 9 85l52 263h66l-53 -264q-7 -35 -7 -70q0 -101 108 -101q61 0 103 38.5t56 111.5z" />
    <glyph glyph-name="ucircumflex" unicode="&#xfb;" horiz-adv-x="550" 
d="M356 692l-104 -120h-68l135 154h82l73 -154h-62zM454 483h65l-96 -483h-66l12 59q-61 -71 -157 -71q-74 0 -112 39t-38 108q0 41 9 85l52 263h66l-53 -264q-7 -35 -7 -70q0 -101 108 -101q61 0 103 38.5t56 111.5z" />
    <glyph glyph-name="udieresis" unicode="&#xfc;" horiz-adv-x="550" 
d="M251 592q-21 0 -34.5 13.5t-13.5 33.5q0 21 13.5 34.5t34.5 13.5t35 -13.5t14 -34.5q0 -20 -14.5 -33.5t-34.5 -13.5zM435 592q-21 0 -34.5 13.5t-13.5 33.5q0 21 13.5 34.5t34.5 13.5q20 0 34 -13.5t14 -34.5q0 -20 -14 -33.5t-34 -13.5zM454 483h65l-96 -483h-66l12 59
q-61 -71 -157 -71q-74 0 -112 39t-38 108q0 41 9 85l52 263h66l-53 -264q-7 -35 -7 -70q0 -101 108 -101q61 0 103 38.5t56 111.5z" />
    <glyph glyph-name="yacute" unicode="&#xfd;" horiz-adv-x="496" 
d="M439 726l-126 -153h-69l120 153h75zM450 483h76l-426 -684h-73l126 203l-86 481h67l69 -407z" />
    <glyph glyph-name="thorn" unicode="&#xfe;" horiz-adv-x="563" 
d="M346 495q91 0 134 -56.5t43 -148.5q0 -123 -70.5 -211.5t-180.5 -88.5q-126 0 -157 103l-59 -294h-65l181 907h65l-58 -290q67 79 167 79zM263 49q87 0 139 71t52 168q0 67 -30 107t-94 40q-68 0 -116.5 -44t-63.5 -120q-12 -63 -12 -88q0 -64 32.5 -99t92.5 -35z" />
    <glyph glyph-name="ydieresis" unicode="&#xff;" horiz-adv-x="496" 
d="M226 592q-21 0 -34.5 13.5t-13.5 33.5q0 21 13.5 34.5t34.5 13.5t35 -13.5t14 -34.5q0 -20 -14.5 -33.5t-34.5 -13.5zM410 592q-21 0 -34.5 13.5t-13.5 33.5q0 21 13.5 34.5t34.5 13.5q20 0 34 -13.5t14 -34.5q0 -20 -14 -33.5t-34 -13.5zM450 483h76l-426 -684h-73
l126 203l-86 481h67l69 -407z" />
    <glyph glyph-name="Amacron" unicode="&#x100;" horiz-adv-x="610" 
d="M283 866h287l-10 -51h-287zM344 706h107l102 -706h-70l-26 189h-317l-102 -189h-77zM172 248h276l-56 405h-2z" />
    <glyph glyph-name="amacron" unicode="&#x101;" horiz-adv-x="528" 
d="M202 663h276l-9 -50h-277zM288 495q94 0 135.5 -42t41.5 -120q0 -31 -10 -80l-51 -253h-65l14 71q-65 -82 -181 -82q-74 0 -112 34t-38 94q0 164 238 164h135q6 32 6 55q0 51 -26.5 77t-87.5 26q-118 0 -139 -105h-68q13 75 66.5 118t141.5 43zM192 44q80 0 126.5 45
t65.5 140h-119q-173 0 -173 -102q0 -83 100 -83z" />
    <glyph glyph-name="Abreve" unicode="&#x102;" horiz-adv-x="610" 
d="M408 774q-118 0 -118 100q0 9 2 29h50q-1 -6 -1 -18q0 -66 74 -66q80 0 106 84h54q-32 -129 -167 -129zM344 706h107l102 -706h-70l-26 189h-317l-102 -189h-77zM172 248h276l-56 405h-2z" />
    <glyph glyph-name="abreve" unicode="&#x103;" horiz-adv-x="528" 
d="M328 570q-64 0 -93.5 30t-29.5 90q0 16 3 36h53q-3 -20 -3 -38q0 -37 17 -55t55 -18q47 0 73 26.5t41 84.5h55q-19 -79 -59 -117.5t-112 -38.5zM288 495q94 0 135.5 -42t41.5 -120q0 -31 -10 -80l-51 -253h-65l14 71q-65 -82 -181 -82q-74 0 -112 34t-38 94
q0 164 238 164h135q6 32 6 55q0 51 -26.5 77t-87.5 26q-118 0 -139 -105h-68q13 75 66.5 118t141.5 43zM192 44q80 0 126.5 45t65.5 140h-119q-173 0 -173 -102q0 -83 100 -83z" />
    <glyph glyph-name="Aogonek" unicode="&#x104;" horiz-adv-x="610" 
d="M552 0q-35 -24 -54.5 -39.5t-37 -39t-17.5 -45.5q0 -40 48 -40q19 0 42 7l-10 -49q-25 -5 -47 -5q-43 0 -68 20.5t-25 56.5q0 39 28 70t78 64h-6l-26 189h-317l-102 -189h-77l383 706h107l102 -706h-1zM172 248h276l-56 405h-2z" />
    <glyph glyph-name="aogonek" unicode="&#x105;" horiz-adv-x="528" 
d="M288 495q94 0 135.5 -42t41.5 -120q0 -31 -10 -80l-51 -253q-35 -24 -54.5 -39.5t-37 -39t-17.5 -45.5q0 -40 48 -40q19 0 42 7l-10 -49q-25 -5 -47 -5q-43 0 -68 20.5t-25 56.5q0 39 28 70t78 64h-2l14 71q-65 -82 -181 -82q-74 0 -112 34t-38 94q0 164 238 164h135
q6 32 6 55q0 51 -26.5 77t-87.5 26q-118 0 -139 -105h-68q13 75 66.5 118t141.5 43zM192 44q80 0 126.5 45t65.5 140h-119q-173 0 -173 -102q0 -83 100 -83z" />
    <glyph glyph-name="Cacute" unicode="&#x106;" horiz-adv-x="693" 
d="M396 779l140 124h86l-146 -124h-80zM329 -15q-133 0 -195.5 78t-62.5 214q0 118 42 218t127 163t197 63q116 0 182.5 -66t66.5 -178q0 -12 -1 -21h-69q1 8 1 20q0 85 -49.5 134t-135.5 49q-90 0 -157.5 -56t-99.5 -141.5t-32 -184.5q0 -230 191 -230q92 0 154 51.5
t86 139.5h71q-25 -120 -110.5 -186.5t-205.5 -66.5z" />
    <glyph glyph-name="cacute" unicode="&#x107;" horiz-adv-x="515" 
d="M268 573l120 153h75l-126 -153h-69zM233 -10q-97 0 -144 56t-47 149q0 125 72.5 212.5t187.5 87.5q84 0 133 -43.5t49 -120.5q0 -14 -1 -22h-68q1 6 1 16q0 52 -31 81t-85 29q-87 0 -138 -71.5t-51 -169.5q0 -67 30.5 -106t94.5 -39q58 0 98.5 33.5t51.5 87.5h71
q-17 -84 -78 -132t-146 -48z" />
    <glyph glyph-name="Ccircumflex" unicode="&#x108;" horiz-adv-x="693" 
d="M304 779l148 124h84l97 -124h-68l-73 89l-107 -89h-81zM329 -15q-133 0 -195.5 78t-62.5 214q0 118 42 218t127 163t197 63q116 0 182.5 -66t66.5 -178q0 -12 -1 -21h-69q1 8 1 20q0 85 -49.5 134t-135.5 49q-90 0 -157.5 -56t-99.5 -141.5t-32 -184.5q0 -230 191 -230
q92 0 154 51.5t86 139.5h71q-25 -120 -110.5 -186.5t-205.5 -66.5z" />
    <glyph glyph-name="ccircumflex" unicode="&#x109;" horiz-adv-x="515" 
d="M183 572l135 154h82l73 -154h-62l-56 120l-104 -120h-68zM233 -10q-97 0 -144 56t-47 149q0 125 72.5 212.5t187.5 87.5q84 0 133 -43.5t49 -120.5q0 -14 -1 -22h-68q1 6 1 16q0 52 -31 81t-85 29q-87 0 -138 -71.5t-51 -169.5q0 -67 30.5 -106t94.5 -39q58 0 98.5 33.5
t51.5 87.5h71q-17 -84 -78 -132t-146 -48z" />
    <glyph glyph-name="Cdotaccent" unicode="&#x10a;" horiz-adv-x="693" 
d="M482 798q-21 0 -34 12t-13 32t13 32t34 12q19 0 32 -12.5t13 -31.5t-13 -31.5t-32 -12.5zM329 -15q-133 0 -195.5 78t-62.5 214q0 118 42 218t127 163t197 63q116 0 182.5 -66t66.5 -178q0 -12 -1 -21h-69q1 8 1 20q0 85 -49.5 134t-135.5 49q-90 0 -157.5 -56
t-99.5 -141.5t-32 -184.5q0 -230 191 -230q92 0 154 51.5t86 139.5h71q-25 -120 -110.5 -186.5t-205.5 -66.5z" />
    <glyph glyph-name="cdotaccent" unicode="&#x10b;" horiz-adv-x="515" 
d="M341 602q-22 0 -35.5 13.5t-13.5 33.5q0 22 13.5 36t35.5 14q21 0 35 -14.5t14 -35.5q0 -20 -14.5 -33.5t-34.5 -13.5zM233 -10q-97 0 -144 56t-47 149q0 125 72.5 212.5t187.5 87.5q84 0 133 -43.5t49 -120.5q0 -14 -1 -22h-68q1 6 1 16q0 52 -31 81t-85 29
q-87 0 -138 -71.5t-51 -169.5q0 -67 30.5 -106t94.5 -39q58 0 98.5 33.5t51.5 87.5h71q-17 -84 -78 -132t-146 -48z" />
    <glyph glyph-name="Ccaron" unicode="&#x10c;" horiz-adv-x="693" 
d="M658 903l-147 -124h-84l-98 124h69l72 -89l107 89h81zM329 -15q-133 0 -195.5 78t-62.5 214q0 118 42 218t127 163t197 63q116 0 182.5 -66t66.5 -178q0 -12 -1 -21h-69q1 8 1 20q0 85 -49.5 134t-135.5 49q-90 0 -157.5 -56t-99.5 -141.5t-32 -184.5q0 -230 191 -230
q92 0 154 51.5t86 139.5h71q-25 -120 -110.5 -186.5t-205.5 -66.5z" />
    <glyph glyph-name="ccaron" unicode="&#x10d;" horiz-adv-x="515" 
d="M507 725l-136 -154h-82l-73 154h62l56 -119l104 119h69zM233 -10q-97 0 -144 56t-47 149q0 125 72.5 212.5t187.5 87.5q84 0 133 -43.5t49 -120.5q0 -14 -1 -22h-68q1 6 1 16q0 52 -31 81t-85 29q-87 0 -138 -71.5t-51 -169.5q0 -67 30.5 -106t94.5 -39q58 0 98.5 33.5
t51.5 87.5h71q-17 -84 -78 -132t-146 -48z" />
    <glyph glyph-name="Dcaron" unicode="&#x10e;" horiz-adv-x="681" 
d="M619 903l-147 -124h-84l-98 124h69l72 -89l107 89h81zM46 0l141 706h172q294 0 294 -287q0 -185 -102.5 -302t-279.5 -117h-225zM129 61h135q153 0 234.5 99.5t81.5 260.5q0 107 -52 165.5t-172 58.5h-110z" />
    <glyph glyph-name="dcaron" unicode="&#x10f;" horiz-adv-x="603" 
d="M448 389l64 317h65l-141 -706h-65l14 69q-66 -80 -167 -80q-91 0 -134 56t-43 148q0 123 70 212t181 89q61 0 101.5 -26.5t54.5 -78.5zM655 706h61l-70 -166h-53zM233 48q68 0 116.5 44t63.5 120q12 64 12 89q0 64 -32.5 99t-92.5 35q-86 0 -138.5 -71.5t-52.5 -168.5
q0 -66 30 -106.5t94 -40.5z" />
    <glyph glyph-name="Dcroat" unicode="&#x110;" horiz-adv-x="681" 
d="M359 706q294 0 294 -287q0 -185 -102.5 -302t-279.5 -117h-225l67 333h-59l10 54h59l64 319h172zM264 61q153 0 234.5 99.5t81.5 260.5q0 107 -52 165.5t-172 58.5h-110l-52 -258h178l-11 -54h-178l-54 -272h135z" />
    <glyph glyph-name="dcroat" unicode="&#x111;" horiz-adv-x="563" 
d="M628 629l-10 -48h-66l-116 -581h-65l14 69q-66 -80 -167 -80q-91 0 -134 56t-43 148q0 123 70 212t181 89q61 0 101.5 -26.5t54.5 -78.5l39 192h-166l10 48h166l15 77h65l-15 -77h66zM233 48q68 0 116.5 44t63.5 120q12 64 12 89q0 64 -32.5 99t-92.5 35
q-86 0 -138.5 -71.5t-52.5 -168.5q0 -66 30 -106.5t94 -40.5z" />
    <glyph glyph-name="Emacron" unicode="&#x112;" horiz-adv-x="536" 
d="M254 815l10 51h287l-10 -51h-287zM46 0l141 706h392l-12 -61h-321l-51 -253h318l-13 -63h-318l-53 -268h320l-11 -61h-392z" />
    <glyph glyph-name="emacron" unicode="&#x113;" horiz-adv-x="537" 
d="M481 663l-9 -50h-277l10 50h276zM492 231h-381q-2 -26 -2 -39q0 -146 137 -146q118 0 159 105h70q-24 -77 -85.5 -119t-144.5 -42q-103 0 -153 55t-50 148q0 128 71.5 215t189.5 87q90 0 142 -53.5t52 -149.5q0 -32 -5 -61zM301 438q-70 0 -116 -42.5t-65 -112.5h311v11
q0 144 -130 144z" />
    <glyph glyph-name="Ebreve" unicode="&#x114;" horiz-adv-x="536" 
d="M389 774q-118 0 -118 100q0 9 2 29h50q-1 -6 -1 -18q0 -66 74 -66q80 0 106 84h54q-32 -129 -167 -129zM46 0l141 706h392l-12 -61h-321l-51 -253h318l-13 -63h-318l-53 -268h320l-11 -61h-392z" />
    <glyph glyph-name="ebreve" unicode="&#x115;" horiz-adv-x="537" 
d="M330 570q-64 0 -93.5 30t-29.5 90q0 16 3 36h53q-3 -20 -3 -38q0 -37 17 -55t55 -18q47 0 73 26.5t41 84.5h55q-19 -79 -59 -117.5t-112 -38.5zM303 495q90 0 142 -53.5t52 -149.5q0 -32 -5 -61h-381q-2 -26 -2 -39q0 -146 137 -146q118 0 159 105h70q-24 -77 -85.5 -119
t-144.5 -42q-103 0 -153 55t-50 148q0 128 71.5 215t189.5 87zM301 438q-70 0 -116 -42.5t-65 -112.5h311v11q0 144 -130 144z" />
    <glyph glyph-name="Edotaccent" unicode="&#x116;" horiz-adv-x="536" 
d="M404 798q-21 0 -34 12t-13 32t13 32t34 12q19 0 32 -12.5t13 -31.5t-13 -31.5t-32 -12.5zM46 0l141 706h392l-12 -61h-321l-51 -253h318l-13 -63h-318l-53 -268h320l-11 -61h-392z" />
    <glyph glyph-name="edotaccent" unicode="&#x117;" horiz-adv-x="537" 
d="M338 602q-22 0 -35.5 13.5t-13.5 33.5q0 22 13.5 36t35.5 14q20 0 34.5 -14.5t14.5 -35.5q0 -20 -14.5 -33.5t-34.5 -13.5zM492 231h-381q-2 -26 -2 -39q0 -146 137 -146q118 0 159 105h70q-24 -77 -85.5 -119t-144.5 -42q-103 0 -153 55t-50 148q0 128 71.5 215
t189.5 87q90 0 142 -53.5t52 -149.5q0 -32 -5 -61zM301 438q-70 0 -116 -42.5t-65 -112.5h311v11q0 144 -130 144z" />
    <glyph glyph-name="Eogonek" unicode="&#x118;" horiz-adv-x="536" 
d="M567 645h-321l-51 -253h318l-13 -63h-318l-53 -268h320l-11 -61h-1q-35 -24 -54.5 -39.5t-37 -39t-17.5 -45.5q0 -40 48 -40q19 0 42 7l-10 -49q-25 -5 -47 -5q-43 0 -68 20.5t-25 56.5q0 39 28 70t78 64h-328l141 706h392z" />
    <glyph glyph-name="eogonek" unicode="&#x119;" horiz-adv-x="537" 
d="M492 231h-381q-2 -26 -2 -39q0 -146 137 -146q118 0 159 105h70q-28 -88 -118 -150q-35 -24 -54.5 -39.5t-37.5 -39.5t-18 -46q0 -40 49 -40q20 0 41 7l-9 -49q-25 -5 -48 -5q-42 0 -67 20.5t-25 56.5q0 63 94 126q-24 -2 -37 -2q-102 0 -152.5 55t-50.5 148
q0 128 71 215t190 87q89 0 141.5 -53.5t52.5 -149.5q0 -32 -5 -61zM301 438q-70 0 -116 -42.5t-65 -112.5h311v11q0 68 -32 106t-98 38z" />
    <glyph glyph-name="Ecaron" unicode="&#x11a;" horiz-adv-x="536" 
d="M580 903l-147 -124h-84l-98 124h69l72 -89l107 89h81zM46 0l141 706h392l-12 -61h-321l-51 -253h318l-13 -63h-318l-53 -268h320l-11 -61h-392z" />
    <glyph glyph-name="ecaron" unicode="&#x11b;" horiz-adv-x="537" 
d="M368 571h-82l-73 154h62l56 -119l104 119h69zM303 495q90 0 142 -53.5t52 -149.5q0 -32 -5 -61h-381q-2 -26 -2 -39q0 -146 137 -146q118 0 159 105h70q-24 -77 -85.5 -119t-144.5 -42q-103 0 -153 55t-50 148q0 128 71.5 215t189.5 87zM301 438q-70 0 -116 -42.5
t-65 -112.5h311v11q0 144 -130 144z" />
    <glyph glyph-name="Gcircumflex" unicode="&#x11c;" horiz-adv-x="701" 
d="M485 868l-107 -89h-81l148 124h84l97 -124h-68zM438 659q-95 0 -163.5 -56t-100.5 -145t-32 -199q0 -96 48 -154t140 -58q210 0 259 242l3 13h-196l12 62h266l-16 -77q-27 -136 -108 -219t-223 -83q-127 0 -192 77.5t-65 205.5q-1 125 42 227t128.5 164t200.5 62
q123 0 184.5 -64t60.5 -185h-68q-2 187 -180 187z" />
    <glyph glyph-name="gcircumflex" unicode="&#x11d;" horiz-adv-x="563" 
d="M357 692l-104 -120h-68l135 154h82l73 -154h-62zM468 483h64l-99 -496q-17 -93 -75.5 -146t-162.5 -53q-98 0 -148.5 42t-38.5 123h66q-8 -54 25.5 -82t97.5 -28q143 0 172 156l13 67q-64 -75 -164 -75q-91 0 -134 56t-43 146q0 124 70 212.5t181 88.5q127 0 157 -106z
M234 51q68 0 116.5 43.5t63.5 118.5q11 59 11 88q0 64 -32.5 99t-92.5 35q-86 0 -138 -70t-52 -167q0 -67 30 -107t94 -40z" />
    <glyph glyph-name="Gbreve" unicode="&#x11e;" horiz-adv-x="701" 
d="M460 774q-118 0 -118 100q0 9 2 29h50q-1 -6 -1 -18q0 -66 74 -66q80 0 106 84h54q-32 -129 -167 -129zM438 659q-95 0 -163.5 -56t-100.5 -145t-32 -199q0 -96 48 -154t140 -58q210 0 259 242l3 13h-196l12 62h266l-16 -77q-27 -136 -108 -219t-223 -83
q-127 0 -192 77.5t-65 205.5q-1 125 42 227t128.5 164t200.5 62q123 0 184.5 -64t60.5 -185h-68q-2 187 -180 187z" />
    <glyph glyph-name="gbreve" unicode="&#x11f;" horiz-adv-x="563" 
d="M335 570q-64 0 -93.5 30t-29.5 90q0 16 3 36h53q-3 -20 -3 -38q0 -37 17 -55t55 -18q47 0 73 26.5t41 84.5h55q-19 -79 -59 -117.5t-112 -38.5zM468 483h64l-99 -496q-17 -93 -75.5 -146t-162.5 -53q-98 0 -148.5 42t-38.5 123h66q-8 -54 25.5 -82t97.5 -28
q143 0 172 156l13 67q-64 -75 -164 -75q-91 0 -134 56t-43 146q0 124 70 212.5t181 88.5q127 0 157 -106zM234 51q68 0 116.5 43.5t63.5 118.5q11 59 11 88q0 64 -32.5 99t-92.5 35q-86 0 -138 -70t-52 -167q0 -67 30 -107t94 -40z" />
    <glyph glyph-name="Gdotaccent" unicode="&#x120;" horiz-adv-x="701" 
d="M475 798q-21 0 -34 12t-13 32t13 32t34 12q19 0 32 -12.5t13 -31.5t-13 -31.5t-32 -12.5zM438 659q-95 0 -163.5 -56t-100.5 -145t-32 -199q0 -96 48 -154t140 -58q210 0 259 242l3 13h-196l12 62h266l-16 -77q-27 -136 -108 -219t-223 -83q-127 0 -192 77.5t-65 205.5
q-1 125 42 227t128.5 164t200.5 62q123 0 184.5 -64t60.5 -185h-68q-2 187 -180 187z" />
    <glyph glyph-name="gdotaccent" unicode="&#x121;" horiz-adv-x="563" 
d="M343 602q-22 0 -35.5 13.5t-13.5 33.5q0 22 13.5 36t35.5 14q21 0 35 -14.5t14 -35.5q0 -20 -14.5 -33.5t-34.5 -13.5zM468 483h64l-99 -496q-17 -93 -75.5 -146t-162.5 -53q-98 0 -148.5 42t-38.5 123h66q-8 -54 25.5 -82t97.5 -28q143 0 172 156l13 67
q-64 -75 -164 -75q-91 0 -134 56t-43 146q0 124 70 212.5t181 88.5q127 0 157 -106zM234 51q68 0 116.5 43.5t63.5 118.5q11 59 11 88q0 64 -32.5 99t-92.5 35q-86 0 -138 -70t-52 -167q0 -67 30 -107t94 -40z" />
    <glyph glyph-name="uni0122" unicode="&#x122;" horiz-adv-x="701" 
d="M438 659q-95 0 -163.5 -56t-100.5 -145t-32 -199q0 -96 48 -154t140 -58q210 0 259 242l3 13h-196l12 62h266l-16 -77q-27 -136 -108 -219t-223 -83q-127 0 -192 77.5t-65 205.5q-1 125 42 227t128.5 164t200.5 62q123 0 184.5 -64t60.5 -185h-68q-2 187 -180 187z
M209 -201l60 147h68l-67 -147h-61z" />
    <glyph glyph-name="uni0123" unicode="&#x123;" horiz-adv-x="563" 
d="M408 720l-61 -147h-67l66 147h62zM468 483h64l-99 -496q-17 -93 -75.5 -146t-162.5 -53q-98 0 -148.5 42t-38.5 123h66q-8 -54 25.5 -82t97.5 -28q143 0 172 156l13 67q-64 -75 -164 -75q-91 0 -134 56t-43 146q0 124 70 212.5t181 88.5q127 0 157 -106zM234 51
q68 0 116.5 43.5t63.5 118.5q11 59 11 88q0 64 -32.5 99t-92.5 35q-86 0 -138 -70t-52 -167q0 -67 30 -107t94 -40z" />
    <glyph glyph-name="Hcircumflex" unicode="&#x124;" horiz-adv-x="674" 
d="M271 779l148 124h84l97 -124h-68l-73 89l-107 -89h-81zM46 0l141 706h71l-63 -314h344l62 314h71l-141 -706h-71l67 330h-344l-66 -330h-71z" />
    <glyph glyph-name="hcircumflex" unicode="&#x125;" horiz-adv-x="550" 
d="M408 868l-107 -89h-81l148 124h84l97 -124h-68zM337 495q151 0 151 -156q0 -35 -9 -76l-52 -263h-66l53 266q8 38 8 66q0 103 -105 103q-134 0 -163 -150l-58 -285h-65l141 706h65l-56 -282q59 71 156 71z" />
    <glyph glyph-name="Hbar" unicode="&#x126;" horiz-adv-x="674" 
d="M601 706h71l-141 -706h-71l67 330h-344l-66 -330h-71l141 706h71l-25 -125h343zM195 392h344l27 139h-343z" />
    <glyph glyph-name="hbar" unicode="&#x127;" horiz-adv-x="550" 
d="M337 495q151 0 151 -156q0 -35 -9 -76l-52 -263h-66l53 266q8 38 8 66q0 103 -105 103q-134 0 -163 -150l-58 -285h-65l116 581h-60l10 48h60l15 77h65l-15 -77h172l-10 -48h-172l-31 -157q59 71 156 71z" />
    <glyph glyph-name="Itilde" unicode="&#x128;" horiz-adv-x="260" 
d="M299 776q-42 0 -63 43q-7 14 -11 20.5t-12 12t-18 5.5q-21 0 -33.5 -19t-22.5 -59h-45q15 65 40 95.5t66 30.5t62 -43q7 -15 11.5 -21.5t11.5 -12t17 -5.5q21 0 33 19.5t23 60.5h46q-16 -67 -40.5 -97t-64.5 -30zM46 0l141 706h71l-141 -706h-71z" />
    <glyph glyph-name="itilde" unicode="&#x129;" horiz-adv-x="224" 
d="M235 569q-26 0 -39 14t-18 44q-9 42 -17 49q-6 4 -13 4q-16 0 -27 -25t-23 -83h-46q19 85 40.5 121t59.5 36q28 0 39.5 -15.5t17.5 -47.5q4 -15 5.5 -20t5 -13.5t8 -11.5t11.5 -3q17 0 28 25.5t22 82.5h47q-19 -86 -40 -121.5t-61 -35.5zM31 0l96 483h66l-97 -483h-65z
" />
    <glyph glyph-name="Imacron" unicode="&#x12a;" horiz-adv-x="260" 
d="M136 815l10 51h217l-10 -51h-217zM46 0l141 706h71l-141 -706h-71z" />
    <glyph glyph-name="imacron" unicode="&#x12b;" horiz-adv-x="224" 
d="M85 613l10 50h201l-10 -50h-201zM31 0l96 483h66l-97 -483h-65z" />
    <glyph glyph-name="Ibreve" unicode="&#x12c;" horiz-adv-x="260" 
d="M241 774q-100 0 -100 90q0 19 4 39h51q-3 -19 -3 -33q0 -27 12 -39t39 -12q35 0 53 19.5t27 64.5h54q-13 -65 -45.5 -97t-91.5 -32zM46 0l141 706h71l-141 -706h-71z" />
    <glyph glyph-name="ibreve" unicode="&#x12d;" horiz-adv-x="224" 
d="M180 569q-95 0 -95 100q0 25 6 57h49q-7 -38 -7 -56q0 -56 48 -56q36 0 56.5 26t32.5 86h51q-16 -80 -49.5 -118.5t-91.5 -38.5zM31 0l96 483h66l-97 -483h-65z" />
    <glyph glyph-name="Iogonek" unicode="&#x12e;" horiz-adv-x="260" 
d="M258 706l-141 -706q-87 -89 -87 -131q0 -33 37 -33q18 0 37 8l-11 -48q-21 -7 -45 -7q-36 0 -56.5 17.5t-20.5 49.5q0 64 90 144h-15l141 706h71z" />
    <glyph glyph-name="iogonek" unicode="&#x12f;" horiz-adv-x="224" 
d="M194 697q20 0 34.5 -14t14.5 -35t-14 -34.5t-35 -13.5q-22 0 -35.5 13.5t-13.5 34.5t13.5 35t35.5 14zM31 0l96 483h66l-97 -483q-87 -89 -87 -131q0 -33 37 -33q18 0 37 8l-11 -48q-21 -7 -45 -7q-36 0 -56.5 17.5t-20.5 49.5q0 64 90 144h-9z" />
    <glyph glyph-name="Idotaccent" unicode="&#x130;" horiz-adv-x="260" 
d="M250 798q-21 0 -34 12t-13 32t13 32t34 12q19 0 32 -12.5t13 -31.5t-13 -31.5t-32 -12.5zM46 0l141 706h71l-141 -706h-71z" />
    <glyph glyph-name="dotlessi" unicode="&#x131;" horiz-adv-x="224" 
d="M31 0l96 483h66l-97 -483h-65z" />
    <glyph glyph-name="IJ" unicode="&#x132;" horiz-adv-x="607" 
d="M46 0l141 706h71l-141 -706h-71zM298 -3q-38 0 -67 5l13 65q21 -4 51 -4q70 0 107 34t53 114l99 495h70l-102 -516q-20 -100 -73.5 -146.5t-150.5 -46.5z" />
    <glyph glyph-name="ij" unicode="&#x133;" horiz-adv-x="447" 
d="M195 600q-22 0 -36 13.5t-14 34.5t14 35t36 14q20 0 34.5 -14t14.5 -35t-14 -34.5t-35 -13.5zM418 600q-22 0 -35.5 13.5t-13.5 34.5t13.5 35t35.5 14q20 0 34.5 -14t14.5 -35t-14 -34.5t-35 -13.5zM31 0l96 483h66l-97 -483h-65zM160 -204q-25 0 -46 4l12 58
q11 -2 28 -2q39 0 59.5 18t28.5 61l109 548h66l-113 -568q-13 -63 -47 -91t-97 -28z" />
    <glyph glyph-name="Jcircumflex" unicode="&#x134;" horiz-adv-x="347" 
d="M215 779l108 124h77l60 -124h-59l-42 88l-77 -88h-67zM38 -3q-38 0 -67 5l13 65q21 -4 51 -4q70 0 107 34t53 114l99 495h70l-102 -516q-20 -100 -73.5 -146.5t-150.5 -46.5z" />
    <glyph glyph-name="jcircumflex" unicode="&#x135;" horiz-adv-x="224" 
d="M50 572l119 154h73l57 -154h-56l-43 116l-90 -116h-60zM-64 -204q-25 0 -46 4l12 58q11 -2 28 -2q39 0 59.5 18t28.5 61l109 548h66l-113 -568q-13 -63 -47 -91t-97 -28z" />
    <glyph glyph-name="uni0136" unicode="&#x136;" horiz-adv-x="572" 
d="M610 706l-352 -330l252 -376h-82l-239 359l-72 -359h-71l141 706h71l-60 -299l321 299h91zM175 -201l60 147h68l-67 -147h-61z" />
    <glyph glyph-name="uni0137" unicode="&#x137;" horiz-adv-x="449" 
d="M473 483l-263 -222l193 -261h-78l-180 245l-49 -245h-65l141 706h65l-84 -419l228 196h92zM112 -201l60 147h68l-67 -147h-61z" />
    <glyph glyph-name="kgreenlandic" unicode="&#x138;" horiz-adv-x="449" 
d="M475 483l-264 -223l192 -260h-78l-180 244l-49 -244h-65l96 483h66l-39 -196l228 196h93z" />
    <glyph glyph-name="Lacute" unicode="&#x139;" horiz-adv-x="470" 
d="M198 779l140 124h86l-146 -124h-80zM46 0l141 706h71l-129 -643h286l-12 -63h-357z" />
    <glyph glyph-name="lacute" unicode="&#x13a;" horiz-adv-x="224" 
d="M146 779l140 124h86l-146 -124h-80zM31 0l141 706h65l-141 -706h-65z" />
    <glyph glyph-name="uni013B" unicode="&#x13b;" horiz-adv-x="470" 
d="M46 0l141 706h71l-129 -643h286l-12 -63h-357zM145 -201l60 147h68l-67 -147h-61z" />
    <glyph glyph-name="uni013C" unicode="&#x13c;" horiz-adv-x="224" 
d="M31 0l141 706h65l-141 -706h-65zM-40 -201l60 147h68l-67 -147h-61z" />
    <glyph glyph-name="Lcaron" unicode="&#x13d;" horiz-adv-x="470" 
d="M46 0l141 706h71l-129 -643h286l-12 -63h-357zM320 540l62 166h61l-70 -166h-53z" />
    <glyph glyph-name="lcaron" unicode="&#x13e;" horiz-adv-x="249" 
d="M31 0l141 706h65l-141 -706h-65zM247 540l62 166h61l-70 -166h-53z" />
    <glyph glyph-name="Ldot" unicode="&#x13f;" horiz-adv-x="510" 
d="M46 0l141 706h71l-129 -643h286l-12 -63h-357zM411 338q-23 0 -37 14t-14 36q0 23 14 37.5t37 14.5q22 0 36.5 -14.5t14.5 -37.5q0 -22 -14.5 -36t-36.5 -14z" />
    <glyph glyph-name="ldot" unicode="&#x140;" horiz-adv-x="339" 
d="M31 0l141 706h65l-141 -706h-65zM299 283q-23 0 -37 14t-14 36q0 23 14 37t37 14q22 0 37 -14t15 -37q0 -22 -15 -36t-37 -14z" />
    <glyph glyph-name="Lslash" unicode="&#x141;" horiz-adv-x="470" 
d="M129 63h286l-12 -63h-357l65 325l-73 -43l13 65l73 43l63 316h71l-56 -278l162 97l-13 -66l-162 -95z" />
    <glyph glyph-name="lslash" unicode="&#x142;" horiz-adv-x="240" 
d="M279 492l-12 -64l-89 -57l-74 -371h-65l67 338l-85 -53l12 63l86 54l61 304h65l-54 -270z" />
    <glyph glyph-name="Nacute" unicode="&#x143;" horiz-adv-x="700" 
d="M383 779l140 124h86l-146 -124h-80zM46 0l141 706h76l246 -606l121 606h68l-141 -706h-75l-246 606l-122 -606h-68z" />
    <glyph glyph-name="nacute" unicode="&#x144;" horiz-adv-x="550" 
d="M485 726l-126 -153h-69l120 153h75zM338 495q74 0 112 -39t38 -108q0 -42 -9 -85l-52 -263h-66l53 264q7 35 7 70q0 101 -108 101q-62 0 -103.5 -38.5t-55.5 -111.5l-58 -285h-65l96 483h66l-12 -59q61 71 157 71z" />
    <glyph glyph-name="uni0145" unicode="&#x145;" horiz-adv-x="700" 
d="M46 0l141 706h76l246 -606l121 606h68l-141 -706h-75l-246 606l-122 -606h-68zM215 -201l60 147h68l-67 -147h-61z" />
    <glyph glyph-name="uni0146" unicode="&#x146;" horiz-adv-x="550" 
d="M338 495q74 0 112 -39t38 -108q0 -42 -9 -85l-52 -263h-66l53 264q7 35 7 70q0 101 -108 101q-62 0 -103.5 -38.5t-55.5 -111.5l-58 -285h-65l96 483h66l-12 -59q61 71 157 71zM135 -201l60 147h68l-67 -147h-61z" />
    <glyph glyph-name="Ncaron" unicode="&#x147;" horiz-adv-x="700" 
d="M646 903l-147 -124h-84l-98 124h69l72 -89l107 89h81zM46 0l141 706h76l246 -606l121 606h68l-141 -706h-75l-246 606l-122 -606h-68z" />
    <glyph glyph-name="ncaron" unicode="&#x148;" horiz-adv-x="550" 
d="M394 571h-82l-73 154h62l56 -119l104 119h69zM338 495q74 0 112 -39t38 -108q0 -42 -9 -85l-52 -263h-66l53 264q7 35 7 70q0 101 -108 101q-62 0 -103.5 -38.5t-55.5 -111.5l-58 -285h-65l96 483h66l-12 -59q61 71 157 71z" />
    <glyph glyph-name="napostrophe" unicode="&#x149;" horiz-adv-x="684" 
d="M202 706h73l-137 -281h-57zM471 495q75 0 113 -39t38 -108q0 -42 -9 -85l-52 -263h-66l53 264q7 35 7 70q0 101 -108 101q-62 0 -103.5 -38.5t-55.5 -111.5l-58 -285h-65l96 483h66l-12 -59q61 71 156 71z" />
    <glyph glyph-name="Eng" unicode="&#x14a;" horiz-adv-x="700" 
d="M630 706h68l-156 -784q-13 -67 -48 -96.5t-99 -29.5q-25 0 -46 4l11 58q12 -2 29 -2q39 0 59 18t28 61l14 66l-254 605l-122 -606h-68l141 706h76l249 -593z" />
    <glyph glyph-name="eng" unicode="&#x14b;" horiz-adv-x="550" 
d="M337 495q151 0 151 -155q0 -36 -9 -77l-69 -348q-13 -63 -47 -91t-96 -28q-24 0 -47 4l12 58q13 -2 32 -2q36 0 55.5 17t27.5 57l67 336q7 34 7 63q0 55 -26 80.5t-82 25.5q-62 0 -103.5 -38.5t-55.5 -111.5l-58 -285h-65l96 483h66l-12 -59q59 71 156 71z" />
    <glyph glyph-name="Omacron" unicode="&#x14c;" horiz-adv-x="718" 
d="M325 815l10 51h287l-10 -51h-287zM329 -15q-132 0 -195.5 78t-63.5 206q0 122 41.5 223.5t125.5 165t196 63.5q133 0 196.5 -77.5t63.5 -205.5q0 -123 -41.5 -224.5t-125.5 -165t-197 -63.5zM338 47q88 0 154 57.5t97.5 145.5t31.5 192q0 99 -47.5 158t-148.5 59
q-88 0 -154 -57t-97.5 -145t-31.5 -191q0 -100 47 -159.5t149 -59.5z" />
    <glyph glyph-name="omacron" unicode="&#x14d;" horiz-adv-x="538" 
d="M204 613l10 50h276l-9 -50h-277zM236 -11q-99 0 -146.5 57.5t-47.5 149.5q0 126 72 212.5t187 86.5q98 0 146 -59.5t48 -152.5q0 -125 -70 -209.5t-189 -84.5zM239 48q90 0 139 70t49 167q0 150 -129 150q-88 0 -138 -72.5t-50 -166.5q0 -148 129 -148z" />
    <glyph glyph-name="Obreve" unicode="&#x14e;" horiz-adv-x="718" 
d="M460 774q-118 0 -118 100q0 9 2 29h50q-1 -6 -1 -18q0 -66 74 -66q80 0 106 84h54q-32 -129 -167 -129zM329 -15q-132 0 -195.5 78t-63.5 206q0 122 41.5 223.5t125.5 165t196 63.5q133 0 196.5 -77.5t63.5 -205.5q0 -123 -41.5 -224.5t-125.5 -165t-197 -63.5zM338 47
q88 0 154 57.5t97.5 145.5t31.5 192q0 99 -47.5 158t-148.5 59q-88 0 -154 -57t-97.5 -145t-31.5 -191q0 -100 47 -159.5t149 -59.5z" />
    <glyph glyph-name="obreve" unicode="&#x14f;" horiz-adv-x="538" 
d="M340 570q-64 0 -93.5 30t-29.5 90q0 16 3 36h53q-3 -20 -3 -38q0 -37 17 -55t55 -18q47 0 73 26.5t41 84.5h55q-19 -79 -59 -117.5t-112 -38.5zM236 -11q-99 0 -146.5 57.5t-47.5 149.5q0 126 72 212.5t187 86.5q98 0 146 -59.5t48 -152.5q0 -125 -70 -209.5t-189 -84.5z
M239 48q90 0 139 70t49 167q0 150 -129 150q-88 0 -138 -72.5t-50 -166.5q0 -148 129 -148z" />
    <glyph glyph-name="Ohungarumlaut" unicode="&#x150;" horiz-adv-x="718" 
d="M349 780l133 123h75l-143 -123h-65zM490 780l132 123h74l-141 -123h-65zM329 -15q-132 0 -195.5 78t-63.5 206q0 122 41.5 223.5t125.5 165t196 63.5q133 0 196.5 -77.5t63.5 -205.5q0 -123 -41.5 -224.5t-125.5 -165t-197 -63.5zM338 47q88 0 154 57.5t97.5 145.5
t31.5 192q0 99 -47.5 158t-148.5 59q-88 0 -154 -57t-97.5 -145t-31.5 -191q0 -100 47 -159.5t149 -59.5z" />
    <glyph glyph-name="ohungarumlaut" unicode="&#x151;" horiz-adv-x="538" 
d="M228 573l135 153h71l-146 -153h-60zM365 573l136 153h71l-146 -153h-61zM236 -11q-99 0 -146.5 57.5t-47.5 149.5q0 126 72 212.5t187 86.5q98 0 146 -59.5t48 -152.5q0 -125 -70 -209.5t-189 -84.5zM239 48q90 0 139 70t49 167q0 150 -129 150q-88 0 -138 -72.5
t-50 -166.5q0 -148 129 -148z" />
    <glyph glyph-name="OE" unicode="&#x152;" horiz-adv-x="1005" 
d="M1036 645h-320l-51 -254h317l-13 -62h-317l-53 -268h320l-12 -61h-386l18 90q-90 -105 -225 -105q-127 0 -184.5 80.5t-57.5 216.5q0 117 40.5 216.5t119.5 161t180 61.5q174 0 221 -161l29 146h386zM318 47q87 0 149 54.5t91 139.5t28 188q0 230 -178 230
q-81 0 -142 -56.5t-91 -142.5t-30 -185q0 -228 173 -228z" />
    <glyph glyph-name="oe" unicode="&#x153;" horiz-adv-x="869" 
d="M823 231h-358q-2 -26 -2 -39q0 -146 124 -146q113 0 149 105h71q-24 -77 -82.5 -119t-137.5 -42q-130 0 -171 109q-67 -110 -197 -110q-89 0 -132.5 57t-43.5 148q0 128 67 214.5t183 86.5q119 0 158 -112q68 112 193 112q85 0 134.5 -53.5t49.5 -149.5q0 -32 -5 -61z
M643 438q-66 0 -109.5 -42.5t-60.5 -112.5h289v11q0 68 -29.5 106t-89.5 38zM222 48q87 0 133 71t46 170q0 146 -111 146q-61 0 -103 -37.5t-59 -90t-17 -113.5q0 -146 111 -146z" />
    <glyph glyph-name="Racute" unicode="&#x154;" horiz-adv-x="605" 
d="M568 903l-146 -124h-80l140 124h86zM609 534q0 -96 -66 -150.5t-176 -56.5l179 -327h-77l-178 327h-109l-65 -327h-71l141 706h208q214 0 214 -172zM353 385q88 0 135 37.5t47 110.5q0 58 -36 86t-114 28h-139l-52 -262h159z" />
    <glyph glyph-name="racute" unicode="&#x155;" horiz-adv-x="331" 
d="M392 726l-126 -153h-69l120 153h75zM178 422q52 67 138 67q21 0 49 -6l-12 -61q-22 5 -45 5q-63 0 -102 -38t-53 -108l-57 -281h-65l96 483h63z" />
    <glyph glyph-name="uni0156" unicode="&#x156;" horiz-adv-x="605" 
d="M609 534q0 -96 -66 -150.5t-176 -56.5l179 -327h-77l-178 327h-109l-65 -327h-71l141 706h208q214 0 214 -172zM353 385q88 0 135 37.5t47 110.5q0 58 -36 86t-114 28h-139l-52 -262h159zM202 -201l60 147h68l-67 -147h-61z" />
    <glyph glyph-name="uni0157" unicode="&#x157;" horiz-adv-x="331" 
d="M316 489q21 0 49 -6l-12 -61q-22 5 -45 5q-63 0 -102 -38t-53 -108l-57 -281h-65l96 483h63l-12 -61q52 67 138 67zM-40 -201l60 147h68l-67 -147h-61z" />
    <glyph glyph-name="Rcaron" unicode="&#x158;" horiz-adv-x="605" 
d="M458 779h-84l-98 124h69l72 -89l107 89h81zM609 534q0 -96 -66 -150.5t-176 -56.5l179 -327h-77l-178 327h-109l-65 -327h-71l141 706h208q214 0 214 -172zM353 385q88 0 135 37.5t47 110.5q0 58 -36 86t-114 28h-139l-52 -262h159z" />
    <glyph glyph-name="rcaron" unicode="&#x159;" horiz-adv-x="331" 
d="M300 571h-82l-73 154h62l56 -119l104 119h69zM178 422q52 67 138 67q21 0 49 -6l-12 -61q-22 5 -45 5q-63 0 -102 -38t-53 -108l-57 -281h-65l96 483h63z" />
    <glyph glyph-name="Sacute" unicode="&#x15a;" horiz-adv-x="587" 
d="M301 779l140 124h86l-146 -124h-80zM272 -15q-120 0 -178.5 55t-58.5 150q0 20 3 43h73q-4 -21 -4 -42q0 -69 42.5 -107.5t127.5 -38.5q86 0 136 39.5t50 105.5q0 22 -5 39.5t-19 32t-25 24t-37 20.5t-40 16.5t-48 17.5q-86 30 -130 71t-44 112q0 89 66.5 143.5
t175.5 54.5q105 0 159.5 -51.5t54.5 -136.5q0 -28 -4 -48h-70q5 27 5 45q0 61 -38.5 96.5t-111.5 35.5q-75 0 -120 -37t-45 -97q0 -16 4 -30t10 -24t18 -20t21 -16.5t26.5 -14.5t28 -12t32.5 -12t32 -12q93 -35 135 -75t42 -115q0 -99 -71 -155.5t-193 -56.5z" />
    <glyph glyph-name="sacute" unicode="&#x15b;" horiz-adv-x="458" 
d="M228 573l120 153h75l-126 -153h-69zM193 -11q-87 0 -129 36t-42 99q0 19 3 37h65q-3 -13 -3 -29q0 -90 111 -90q58 0 92 24.5t34 65.5q0 20 -7.5 34.5t-25.5 25.5t-32.5 17t-42.5 16q-65 23 -98.5 51.5t-33.5 80.5q0 63 49.5 100.5t129.5 37.5q76 0 115.5 -33t39.5 -91
q0 -15 -3 -31h-64q3 12 3 26q0 36 -24.5 57t-71.5 21q-49 0 -78.5 -22t-29.5 -57q0 -33 27 -52t84 -39q67 -23 99.5 -53.5t32.5 -82.5q0 -69 -55.5 -109t-144.5 -40z" />
    <glyph glyph-name="Scircumflex" unicode="&#x15c;" horiz-adv-x="587" 
d="M209 779l148 124h84l97 -124h-68l-73 89l-107 -89h-81zM272 -15q-120 0 -178.5 55t-58.5 150q0 20 3 43h73q-4 -21 -4 -42q0 -69 42.5 -107.5t127.5 -38.5q86 0 136 39.5t50 105.5q0 22 -5 39.5t-19 32t-25 24t-37 20.5t-40 16.5t-48 17.5q-86 30 -130 71t-44 112
q0 89 66.5 143.5t175.5 54.5q105 0 159.5 -51.5t54.5 -136.5q0 -28 -4 -48h-70q5 27 5 45q0 61 -38.5 96.5t-111.5 35.5q-75 0 -120 -37t-45 -97q0 -16 4 -30t10 -24t18 -20t21 -16.5t26.5 -14.5t28 -12t32.5 -12t32 -12q93 -35 135 -75t42 -115q0 -99 -71 -155.5
t-193 -56.5z" />
    <glyph glyph-name="scircumflex" unicode="&#x15d;" horiz-adv-x="458" 
d="M143 572l135 154h82l73 -154h-62l-56 120l-104 -120h-68zM193 -11q-87 0 -129 36t-42 99q0 19 3 37h65q-3 -13 -3 -29q0 -90 111 -90q58 0 92 24.5t34 65.5q0 20 -7.5 34.5t-25.5 25.5t-32.5 17t-42.5 16q-65 23 -98.5 51.5t-33.5 80.5q0 63 49.5 100.5t129.5 37.5
q76 0 115.5 -33t39.5 -91q0 -15 -3 -31h-64q3 12 3 26q0 36 -24.5 57t-71.5 21q-49 0 -78.5 -22t-29.5 -57q0 -33 27 -52t84 -39q67 -23 99.5 -53.5t32.5 -82.5q0 -69 -55.5 -109t-144.5 -40z" />
    <glyph glyph-name="Scedilla" unicode="&#x15e;" horiz-adv-x="587" 
d="M567 485h-70q5 27 5 45q0 61 -38.5 96.5t-111.5 35.5q-75 0 -120 -37t-45 -97q0 -16 4 -30t10 -24t18 -20t21 -16.5t26.5 -14.5t28 -12t32.5 -12t32 -12q93 -35 135 -75t42 -115q0 -92 -61 -147.5t-168 -63.5l-21 -40q91 -5 91 -75q0 -43 -33 -65t-87 -22q-48 0 -81 16
l17 42q31 -12 63 -12q30 0 49 11.5t19 31.5q0 38 -78 38h-31l37 74q-110 5 -163.5 59.5t-53.5 145.5q0 20 3 43h73q-4 -21 -4 -42q0 -69 42.5 -107.5t127.5 -38.5q86 0 136 39.5t50 105.5q0 22 -5 39.5t-19 32t-25 24t-37 20.5t-40 16.5t-48 17.5q-86 30 -130 71t-44 112
q0 89 66.5 143.5t175.5 54.5q105 0 159.5 -51.5t54.5 -136.5q0 -28 -4 -48z" />
    <glyph glyph-name="scedilla" unicode="&#x15f;" horiz-adv-x="458" 
d="M415 340h-64q3 12 3 26q0 36 -24.5 57t-71.5 21q-49 0 -78.5 -22t-29.5 -57q0 -33 27 -52t84 -39q67 -23 99.5 -53.5t32.5 -82.5q0 -63 -47.5 -102.5t-126.5 -45.5l-22 -44q91 -5 91 -75q0 -43 -33 -65t-87 -22q-48 0 -81 16l17 42q31 -12 63 -12q30 0 49 11.5t19 31.5
q0 38 -78 38h-31l40 79q-144 11 -144 134q0 19 3 37h65q-3 -13 -3 -29q0 -90 111 -90q58 0 92 24.5t34 65.5q0 20 -7.5 34.5t-25.5 25.5t-32.5 17t-42.5 16q-65 23 -98.5 51.5t-33.5 80.5q0 63 49.5 100.5t129.5 37.5q76 0 115.5 -33t39.5 -91q0 -15 -3 -31z" />
    <glyph glyph-name="Scaron" unicode="&#x160;" horiz-adv-x="587" 
d="M563 903l-147 -124h-84l-98 124h69l72 -89l107 89h81zM272 -15q-120 0 -178.5 55t-58.5 150q0 20 3 43h73q-4 -21 -4 -42q0 -69 42.5 -107.5t127.5 -38.5q86 0 136 39.5t50 105.5q0 22 -5 39.5t-19 32t-25 24t-37 20.5t-40 16.5t-48 17.5q-86 30 -130 71t-44 112
q0 89 66.5 143.5t175.5 54.5q105 0 159.5 -51.5t54.5 -136.5q0 -28 -4 -48h-70q5 27 5 45q0 61 -38.5 96.5t-111.5 35.5q-75 0 -120 -37t-45 -97q0 -16 4 -30t10 -24t18 -20t21 -16.5t26.5 -14.5t28 -12t32.5 -12t32 -12q93 -35 135 -75t42 -115q0 -99 -71 -155.5
t-193 -56.5z" />
    <glyph glyph-name="scaron" unicode="&#x161;" horiz-adv-x="458" 
d="M467 725l-136 -154h-82l-73 154h62l56 -119l104 119h69zM193 -11q-87 0 -129 36t-42 99q0 19 3 37h65q-3 -13 -3 -29q0 -90 111 -90q58 0 92 24.5t34 65.5q0 20 -7.5 34.5t-25.5 25.5t-32.5 17t-42.5 16q-65 23 -98.5 51.5t-33.5 80.5q0 63 49.5 100.5t129.5 37.5
q76 0 115.5 -33t39.5 -91q0 -15 -3 -31h-64q3 12 3 26q0 36 -24.5 57t-71.5 21q-49 0 -78.5 -22t-29.5 -57q0 -33 27 -52t84 -39q67 -23 99.5 -53.5t32.5 -82.5q0 -69 -55.5 -109t-144.5 -40z" />
    <glyph glyph-name="uni0162" unicode="&#x162;" horiz-adv-x="543" 
d="M112 706h505l-12 -61h-217l-129 -645h-6l-27 -54q91 -5 91 -75q0 -43 -33 -65t-87 -22q-48 0 -81 16l17 42q31 -12 63 -12q30 0 49 11.5t19 31.5q0 38 -78 38h-31l45 89h-12l129 645h-217z" />
    <glyph glyph-name="uni0163" unicode="&#x163;" horiz-adv-x="351" 
d="M204 427l-54 -274q-4 -20 -4 -38q0 -64 72 -64q26 0 57 7l-11 -59q-32 -6 -62 -6h-14l-24 -47q91 -5 91 -75q0 -43 -33 -65t-87 -22q-48 0 -81 16l17 42q31 -12 63 -12q30 0 49 11.5t19 31.5q0 38 -78 38h-31l45 91q-60 21 -60 96q0 21 7 58l54 271h-80l11 56h80l24 118
h66l-24 -118h147l-12 -56h-147z" />
    <glyph glyph-name="Tcaron" unicode="&#x164;" horiz-adv-x="543" 
d="M567 903l-147 -124h-84l-98 124h69l72 -89l107 89h81zM188 0l129 645h-217l12 61h505l-12 -61h-217l-129 -645h-71z" />
    <glyph glyph-name="tcaron" unicode="&#x165;" horiz-adv-x="371" 
d="M276 539l62 166h61l-70 -166h-53zM202 -7q-124 0 -124 105q0 21 7 58l54 271h-80l11 56h80l24 118h66l-24 -118h147l-12 -56h-147l-54 -274q-4 -20 -4 -38q0 -64 72 -64q26 0 57 7l-11 -59q-32 -6 -62 -6z" />
    <glyph glyph-name="Tbar" unicode="&#x166;" horiz-adv-x="543" 
d="M605 645h-217l-41 -205h133l-11 -52h-132l-78 -388h-71l78 388h-136l11 52h135l41 205h-217l12 61h505z" />
    <glyph glyph-name="tbar" unicode="&#x167;" horiz-adv-x="351" 
d="M351 427h-147l-26 -133h147l-9 -50h-148l-18 -91q-4 -20 -4 -38q0 -64 72 -64q26 0 57 7l-11 -59q-32 -6 -62 -6q-124 0 -124 105q0 21 7 58l18 88h-82l10 50h81l27 133h-80l11 56h80l24 118h66l-24 -118h147z" />
    <glyph glyph-name="Utilde" unicode="&#x168;" horiz-adv-x="630" 
d="M502 775q-46 0 -80 42q-2 2 -7.5 8.5t-7 8.5t-6.5 7t-8 6.5l-8 4t-10.5 3.5t-11.5 1q-49 0 -73 -79h-50q32 129 127 129q46 0 81 -43q2 -2 6 -7.5t6 -7.5t6 -6.5t6 -6l6 -4.5t7.5 -4t8.5 -2t10 -1q50 0 74 79h50q-35 -128 -126 -128zM277 -15q-211 0 -211 178q0 31 8 74
l94 469h71l-96 -480q-6 -32 -6 -58q0 -62 34 -91.5t108 -29.5q88 0 135.5 41t64.5 128l97 490h71l-101 -506q-23 -110 -87.5 -162.5t-181.5 -52.5z" />
    <glyph glyph-name="utilde" unicode="&#x169;" horiz-adv-x="550" 
d="M281 678q-23 0 -37.5 -24.5t-28.5 -81.5h-49q18 82 45.5 119.5t73.5 37.5q25 0 41.5 -12.5t32.5 -43.5q2 -4 6.5 -12.5t6 -11.5t5.5 -9t6.5 -8.5t6.5 -6t9 -4.5t10 -1q23 0 36.5 24t28.5 82h49q-20 -85 -45.5 -121t-75.5 -36q-49 0 -72 55q-2 3 -6 11.5t-5.5 11.5
t-5.5 9.5t-6.5 9t-6.5 6t-9 5t-10 1.5zM396 198l58 285h65l-96 -483h-66l12 59q-61 -71 -157 -71q-74 0 -112 39t-38 108q0 41 9 85l52 263h66l-53 -264q-7 -35 -7 -70q0 -101 108 -101q61 0 103 38.5t56 111.5z" />
    <glyph glyph-name="Umacron" unicode="&#x16a;" horiz-adv-x="630" 
d="M286 815l10 51h287l-10 -51h-287zM277 -15q-211 0 -211 178q0 31 8 74l94 469h71l-96 -480q-6 -32 -6 -58q0 -62 34 -91.5t108 -29.5q88 0 135.5 41t64.5 128l97 490h71l-101 -506q-23 -110 -87.5 -162.5t-181.5 -52.5z" />
    <glyph glyph-name="umacron" unicode="&#x16b;" horiz-adv-x="550" 
d="M485 663l-9 -50h-277l10 50h276zM454 483h65l-96 -483h-66l12 59q-61 -71 -157 -71q-74 0 -112 39t-38 108q0 41 9 85l52 263h66l-53 -264q-7 -35 -7 -70q0 -101 108 -101q61 0 103 38.5t56 111.5z" />
    <glyph glyph-name="Ubreve" unicode="&#x16c;" horiz-adv-x="630" 
d="M421 774q-118 0 -118 100q0 9 2 29h50q-1 -6 -1 -18q0 -66 74 -66q80 0 106 84h54q-32 -129 -167 -129zM277 -15q-211 0 -211 178q0 31 8 74l94 469h71l-96 -480q-6 -32 -6 -58q0 -62 34 -91.5t108 -29.5q88 0 135.5 41t64.5 128l97 490h71l-101 -506
q-23 -110 -87.5 -162.5t-181.5 -52.5z" />
    <glyph glyph-name="ubreve" unicode="&#x16d;" horiz-adv-x="550" 
d="M334 570q-64 0 -93.5 30t-29.5 90q0 16 3 36h53q-3 -20 -3 -38q0 -37 17 -55t55 -18q47 0 73 26.5t41 84.5h55q-19 -79 -59 -117.5t-112 -38.5zM454 483h65l-96 -483h-66l12 59q-61 -71 -157 -71q-74 0 -112 39t-38 108q0 41 9 85l52 263h66l-53 -264q-7 -35 -7 -70
q0 -101 108 -101q61 0 103 38.5t56 111.5z" />
    <glyph glyph-name="Uring" unicode="&#x16e;" horiz-adv-x="630" 
d="M425 746q-48 0 -77 27.5t-29 73.5t29 73.5t77 27.5t77.5 -28t29.5 -73q0 -46 -29.5 -73.5t-77.5 -27.5zM425 787q28 0 44.5 16.5t16.5 43.5t-17 43.5t-44 16.5q-28 0 -44.5 -16.5t-16.5 -43.5t16.5 -43.5t44.5 -16.5zM277 -15q-211 0 -211 178q0 31 8 74l94 469h71
l-96 -480q-6 -32 -6 -58q0 -62 34 -91.5t108 -29.5q88 0 135.5 41t64.5 128l97 490h71l-101 -506q-23 -110 -87.5 -162.5t-181.5 -52.5z" />
    <glyph glyph-name="uring" unicode="&#x16f;" horiz-adv-x="550" 
d="M340 556q-48 0 -77 27.5t-29 73.5t29 73.5t77 27.5t77.5 -28t29.5 -73t-29.5 -73t-77.5 -28zM340 717q-27 0 -44 -16.5t-17 -43.5t17 -43.5t44 -16.5q28 0 44.5 16.5t16.5 43.5t-17 43.5t-44 16.5zM454 483h65l-96 -483h-66l12 59q-61 -71 -157 -71q-74 0 -112 39
t-38 108q0 41 9 85l52 263h66l-53 -264q-7 -35 -7 -70q0 -101 108 -101q61 0 103 38.5t56 111.5z" />
    <glyph glyph-name="Uhungarumlaut" unicode="&#x170;" horiz-adv-x="630" 
d="M310 780l133 123h75l-143 -123h-65zM451 780l132 123h74l-141 -123h-65zM277 -15q-211 0 -211 178q0 31 8 74l94 469h71l-96 -480q-6 -32 -6 -58q0 -62 34 -91.5t108 -29.5q88 0 135.5 41t64.5 128l97 490h71l-101 -506q-23 -110 -87.5 -162.5t-181.5 -52.5z" />
    <glyph glyph-name="uhungarumlaut" unicode="&#x171;" horiz-adv-x="550" 
d="M428 726l-146 -153h-60l135 153h71zM420 573h-61l136 153h71zM396 198l58 285h65l-96 -483h-66l12 59q-61 -71 -157 -71q-74 0 -112 39t-38 108q0 41 9 85l52 263h66l-53 -264q-7 -35 -7 -70q0 -101 108 -101q61 0 103 38.5t56 111.5z" />
    <glyph glyph-name="Uogonek" unicode="&#x172;" horiz-adv-x="630" 
d="M576 706h71l-101 -506q-29 -135 -127 -200q-36 -25 -55 -40t-37 -38.5t-18 -45.5q0 -40 49 -40q20 0 41 7l-9 -49q-27 -5 -48 -5q-42 0 -67 20.5t-25 56.5q0 62 89 123q-25 -4 -62 -4q-211 0 -211 178q0 31 8 74l94 469h71l-96 -480q-6 -32 -6 -58q0 -62 34 -91.5
t108 -29.5q88 0 135.5 41t64.5 128z" />
    <glyph glyph-name="uogonek" unicode="&#x173;" horiz-adv-x="550" 
d="M454 483h65l-96 -483h-1q-35 -24 -54.5 -39.5t-37 -39t-17.5 -45.5q0 -40 48 -40q19 0 42 7l-10 -49q-25 -5 -47 -5q-43 0 -68 20.5t-25 56.5q0 39 28 70t78 64h-2l12 59q-61 -71 -157 -71q-74 0 -112 39t-38 108q0 41 9 85l52 263h66l-53 -264q-7 -35 -7 -70
q0 -101 108 -101q61 0 103 38.5t56 111.5z" />
    <glyph glyph-name="Wcircumflex" unicode="&#x174;" horiz-adv-x="882" 
d="M564 868l-107 -89h-81l148 124h84l97 -124h-68zM893 706h72l-335 -706h-77l-44 609l-274 -609h-74l-59 706h67l47 -606l271 606h78l44 -603z" />
    <glyph glyph-name="wcircumflex" unicode="&#x175;" horiz-adv-x="729" 
d="M446 692l-104 -120h-68l135 154h82l73 -154h-62zM684 483h75l-262 -483h-67l-39 394l-189 -394h-66l-69 483h68l46 -399l195 399h62l40 -397z" />
    <glyph glyph-name="Ycircumflex" unicode="&#x176;" horiz-adv-x="549" 
d="M211 779l148 124h84l97 -124h-68l-73 89l-107 -89h-81zM192 0l61 305l-151 401h72l125 -332l250 332h84l-310 -401l-61 -305h-70z" />
    <glyph glyph-name="ycircumflex" unicode="&#x177;" horiz-adv-x="496" 
d="M331 692l-104 -120h-68l135 154h82l73 -154h-62zM450 483h76l-426 -684h-73l126 203l-86 481h67l69 -407z" />
    <glyph glyph-name="Ydieresis" unicode="&#x178;" horiz-adv-x="549" 
d="M284 805q-21 0 -34 13t-13 33q0 21 13 34.5t34 13.5q20 0 34 -13.5t14 -34.5q0 -20 -14 -33t-34 -13zM489 805q-21 0 -34.5 13t-13.5 33q0 21 13.5 34.5t34.5 13.5q20 0 33.5 -13.5t13.5 -34.5q0 -20 -13.5 -33t-33.5 -13zM192 0l61 305l-151 401h72l125 -332l250 332h84
l-310 -401l-61 -305h-70z" />
    <glyph glyph-name="Zacute" unicode="&#x179;" horiz-adv-x="559" 
d="M298 779l140 124h86l-146 -124h-80zM-25 0l507 644h-361l12 62h480l-505 -644h388l-12 -62h-509z" />
    <glyph glyph-name="zacute" unicode="&#x17a;" horiz-adv-x="452" 
d="M414 726l-126 -153h-69l120 153h75zM473 483l-371 -427h285l-11 -56h-402l374 427h-264l12 56h377z" />
    <glyph glyph-name="Zdotaccent" unicode="&#x17b;" horiz-adv-x="559" 
d="M385 798q-21 0 -34 12t-13 32t13 32t34 12q19 0 32 -12.5t13 -31.5t-13 -31.5t-32 -12.5zM-25 0l507 644h-361l12 62h480l-505 -644h388l-12 -62h-509z" />
    <glyph glyph-name="zdotaccent" unicode="&#x17c;" horiz-adv-x="452" 
d="M292 602q-22 0 -35.5 13.5t-13.5 33.5q0 22 13.5 36t35.5 14q20 0 34.5 -14.5t14.5 -35.5q0 -20 -14.5 -33.5t-34.5 -13.5zM473 483l-371 -427h285l-11 -56h-402l374 427h-264l12 56h377z" />
    <glyph glyph-name="Zcaron" unicode="&#x17d;" horiz-adv-x="559" 
d="M560 903l-147 -124h-84l-98 124h69l72 -89l107 89h81zM-25 0l507 644h-361l12 62h480l-505 -644h388l-12 -62h-509z" />
    <glyph glyph-name="zcaron" unicode="&#x17e;" horiz-adv-x="452" 
d="M323 571h-82l-73 154h62l56 -119l104 119h69zM473 483l-371 -427h285l-11 -56h-402l374 427h-264l12 56h377z" />
    <glyph glyph-name="Schwa" unicode="&#x18f;" horiz-adv-x="681" 
d="M401 721q127 0 190 -79t63 -210q0 -188 -96.5 -317.5t-249.5 -129.5q-111 0 -175.5 74t-64.5 207q0 46 7 93h503q4 32 4 75q0 104 -44.5 164t-137.5 60q-166 0 -225 -174h-74q33 113 113 175t187 62zM311 46q97 0 163.5 69t93.5 184h-432q-1 -11 -1 -34q0 -101 43.5 -160
t132.5 -59z" />
    <glyph glyph-name="florin" unicode="&#x192;" horiz-adv-x="379" 
d="M35 -6q-31 0 -61 7l12 55q18 -5 41 -5q90 0 110 94l49 240h-129l10 48h128l30 149q27 133 164 133q29 0 61 -6l-12 -56q-25 5 -47 5q-86 0 -104 -95l-26 -130h133l-9 -48h-134l-51 -257q-27 -134 -165 -134z" />
    <glyph glyph-name="Aringacute" unicode="&#x1fa;" horiz-adv-x="610" 
d="M611 1145l-146 -124h-80l140 124h86zM412 746q-48 0 -77 27.5t-29 73.5t29 73.5t77 27.5t77.5 -28t29.5 -73q0 -46 -29.5 -73.5t-77.5 -27.5zM412 907q-28 0 -44.5 -16.5t-16.5 -43.5t16.5 -43.5t44.5 -16.5t44.5 16.5t16.5 43.5t-17 43.5t-44 16.5zM344 706h107
l102 -706h-70l-26 189h-317l-102 -189h-77zM172 248h276l-56 405h-2z" />
    <glyph glyph-name="aringacute" unicode="&#x1fb;" horiz-adv-x="528" 
d="M512 1001l-126 -153h-69l120 153h75zM333 556q-48 0 -77 27.5t-29 73.5t29 73.5t77 27.5t77.5 -28t29.5 -73t-29.5 -73t-77.5 -28zM333 717q-27 0 -44 -16.5t-17 -43.5t17 -43.5t44 -16.5q28 0 44.5 16.5t16.5 43.5t-17 43.5t-44 16.5zM288 495q94 0 135.5 -42t41.5 -120
q0 -31 -10 -80l-51 -253h-65l14 71q-65 -82 -181 -82q-74 0 -112 34t-38 94q0 164 238 164h135q6 32 6 55q0 51 -26.5 77t-87.5 26q-118 0 -139 -105h-68q13 75 66.5 118t141.5 43zM192 44q80 0 126.5 45t65.5 140h-119q-173 0 -173 -102q0 -83 100 -83z" />
    <glyph glyph-name="AEacute" unicode="&#x1fc;" horiz-adv-x="770" 
d="M699 903l-146 -124h-80l140 124h86zM801 645h-304l-19 -254h269l-13 -62h-260l-20 -268h230l-12 -61h-295l16 191h-239l-114 -191h-79l428 706h424zM398 250l33 400h-2l-239 -400h208z" />
    <glyph glyph-name="aeacute" unicode="&#x1fd;" horiz-adv-x="854" 
d="M630 726l-126 -153h-69l120 153h75zM809 231h-358q-2 -26 -2 -39q0 -146 124 -146q111 0 149 105h70q-24 -77 -82.5 -119t-137.5 -42q-143 0 -176 129q-65 -130 -217 -130q-78 0 -117.5 34.5t-39.5 96.5q0 85 64.5 123.5t173.5 38.5h135q6 32 6 54q0 51 -26.5 77
t-87.5 26q-121 0 -140 -105h-67q13 75 66.5 118t141.5 43q131 0 163 -90q67 90 179 90q85 0 134.5 -53.5t49.5 -149.5q0 -34 -5 -61zM629 438q-66 0 -109.5 -42.5t-60.5 -113.5h289v12q0 68 -29.5 106t-89.5 38zM193 44q81 0 127 45.5t65 141.5h-120q-173 0 -173 -104
q0 -83 101 -83z" />
    <glyph glyph-name="Oslashacute" unicode="&#x1fe;" horiz-adv-x="718" 
d="M614 903l-146 -124h-80l140 124h86zM778 706l-117 -111q32 -65 32 -157q0 -123 -41.5 -224.5t-125.5 -165t-197 -63.5q-139 0 -206 91l-78 -76h-70l124 117q-29 64 -29 152q0 122 41.5 223.5t125.5 165t196 63.5q136 0 203 -86l72 71h70zM425 659q-88 0 -154 -57
t-97.5 -145t-31.5 -191q0 -56 13 -96l427 418q-48 71 -157 71zM338 47q88 0 154 57.5t97.5 145.5t31.5 192q0 58 -16 102l-429 -420q49 -77 162 -77z" />
    <glyph glyph-name="oslashacute" unicode="&#x1ff;" horiz-adv-x="538" 
d="M469 726l-126 -153h-69l120 153h75zM542 483l-76 -74q29 -51 29 -126q0 -125 -70 -209.5t-189 -84.5q-91 0 -141 52l-43 -41h-60l78 75q-28 50 -28 121q0 126 72 212.5t187 86.5q89 0 139 -52l41 40h61zM298 435q-88 0 -138 -72.5t-50 -166.5q0 -44 11 -71l273 273
q-34 37 -96 37zM239 48q90 0 139 70t49 167q0 44 -12 77l-274 -275q33 -39 98 -39z" />
    <glyph glyph-name="uni0218" unicode="&#x218;" horiz-adv-x="587" 
d="M272 -15q-120 0 -178.5 55t-58.5 150q0 20 3 43h73q-4 -21 -4 -42q0 -69 42.5 -107.5t127.5 -38.5q86 0 136 39.5t50 105.5q0 22 -5 39.5t-19 32t-25 24t-37 20.5t-40 16.5t-48 17.5q-86 30 -130 71t-44 112q0 89 66.5 143.5t175.5 54.5q105 0 159.5 -51.5t54.5 -136.5
q0 -28 -4 -48h-70q5 27 5 45q0 61 -38.5 96.5t-111.5 35.5q-75 0 -120 -37t-45 -97q0 -16 4 -30t10 -24t18 -20t21 -16.5t26.5 -14.5t28 -12t32.5 -12t32 -12q93 -35 135 -75t42 -115q0 -99 -71 -155.5t-193 -56.5zM181 -201l60 147h68l-67 -147h-61z" />
    <glyph glyph-name="uni0219" unicode="&#x219;" horiz-adv-x="458" 
d="M193 -11q-87 0 -129 36t-42 99q0 19 3 37h65q-3 -13 -3 -29q0 -90 111 -90q58 0 92 24.5t34 65.5q0 20 -7.5 34.5t-25.5 25.5t-32.5 17t-42.5 16q-65 23 -98.5 51.5t-33.5 80.5q0 63 49.5 100.5t129.5 37.5q76 0 115.5 -33t39.5 -91q0 -15 -3 -31h-64q3 12 3 26
q0 36 -24.5 57t-71.5 21q-49 0 -78.5 -22t-29.5 -57q0 -33 27 -52t84 -39q67 -23 99.5 -53.5t32.5 -82.5q0 -69 -55.5 -109t-144.5 -40zM92 -201l60 147h68l-67 -147h-61z" />
    <glyph glyph-name="uni021A" unicode="&#x21a;" horiz-adv-x="543" 
d="M188 0l129 645h-217l12 61h505l-12 -61h-217l-129 -645h-71zM121 -201l60 147h68l-67 -147h-61z" />
    <glyph glyph-name="uni021B" unicode="&#x21b;" horiz-adv-x="351" 
d="M202 -7q-124 0 -124 105q0 21 7 58l54 271h-80l11 56h80l24 118h66l-24 -118h147l-12 -56h-147l-54 -274q-4 -20 -4 -38q0 -64 72 -64q26 0 57 7l-11 -59q-32 -6 -62 -6zM59 -201l60 147h68l-67 -147h-61z" />
    <glyph glyph-name="uni0237" unicode="&#x237;" horiz-adv-x="224" 
d="M-64 -204q-25 0 -46 4l12 58q11 -2 28 -2q39 0 59.5 18t28.5 61l109 548h66l-113 -568q-13 -63 -47 -91t-97 -28z" />
    <glyph glyph-name="uni0259" unicode="&#x259;" horiz-adv-x="537" 
d="M292 493q103 0 153 -55t50 -148q0 -128 -71.5 -215t-189.5 -87q-90 0 -142 53.5t-52 149.5q0 32 5 61h382q2 26 2 39q0 146 -138 146q-118 0 -159 -105h-70q24 77 85.5 119t144.5 42zM236 45q70 0 116.5 42.5t65.5 112.5h-312v-11q0 -144 130 -144z" />
    <glyph glyph-name="circumflex" unicode="&#x2c6;" horiz-adv-x="391" 
d="M116 572l135 154h82l73 -154h-62l-56 120l-104 -120h-68z" />
    <glyph glyph-name="caron" unicode="&#x2c7;" horiz-adv-x="391" 
d="M438 725l-136 -154h-82l-73 154h62l56 -119l104 119h69z" />
    <glyph glyph-name="uni02C9" unicode="&#x2c9;" horiz-adv-x="377" 
d="M124 613l10 50h276l-9 -50h-277z" />
    <glyph glyph-name="breve" unicode="&#x2d8;" horiz-adv-x="391" 
d="M267 570q-64 0 -93.5 30t-29.5 90q0 16 3 36h53q-3 -20 -3 -38q0 -37 17 -55t55 -18q47 0 73 26.5t41 84.5h55q-19 -79 -59 -117.5t-112 -38.5z" />
    <glyph glyph-name="dotaccent" unicode="&#x2d9;" horiz-adv-x="200" 
d="M182 602q-22 0 -35.5 13.5t-13.5 33.5q0 22 13.5 36t35.5 14q20 0 34.5 -14.5t14.5 -35.5q0 -20 -14.5 -33.5t-34.5 -13.5z" />
    <glyph glyph-name="ring" unicode="&#x2da;" horiz-adv-x="318" 
d="M241 556q-48 0 -77 27.5t-29 73.5t29 73.5t77 27.5t77.5 -28t29.5 -73t-29.5 -73t-77.5 -28zM241 597q28 0 44.5 16.5t16.5 43.5t-17 43.5t-44 16.5t-44 -16.5t-17 -43.5t17 -43.5t44 -16.5z" />
    <glyph glyph-name="ogonek" unicode="&#x2db;" horiz-adv-x="256" 
d="M70 -211q-43 0 -68 20.5t-25 56.5q0 42 31.5 74.5t88.5 68.5l49 -9q-35 -24 -54.5 -39.5t-37 -39t-17.5 -45.5q0 -40 48 -40q19 0 42 7l-10 -49q-25 -5 -47 -5z" />
    <glyph glyph-name="tilde" unicode="&#x2dc;" horiz-adv-x="426" 
d="M352 569q-49 0 -72 55q-2 3 -6 11.5t-5.5 11.5t-5.5 9.5t-6.5 9t-6.5 6t-9 5t-10 1.5q-23 0 -37.5 -24.5t-28.5 -81.5h-49q18 82 45.5 119.5t73.5 37.5q25 0 41.5 -12.5t32.5 -43.5q2 -4 6.5 -12.5t6 -11.5t5.5 -9t6.5 -8.5t6.5 -6t9 -4.5t10 -1q23 0 36.5 24t28.5 82h49
q-20 -85 -45.5 -121t-75.5 -36z" />
    <glyph glyph-name="hungarumlaut" unicode="&#x2dd;" horiz-adv-x="414" 
d="M117 573l135 153h71l-146 -153h-60zM254 573l136 153h71l-146 -153h-61z" />
    <glyph glyph-name="gravecomb" unicode="&#x300;" 
d="M16 573h-60l-74 153h66z" />
    <glyph glyph-name="acutecomb" unicode="&#x301;" 
d="M-149 573l120 153h75l-126 -153h-69z" />
    <glyph glyph-name="uni0302" unicode="&#x302;" 
d="M-275 572l135 154h82l73 -154h-62l-56 120l-104 -120h-68z" />
    <glyph glyph-name="tildecomb" unicode="&#x303;" 
d="M-74 569q-49 0 -72 55q-2 3 -6 11.5t-5.5 11.5t-5.5 9.5t-6.5 9t-6.5 6t-9 5t-10 1.5q-23 0 -37.5 -24.5t-28.5 -81.5h-49q18 82 45.5 119.5t73.5 37.5q25 0 41.5 -12.5t32.5 -43.5q2 -4 6.5 -12.5t6 -11.5t5.5 -9t6.5 -8.5t6.5 -6t9 -4.5t10 -1q23 0 36.5 24t28.5 82h49
q-20 -85 -45.5 -121t-75.5 -36z" />
    <glyph glyph-name="uni0304" unicode="&#x304;" 
d="M-253 613l10 50h277l-9 -50h-278z" />
    <glyph glyph-name="uni0306" unicode="&#x306;" 
d="M-124 570q-64 0 -93.5 30t-29.5 90q0 16 3 36h53q-3 -20 -3 -38q0 -37 17 -55t55 -18q47 0 73 26.5t41 84.5h55q-19 -79 -59 -117.5t-112 -38.5z" />
    <glyph glyph-name="uni0307" unicode="&#x307;" 
d="M-18 602q-22 0 -35.5 13.5t-13.5 33.5q0 22 13.5 36t35.5 14q20 0 34.5 -14.5t14.5 -35.5q0 -20 -14.5 -33.5t-34.5 -13.5z" />
    <glyph glyph-name="uni0308" unicode="&#x308;" 
d="M-203 592q-21 0 -34.5 13.5t-13.5 33.5q0 21 13.5 34.5t34.5 13.5t35 -13.5t14 -34.5q0 -20 -14.5 -33.5t-34.5 -13.5zM-19 592q-21 0 -34.5 13.5t-13.5 33.5q0 21 13.5 34.5t34.5 13.5q20 0 34 -13.5t14 -34.5q0 -20 -14 -33.5t-34 -13.5z" />
    <glyph glyph-name="uni030A" unicode="&#x30a;" 
d="M-77 556q-48 0 -77 27.5t-29 73.5t29 73.5t77 27.5t77.5 -28t29.5 -73t-29.5 -73t-77.5 -28zM-77 597q28 0 44.5 16.5t16.5 43.5t-17 43.5t-44 16.5t-44 -16.5t-17 -43.5t17 -43.5t44 -16.5z" />
    <glyph glyph-name="uni030B" unicode="&#x30b;" 
d="M-297 573l135 153h71l-146 -153h-60zM-160 573l136 153h71l-146 -153h-61z" />
    <glyph glyph-name="uni030C" unicode="&#x30c;" 
d="M47 725l-136 -154h-82l-73 154h62l56 -119l104 119h69z" />
    <glyph glyph-name="uni0312" unicode="&#x312;" 
d="M46 720l-61 -147h-67l66 147h62z" />
    <glyph glyph-name="uni0326" unicode="&#x326;" 
d="M-237 -201l60 147h68l-67 -147h-61z" />
    <glyph glyph-name="uni0327" unicode="&#x327;" 
d="M-217 -54q91 -5 91 -75q0 -43 -33 -65t-87 -22q-48 0 -81 16l17 42q31 -12 63 -12q30 0 49 11.5t19 31.5q0 38 -78 38h-31l47 94h54z" />
    <glyph glyph-name="uni0328" unicode="&#x328;" 
d="M-186 -211q-43 0 -68 20.5t-25 56.5q0 42 31.5 74.5t88.5 68.5l49 -9q-35 -24 -54.5 -39.5t-37 -39t-17.5 -45.5q0 -40 48 -40q19 0 42 7l-10 -49q-25 -5 -47 -5z" />
    <glyph glyph-name="uni0335" unicode="&#x335;" 
d="M-333 298l10 50h294l-9 -50h-295z" />
    <glyph glyph-name="uni0336" unicode="&#x336;" 
d="M-314 605l9 50h387l-10 -50h-386z" />
    <glyph glyph-name="uni0337" unicode="&#x337;" 
d="M-76 355l12 64l114 73l-12 -64zM-208 285l12 63l112 70l-12 -64z" />
    <glyph glyph-name="uni0338" unicode="&#x338;" 
d="M-542 0l104 100l324 324l4 3l57 56h61l-104 -100l-3 -1l-325 -326l-58 -56h-60z" />
    <glyph glyph-name="uni0394" unicode="&#x394;" horiz-adv-x="610" 
d="M451 706l102 -706h-592l383 706h107zM70 59h406l-83 593h-2z" />
    <glyph glyph-name="uni0394" unicode="&#x3b4;" horiz-adv-x="610" 
d="M451 706l102 -706h-592l383 706h107zM70 59h406l-83 593h-2z" />
    <glyph glyph-name="uni03A9" unicode="&#x3a9;" horiz-adv-x="693" 
d="M27 0l11 58h163l18 88q-131 54 -131 234q0 150 91 245.5t240 95.5q132 0 195.5 -67.5t63.5 -186.5q0 -120 -65.5 -210.5t-177.5 -120.5l-16 -78h163l-12 -58h-223l37 187q104 14 163 92t59 185q0 92 -46.5 145t-144.5 53q-118 0 -186.5 -79.5t-68.5 -203.5
q0 -78 29.5 -126t97.5 -66l-37 -187h-223z" />
    <glyph glyph-name="uni03A9" unicode="&#x3c9;" horiz-adv-x="693" 
d="M27 0l11 58h163l18 88q-131 54 -131 234q0 150 91 245.5t240 95.5q132 0 195.5 -67.5t63.5 -186.5q0 -120 -65.5 -210.5t-177.5 -120.5l-16 -78h163l-12 -58h-223l37 187q104 14 163 92t59 185q0 92 -46.5 145t-144.5 53q-118 0 -186.5 -79.5t-68.5 -203.5
q0 -78 29.5 -126t97.5 -66l-37 -187h-223z" />
    <glyph glyph-name="uni03BC" unicode="&#x3bc;" horiz-adv-x="554" 
d="M458 483h65l-96 -483h-65l13 65q-61 -76 -161 -76q-87 0 -114 58q-5 -51 -19 -119l-25 -129h-65l136 684h65l-56 -280q-7 -31 -7 -59q0 -50 25 -73t77 -23q67 0 111 39t60 113z" />
    <glyph glyph-name="pi" unicode="&#x3c0;" horiz-adv-x="662" 
d="M540 -7q-123 0 -123 105q0 29 7 58l53 271h-218l-86 -427h-65l85 427h-103l12 56h554l-11 -56h-102l-54 -274q-4 -20 -4 -38q0 -64 72 -64h13l-12 -58h-18z" />
    <glyph glyph-name="Wgrave" unicode="&#x1e80;" horiz-adv-x="882" 
d="M614 779h-68l-108 124h75zM893 706h72l-335 -706h-77l-44 609l-274 -609h-74l-59 706h67l47 -606l271 606h78l44 -603z" />
    <glyph glyph-name="wgrave" unicode="&#x1e81;" horiz-adv-x="729" 
d="M480 573h-60l-74 153h66zM684 483h75l-262 -483h-67l-39 394l-189 -394h-66l-69 483h68l46 -399l195 399h62l40 -397z" />
    <glyph glyph-name="Wacute" unicode="&#x1e82;" horiz-adv-x="882" 
d="M694 903l-146 -124h-80l140 124h86zM893 706h72l-335 -706h-77l-44 609l-274 -609h-74l-59 706h67l47 -606l271 606h78l44 -603z" />
    <glyph glyph-name="wacute" unicode="&#x1e83;" horiz-adv-x="729" 
d="M554 726l-126 -153h-69l120 153h75zM684 483h75l-262 -483h-67l-39 394l-189 -394h-66l-69 483h68l46 -399l195 399h62l40 -397z" />
    <glyph glyph-name="Wdieresis" unicode="&#x1e84;" horiz-adv-x="882" 
d="M449 805q-21 0 -34 13t-13 33q0 21 13 34.5t34 13.5q20 0 34 -13.5t14 -34.5q0 -20 -14 -33t-34 -13zM654 805q-21 0 -34.5 13t-13.5 33q0 21 13.5 34.5t34.5 13.5q20 0 33.5 -13.5t13.5 -34.5q0 -20 -13.5 -33t-33.5 -13zM893 706h72l-335 -706h-77l-44 609l-274 -609
h-74l-59 706h67l47 -606l271 606h78l44 -603z" />
    <glyph glyph-name="wdieresis" unicode="&#x1e85;" horiz-adv-x="729" 
d="M341 592q-21 0 -34.5 13.5t-13.5 33.5q0 21 13.5 34.5t34.5 13.5t35 -13.5t14 -34.5q0 -20 -14.5 -33.5t-34.5 -13.5zM525 592q-21 0 -34.5 13.5t-13.5 33.5q0 21 13.5 34.5t34.5 13.5q20 0 34 -13.5t14 -34.5q0 -20 -14 -33.5t-34 -13.5zM684 483h75l-262 -483h-67
l-39 394l-189 -394h-66l-69 483h68l46 -399l195 399h62l40 -397z" />
    <glyph glyph-name="uni1E9E" unicode="&#x1e9e;" horiz-adv-x="649" 
d="M662 706l-1 -4l-220 -296q78 -15 116.5 -61.5t38.5 -117.5q0 -106 -78 -168t-205 -62q-63 0 -103 8l13 64q35 -8 93 -8q98 0 153 45t55 125q0 127 -165 127q-17 0 -29 -2l1 2l210 286h-295l-129 -644h-71l141 706h475z" />
    <glyph glyph-name="Ygrave" unicode="&#x1ef2;" horiz-adv-x="549" 
d="M449 779h-68l-108 124h75zM192 0l61 305l-151 401h72l125 -332l250 332h84l-310 -401l-61 -305h-70z" />
    <glyph glyph-name="ygrave" unicode="&#x1ef3;" horiz-adv-x="496" 
d="M365 573h-60l-74 153h66zM450 483h76l-426 -684h-73l126 203l-86 481h67l69 -407z" />
    <glyph glyph-name="uni2009" unicode="&#x2009;" horiz-adv-x="72" 
 />
    <glyph glyph-name="uni2011" unicode="&#x2011;" horiz-adv-x="600" 
d="M55 251l13 61h273l-13 -61h-273z" />
    <glyph glyph-name="endash" unicode="&#x2013;" horiz-adv-x="491" 
d="M55 252l12 60h384l-12 -60h-384z" />
    <glyph glyph-name="emdash" unicode="&#x2014;" horiz-adv-x="960" 
d="M55 252l12 60h853l-12 -60h-853z" />
    <glyph glyph-name="quoteleft" unicode="&#x2018;" horiz-adv-x="227" 
d="M275 706l-120 -281h-74l137 281h57z" />
    <glyph glyph-name="quoteright" unicode="&#x2019;" horiz-adv-x="227" 
d="M81 425l121 281h73l-137 -281h-57z" />
    <glyph glyph-name="quotesinglbase" unicode="&#x201a;" horiz-adv-x="227" 
d="M-31 -135l121 281h73l-137 -281h-57z" />
    <glyph glyph-name="quotedblleft" unicode="&#x201c;" horiz-adv-x="392" 
d="M275 706l-121 -281h-73l137 281h57zM440 706l-121 -281h-73l137 281h57z" />
    <glyph glyph-name="quotedblright" unicode="&#x201d;" horiz-adv-x="392" 
d="M81 425l121 281h73l-137 -281h-57zM246 425l121 281h73l-137 -281h-57z" />
    <glyph glyph-name="quotedblbase" unicode="&#x201e;" horiz-adv-x="392" 
d="M-31 -135l121 281h73l-137 -281h-57zM134 -135l121 281h73l-137 -281h-57z" />
    <glyph glyph-name="dagger" unicode="&#x2020;" horiz-adv-x="381" 
d="M416 537l-12 -61h-132l-95 -476h-68l95 476h-132l12 61h132l34 169h68l-34 -169h132z" />
    <glyph glyph-name="daggerdbl" unicode="&#x2021;" horiz-adv-x="381" 
d="M404 481h-131l-51 -256h131l-12 -60h-131l-33 -165h-68l33 165h-133l12 60h133l51 256h-133l12 61h133l33 164h68l-33 -164h131z" />
    <glyph glyph-name="bullet" unicode="&#x2022;" horiz-adv-x="418" 
d="M234 264q-46 0 -74.5 28.5t-28.5 75.5q0 48 28 75t75 27t75 -27t28 -75q0 -46 -28.5 -75t-74.5 -29z" />
    <glyph glyph-name="ellipsis" unicode="&#x2026;" horiz-adv-x="676" 
d="M91 -13q-23 0 -37 14t-14 36q0 23 14 37.5t37 14.5q22 0 36.5 -14.5t14.5 -37.5q0 -22 -14.5 -36t-36.5 -14zM297 -13q-23 0 -37 14t-14 36q0 23 14 37.5t37 14.5q22 0 36.5 -14.5t14.5 -37.5q0 -22 -14.5 -36t-36.5 -14zM503 -13q-23 0 -37 13.5t-14 36.5t14 37.5
t37 14.5q21 0 36 -14.5t15 -37.5q0 -22 -15 -36t-36 -14z" />
    <glyph glyph-name="perthousand" unicode="&#x2030;" horiz-adv-x="1104" 
d="M228 407q-60 0 -88 35.5t-28 94.5q0 75 40.5 125t110.5 50q116 0 116 -130q0 -75 -40.5 -125t-110.5 -50zM51 0l619 706h65l-619 -706h-65zM231 453q49 0 73.5 37t24.5 93q0 84 -69 84q-49 0 -73.5 -37.5t-24.5 -94.5q0 -82 69 -82zM524 -6q-60 0 -88.5 35t-28.5 94
q0 76 41 126t111 50q116 0 116 -130q0 -75 -40.5 -125t-110.5 -50zM886 -6q-60 0 -88.5 35t-28.5 94q0 76 41 126t111 50q116 0 116 -130q0 -75 -40.5 -125t-110.5 -50zM526 40q50 0 74.5 37t24.5 92q0 84 -69 84q-49 0 -74 -37.5t-25 -93.5q0 -82 69 -82zM888 40
q50 0 74.5 37t24.5 92q0 84 -69 84q-49 0 -74 -37.5t-25 -93.5q0 -82 69 -82z" />
    <glyph glyph-name="guilsinglleft" unicode="&#x2039;" horiz-adv-x="272" 
d="M150 118l-121 161l184 159h80l-190 -165l117 -155h-70z" />
    <glyph glyph-name="guilsinglright" unicode="&#x203a;" horiz-adv-x="272" 
d="M136 438l121 -161l-184 -159h-80l190 165l-117 155h70z" />
    <glyph glyph-name="fraction" unicode="&#x2044;" horiz-adv-x="188" 
d="M-191 0l554 706h61l-554 -706h-61z" />
    <glyph glyph-name="uni2070" unicode="&#x2070;" horiz-adv-x="424" 
d="M265 430q-71 0 -104.5 42.5t-33.5 114.5q0 31 7 70q16 80 62 128.5t120 48.5q72 0 105.5 -42.5t33.5 -114.5q0 -31 -7 -70q-14 -79 -61.5 -128t-121.5 -49zM268 479q50 0 81 37.5t43 98.5q6 30 6 62q0 108 -84 108q-51 0 -82 -37.5t-43 -98.5q-6 -30 -6 -62
q0 -108 85 -108z" />
    <glyph glyph-name="uni2074" unicode="&#x2074;" horiz-adv-x="362" 
d="M274 438l20 99h-231v2l240 287h104l-48 -241h57l-10 -48h-57l-20 -99h-55zM165 585h138l44 221z" />
    <glyph glyph-name="uni2075" unicode="&#x2075;" horiz-adv-x="368" 
d="M234 430q-134 0 -134 107q0 10 2 22h53q-1 -8 -1 -18q0 -65 82 -65q47 0 74.5 25t27.5 65q0 84 -114 84q-47 0 -90 -13l70 189h219l-16 -45h-166l-35 -93q22 4 41 4q74 0 110.5 -33t36.5 -89q0 -63 -44.5 -101.5t-115.5 -38.5z" />
    <glyph glyph-name="uni2076" unicode="&#x2076;" horiz-adv-x="410" 
d="M300 691q63 0 96.5 -33t33.5 -83q0 -63 -47 -104t-117 -41q-149 0 -149 153q0 107 54.5 179t147.5 72q61 0 94.5 -30t37.5 -83h-55q-6 69 -84 69q-56 0 -91 -42t-45 -109q45 52 124 52zM266 475q51 0 78.5 28t27.5 70q0 74 -87 74q-49 0 -79 -29t-30 -66q0 -35 23.5 -56
t66.5 -21z" />
    <glyph glyph-name="uni2077" unicode="&#x2077;" horiz-adv-x="323" 
d="M101 438l220 338h-186l10 50h276l-253 -388h-67z" />
    <glyph glyph-name="uni2078" unicode="&#x2078;" horiz-adv-x="385" 
d="M435 738q0 -34 -23.5 -61t-66.5 -36q62 -22 62 -90q0 -57 -45 -89t-115 -32q-71 0 -109 29.5t-38 81.5q0 42 27.5 70.5t75.5 36.5q-54 21 -54 81q0 49 41.5 77t104.5 28q68 0 104 -25t36 -71zM288 666q42 0 67.5 18t25.5 51q0 59 -89 59q-41 0 -65 -17.5t-24 -51.5
q0 -59 85 -59zM251 475q46 0 74 21t28 58q0 30 -23.5 48t-70.5 18q-45 0 -73.5 -21t-28.5 -56q0 -32 24.5 -50t69.5 -18z" />
    <glyph glyph-name="uni2079" unicode="&#x2079;" horiz-adv-x="410" 
d="M320 834q149 0 149 -153q0 -107 -54.5 -179t-147.5 -72q-61 0 -94.5 30t-37.5 83h55q6 -69 84 -69q56 0 91 42t45 109q-46 -52 -124 -52q-63 0 -96.5 33t-33.5 83q0 63 47 104t117 41zM301 617q49 0 79 29t30 66q0 35 -23.5 56t-66.5 21q-51 0 -78.5 -28t-27.5 -70
q0 -74 87 -74z" />
    <glyph glyph-name="uni207A" unicode="&#x207a;" horiz-adv-x="345" 
d="M396 658l-9 -45h-118l-23 -115h-44l23 115h-118l9 45h118l23 116h44l-23 -116h118z" />
    <glyph glyph-name="uni207B" unicode="&#x207b;" horiz-adv-x="345" 
d="M107 613l9 45h280l-9 -45h-280z" />
    <glyph glyph-name="uni207C" unicode="&#x207c;" horiz-adv-x="345" 
d="M118 670l9 40h279l-9 -40h-279zM96 561l9 42h279l-9 -42h-279z" />
    <glyph glyph-name="uni207D" unicode="&#x207d;" horiz-adv-x="243" 
d="M185 364q-36 95 -36 187q0 184 141 349h55q-149 -168 -149 -352q0 -93 35 -184h-46z" />
    <glyph glyph-name="uni207E" unicode="&#x207e;" horiz-adv-x="243" 
d="M214 900q36 -95 36 -187q0 -183 -140 -349h-55q149 168 149 353q0 94 -36 183h46z" />
    <glyph glyph-name="uni207F" unicode="&#x207f;" horiz-adv-x="374" 
d="M295 738q97 0 97 -100q0 -16 -5 -43l-30 -157h-52l30 155q5 23 5 36q0 62 -63 62q-75 0 -92 -82l-34 -171h-52l59 292h48l-7 -34q37 42 96 42z" />
    <glyph glyph-name="uni2080" unicode="&#x2080;" horiz-adv-x="424" 
d="M153 -128q-71 0 -104.5 42.5t-33.5 114.5q0 31 7 70q16 80 62 128.5t120 48.5q72 0 105.5 -42.5t33.5 -114.5q0 -31 -7 -70q-14 -79 -61.5 -128t-121.5 -49zM156 -79q50 0 81 37.5t43 98.5q6 30 6 62q0 108 -84 108q-51 0 -82 -37.5t-43 -98.5q-6 -30 -6 -62
q0 -108 85 -108z" />
    <glyph glyph-name="uni2081" unicode="&#x2081;" horiz-adv-x="256" 
d="M36 -120l67 337h-81l19 51h130l-78 -388h-57z" />
    <glyph glyph-name="uni2082" unicode="&#x2082;" horiz-adv-x="343" 
d="M-50 -120l1 3l200 167q47 39 66 63.5t19 57.5q0 60 -71 60q-82 0 -100 -90h-54q12 64 50.5 100.5t103.5 36.5q63 0 94.5 -27.5t31.5 -77.5q0 -41 -21 -71.5t-64 -64.5l-128 -105h167l-10 -52h-285z" />
    <glyph glyph-name="uni2083" unicode="&#x2083;" horiz-adv-x="369" 
d="M307 179q0 -75 -85 -97q58 -20 58 -85q0 -59 -43.5 -93t-113.5 -34q-138 0 -138 116q0 16 3 34h51q-3 -14 -3 -27q0 -77 87 -77q47 0 74.5 22.5t27.5 60.5q0 63 -90 63h-12l9 43h21q98 0 98 69q0 58 -74 58q-45 0 -70.5 -24t-32.5 -61h-52q11 59 53 95t111 36
q59 0 90 -27t31 -72z" />
    <glyph glyph-name="uni2084" unicode="&#x2084;" horiz-adv-x="362" 
d="M162 -120l20 99h-231v2l240 287h104l-48 -241h57l-10 -48h-57l-20 -99h-55zM53 27h138l44 221z" />
    <glyph glyph-name="uni2085" unicode="&#x2085;" horiz-adv-x="368" 
d="M122 -128q-134 0 -134 107q0 10 2 22h53q-1 -8 -1 -18q0 -65 82 -65q48 0 75 24.5t27 65.5q0 84 -114 84q-47 0 -90 -13l70 189h219l-16 -45h-166l-35 -93q22 4 41 4q74 0 110.5 -33t36.5 -89q0 -63 -44.5 -101.5t-115.5 -38.5z" />
    <glyph glyph-name="uni2086" unicode="&#x2086;" horiz-adv-x="410" 
d="M188 133q63 0 96.5 -33t33.5 -83q0 -63 -47 -104t-117 -41q-149 0 -149 153q0 107 54.5 179t147.5 72q61 0 94.5 -30t37.5 -83h-55q-6 69 -84 69q-56 0 -91 -42t-45 -109q46 52 124 52zM154 -83q51 0 78.5 28t27.5 70q0 74 -87 74q-49 0 -79 -29t-30 -66q0 -35 23.5 -56
t66.5 -21z" />
    <glyph glyph-name="uni2087" unicode="&#x2087;" horiz-adv-x="323" 
d="M-11 -120l220 338h-186l10 50h276l-253 -388h-67z" />
    <glyph glyph-name="uni2088" unicode="&#x2088;" horiz-adv-x="385" 
d="M323 180q0 -34 -23.5 -61t-66.5 -36q62 -22 62 -90q0 -57 -45 -89t-115 -32q-71 0 -109 29.5t-38 81.5q0 42 27.5 70.5t75.5 36.5q-54 21 -54 81q0 49 41.5 77t104.5 28q68 0 104 -25t36 -71zM176 108q42 0 67.5 18t25.5 51q0 59 -89 59q-41 0 -65 -17.5t-24 -51.5
q0 -59 85 -59zM139 -83q46 0 74 21t28 58q0 30 -23.5 48t-70.5 18q-45 0 -73.5 -21t-28.5 -56q0 -32 24.5 -50t69.5 -18z" />
    <glyph glyph-name="uni2089" unicode="&#x2089;" horiz-adv-x="411" 
d="M208 276q150 0 150 -153q0 -107 -54.5 -179t-147.5 -72q-61 0 -94.5 30t-37.5 83h55q6 -69 84 -69q56 0 91 42t45 109q-45 -52 -124 -52q-63 0 -96.5 33t-33.5 83q0 63 47 104t116 41zM190 59q49 0 79 29t30 66q0 35 -23.5 56t-67.5 21q-51 0 -78 -28t-27 -70
q0 -74 87 -74z" />
    <glyph glyph-name="uni208A" unicode="&#x208a;" horiz-adv-x="345" 
d="M284 100l-9 -45h-118l-23 -115h-44l23 115h-118l9 45h118l23 116h44l-23 -116h118z" />
    <glyph glyph-name="uni208B" unicode="&#x208b;" horiz-adv-x="345" 
d="M-5 55l9 45h280l-9 -45h-280z" />
    <glyph glyph-name="uni208C" unicode="&#x208c;" horiz-adv-x="344" 
d="M6 112l9 40h279l-9 -40h-279zM-16 3l9 42h279l-9 -42h-279z" />
    <glyph glyph-name="uni208D" unicode="&#x208d;" horiz-adv-x="243" 
d="M73 -194q-36 95 -36 187q0 184 141 349h55q-149 -168 -149 -352q0 -93 35 -184h-46z" />
    <glyph glyph-name="uni208E" unicode="&#x208e;" horiz-adv-x="242" 
d="M102 342q36 -95 36 -187q0 -183 -140 -349h-55q149 168 149 353q0 94 -36 183h46z" />
    <glyph glyph-name="uni2099" unicode="&#x2099;" horiz-adv-x="374" 
d="M176 149q98 0 98 -99q0 -16 -5 -44l-31 -156h-51l30 155q5 23 5 36q0 61 -63 61q-76 0 -92 -82l-34 -170h-52l59 292h48l-7 -34q37 41 95 41z" />
    <glyph glyph-name="Euro" unicode="&#x20ac;" horiz-adv-x="729" 
d="M720 456h-69q1 8 1 20q0 85 -49.5 134t-135.5 49q-95 0 -162 -58.5t-100 -154.5h284l-9 -47h-288q-10 -42 -13 -92h283l-10 -47h-274q8 -213 191 -213q92 0 154 51.5t86 139.5h72q-26 -120 -111.5 -186.5t-205.5 -66.5q-129 0 -191.5 73.5t-66.5 201.5h-61l10 47h52
q2 47 12 92h-46l10 47h48q39 124 127 199.5t214 75.5q116 0 182.5 -66t66.5 -178q0 -12 -1 -21z" />
    <glyph glyph-name="uni20B9" unicode="&#x20b9;" horiz-adv-x="646" 
d="M715 706l-9 -48h-190q49 -41 51 -130h114l-9 -47h-108q-11 -85 -73.5 -130.5t-168.5 -45.5h-59l233 -305h-80l-269 356h163q163 0 185 125h-371l9 47h366q-1 61 -31 92t-97 31h-213l10 55h547z" />
    <glyph glyph-name="uni20BA" unicode="&#x20ba;" horiz-adv-x="568" 
d="M489 300h67q-31 -152 -107 -226t-234 -74h-147l49 243l-82 -34l11 53l81 33l21 105l-81 -34l10 52l81 34l51 254h70l-45 -226l212 90l-10 -52l-213 -90l-20 -104l212 89l-11 -52l-212 -89l-42 -211h63q130 0 190.5 58.5t85.5 180.5z" />
    <glyph glyph-name="uni20BC" unicode="&#x20bc;" horiz-adv-x="799" 
d="M515 632q262 -9 207 -297l-65 -335h-69l66 342q11 44 8.5 85t-15 73t-49.5 52t-95 21l-114 -573h-71l114 573h-2q-59 0 -103.5 -18t-72 -51.5t-43.5 -72t-25 -87.5l-67 -344h-71l68 346q12 63 33.5 111.5t57.5 89.5t94 63t134 22h9l15 74h71z" />
    <glyph glyph-name="uni2113" unicode="&#x2113;" horiz-adv-x="399" 
d="M301 712q60 0 88 -33t28 -109q0 -51 -12 -108q-46 -229 -277 -274q-3 -20 -3 -35q0 -54 25 -78t75 -24q44 0 87 17l-12 -61q-39 -13 -83 -13q-157 0 -157 157q0 8 2 28q-40 -2 -61 -2l10 51q31 0 58 3q0 1 0.5 3t0.5 3l54 264q23 113 65 162t112 49zM340 465
q12 53 12 103q0 51 -13.5 71.5t-41.5 20.5q-40 0 -65 -34t-42 -118l-52 -266q167 43 202 223z" />
    <glyph glyph-name="uni2117" unicode="&#x2117;" horiz-adv-x="813" 
d="M392 -15q-150 0 -234.5 86.5t-84.5 231.5q0 172 113 295t280 123q150 0 234 -86t84 -230q0 -175 -112 -297.5t-280 -122.5zM394 28q150 0 247.5 110t97.5 266q0 126 -72 200t-201 74q-151 0 -249 -109.5t-98 -264.5q0 -127 72.5 -201.5t202.5 -74.5zM266 119l94 471h123
q132 0 132 -117q0 -69 -42 -108.5t-116 -39.5h-94l-40 -206h-57zM372 371h79q52 0 78.5 26t26.5 72q0 75 -79 75h-70z" />
    <glyph glyph-name="trademark" unicode="&#x2122;" horiz-adv-x="637" 
d="M121 396l54 268h-79l8 42h207l-9 -42h-78l-54 -268h-49zM283 396l62 310h57l54 -246l152 246h65l-62 -310h-47l49 242l-152 -242h-30l-54 242l-48 -242h-46z" />
    <glyph glyph-name="uni2126" unicode="&#x2126;" horiz-adv-x="693" 
d="M27 0l11 58h163l18 88q-131 54 -131 234q0 150 91 245.5t240 95.5q132 0 195.5 -67.5t63.5 -186.5q0 -120 -65.5 -210.5t-177.5 -120.5l-16 -78h163l-12 -58h-223l37 187q104 14 163 92t59 185q0 92 -46.5 145t-144.5 53q-118 0 -186.5 -79.5t-68.5 -203.5
q0 -78 29.5 -126t97.5 -66l-37 -187h-223z" />
    <glyph glyph-name="estimated" unicode="&#x212e;" horiz-adv-x="850" 
d="M427 -11q-100 0 -186 42.5t-139.5 121.5t-53.5 177q0 145 110.5 243t268.5 98q156 0 267 -99.5t111 -247.5h-608q-10 0 -10 -11v-197q47 -51 110 -78.5t130 -27.5q73 0 139 32.5t113 88.5h57q-56 -68 -138 -105t-171 -37zM197 347h461q9 0 9 11v184q-44 51 -108 79.5
t-132 28.5q-70 0 -133 -28.5t-107 -78.5v-185q0 -11 10 -11z" />
    <glyph glyph-name="partialdiff" unicode="&#x2202;" horiz-adv-x="608" 
d="M375 721q217 0 217 -264q0 -127 -37.5 -232.5t-115 -172.5t-181.5 -67q-110 0 -166 57.5t-56 150.5q0 111 74 186t187 75q90 0 141 -45.5t60 -121.5q26 96 26 168q0 207 -151 207q-74 0 -119 -42t-65 -105h-69q28 91 92 148.5t163 57.5zM260 44q87 0 145 58.5t58 139.5
q0 71 -40.5 114t-119.5 43q-87 0 -140 -59t-53 -147q0 -68 37.5 -108.5t112.5 -40.5z" />
    <glyph glyph-name="uni2206" unicode="&#x2206;" horiz-adv-x="610" 
d="M451 706l102 -706h-592l383 706h107zM70 59h406l-83 593h-2z" />
    <glyph glyph-name="product" unicode="&#x220f;" horiz-adv-x="676" 
d="M6 -201l181 907h487l-181 -907h-72l170 844h-344l-169 -844h-72z" />
    <glyph glyph-name="summation" unicode="&#x2211;" horiz-adv-x="507" 
d="M-62 -201l339 463l-149 444h434l-12 -62h-328l132 -394l-287 -389h337l-12 -62h-454z" />
    <glyph glyph-name="minus" unicode="&#x2212;" horiz-adv-x="572" 
d="M55 253l12 57h465l-11 -57h-466z" />
    <glyph glyph-name="uni2215" unicode="&#x2215;" horiz-adv-x="572" 
d="M72 0l416 706h69l-416 -706h-69z" />
    <glyph glyph-name="uni2219" unicode="&#x2219;" horiz-adv-x="572" 
d="M312 321q-23 0 -37 13.5t-14 36.5t14 37.5t37 14.5q21 0 36 -14.5t15 -37.5q0 -22 -15 -36t-36 -14z" />
    <glyph glyph-name="radical" unicode="&#x221a;" horiz-adv-x="610" 
d="M616 706h78l-457 -913h-74l-73 428l-90 -31l13 68l136 42l63 -419z" />
    <glyph glyph-name="infinity" unicode="&#x221e;" horiz-adv-x="830" 
d="M640 448q74 0 110.5 -49t36.5 -127q0 -96 -56 -165.5t-145 -69.5q-69 0 -110 39.5t-70 110.5q-53 -73 -101.5 -111.5t-113.5 -38.5q-74 0 -111 49t-37 127q0 96 56 165.5t145 69.5q69 0 109 -39.5t70 -112.5q51 73 101 112.5t116 39.5zM200 96q37 0 72 23.5t56.5 50.5
t55.5 77q-24 67 -55 104t-84 37q-64 0 -102 -51t-38 -120q0 -54 24 -87.5t71 -33.5zM585 96q63 0 102 52t39 119q0 54 -24 87.5t-72 33.5q-54 0 -94 -38t-88 -113q24 -67 54 -104t83 -37z" />
    <glyph glyph-name="integral" unicode="&#x222b;" horiz-adv-x="340" 
d="M-31 -205q-31 0 -57 5l22 59q13 -2 29 -2q38 0 59.5 18t32.5 58l181 657q17 62 52 90.5t95 28.5q25 0 50 -4l-23 -60q-11 3 -23 3q-69 0 -91 -79l-181 -656q-17 -61 -51.5 -89.5t-94.5 -28.5z" />
    <glyph glyph-name="approxequal" unicode="&#x2248;" horiz-adv-x="572" 
d="M396 308q-23 0 -43 8t-28 14.5t-24 20.5q-15 13 -23 19t-21.5 11t-28.5 5q-57 0 -81 -71h-52q36 123 134 123q22 0 40.5 -6.5t29 -14t25.5 -21.5q36 -36 72 -36q58 0 80 70h52q-19 -60 -50.5 -91t-81.5 -31zM359 125q-23 0 -43 8.5t-27 14t-25 20.5q-21 19 -35.5 26.5
t-36.5 7.5q-57 0 -82 -71h-51q34 123 133 123q32 0 52.5 -10.5t43.5 -31.5q13 -12 20.5 -18t21.5 -11.5t30 -5.5q57 0 79 70h52q-36 -122 -132 -122z" />
    <glyph glyph-name="notequal" unicode="&#x2260;" horiz-adv-x="572" 
d="M541 351h-160l-123 -140h255l-12 -56h-287l-106 -120h-58l105 120h-119l12 56h152l123 140h-248l12 57h280l106 120h58l-105 -120h126z" />
    <glyph glyph-name="lessequal" unicode="&#x2264;" horiz-adv-x="572" 
d="M577 534l-12 -61l-452 -139l396 -139l-12 -61l-433 157l6 30l11 55zM11 29l12 57h465l-12 -57h-465z" />
    <glyph glyph-name="greaterequal" unicode="&#x2265;" horiz-adv-x="572" 
d="M545 376l-11 -55l-6 -30l-496 -157l12 61l453 139l-397 139l12 61zM11 29l11 57h465l-11 -57h-465z" />
    <glyph glyph-name="lozenge" unicode="&#x25ca;" horiz-adv-x="494" 
d="M378 706l94 -453l-275 -454h-77l-93 454l274 453h77zM167 -136l238 399l-75 377l-236 -398z" />
    <glyph glyph-name="uniFB00" unicode="&#xfb00;" horiz-adv-x="650" 
d="M53 0l85 427h-78l11 56h79l20 98q27 134 166 134q31 0 59 -5l-12 -57q-20 5 -44 5q-89 0 -107 -93l-16 -82h131l-11 -56h-132l-85 -427h-66zM379 0l85 427h-78l11 56h79l20 98q27 134 166 134q31 0 59 -5l-12 -57q-20 5 -44 5q-89 0 -107 -93l-16 -82h131l-11 -56h-132
l-85 -427h-66z" />
    <glyph glyph-name="fi" unicode="&#xfb01;" horiz-adv-x="547" 
d="M53 0l85 427h-78l11 56h79l20 98q27 134 166 134q31 0 59 -5l-12 -57q-20 5 -44 5q-89 0 -107 -93l-16 -82h131l-11 -56h-132l-85 -427h-66zM519 600q-22 0 -36 13.5t-14 34.5t14 35t36 14q20 0 34.5 -14t14.5 -35t-14 -34.5t-35 -13.5zM355 0l96 483h66l-97 -483h-65z
" />
    <glyph glyph-name="fl" unicode="&#xfb02;" horiz-adv-x="547" 
d="M53 0l85 427h-78l11 56h79l20 98q27 134 166 134q31 0 59 -5l-12 -57q-20 5 -44 5q-89 0 -107 -93l-16 -82h131l-11 -56h-132l-85 -427h-66zM355 0l141 706h65l-141 -706h-65z" />
    <glyph glyph-name="uniFB03" unicode="&#xfb03;" horiz-adv-x="873" 
d="M53 0l85 427h-78l11 56h79l20 98q27 134 166 134q31 0 59 -5l-12 -57q-20 5 -44 5q-89 0 -107 -93l-16 -82h131l-11 -56h-132l-85 -427h-66zM379 0l85 427h-78l11 56h79l20 98q27 134 166 134q31 0 59 -5l-12 -57q-20 5 -44 5q-89 0 -107 -93l-16 -82h131l-11 -56h-132
l-85 -427h-66zM844 600q-22 0 -35.5 13.5t-13.5 34.5t13.5 35t35.5 14q20 0 34.5 -14t14.5 -35t-14 -34.5t-35 -13.5zM681 0l96 483h66l-97 -483h-65z" />
    <glyph glyph-name="uniFB04" unicode="&#xfb04;" horiz-adv-x="873" 
d="M53 0l85 427h-78l11 56h79l20 98q27 134 166 134q31 0 59 -5l-12 -57q-20 5 -44 5q-89 0 -107 -93l-16 -82h131l-11 -56h-132l-85 -427h-66zM379 0l85 427h-78l11 56h79l20 98q27 134 166 134q31 0 59 -5l-12 -57q-20 5 -44 5q-89 0 -107 -93l-16 -82h131l-11 -56h-132
l-85 -427h-66zM681 0l141 706h65l-141 -706h-65z" />
    <glyph glyph-name="uniFEFF" unicode="&#xfeff;" 
 />
    <glyph glyph-name="uni00A40301" horiz-adv-x="347" 
d="M268 779l140 124h86l-146 -124h-80zM38 -3q-38 0 -67 5l13 65q21 -4 51 -4q70 0 107 34t53 114l99 495h70l-102 -516q-20 -100 -73.5 -146.5t-150.5 -46.5z" />
    <glyph glyph-name="M.ss01" horiz-adv-x="784" 
d="M46 0l141 706h85l142 -328l272 328h96l-141 -706h-68l124 623l-280 -338h-32l-146 338l-125 -623h-68z" />
    <glyph glyph-name="Q.ss02" horiz-adv-x="718" 
d="M693 438q0 -155 -66.5 -274.5t-185.5 -160.5l45 -139l-66 -23l-44 147q-22 -3 -47 -3q-132 0 -195.5 78t-63.5 206q0 122 41.5 223.5t125.5 165t196 63.5q133 0 196.5 -77.5t63.5 -205.5zM338 47q88 0 154 57.5t97.5 145.5t31.5 192q0 99 -47.5 158t-148.5 59
q-88 0 -154 -57t-97.5 -145t-31.5 -191q0 -100 47 -159.5t149 -59.5z" />
    <glyph glyph-name="Oslash.ss04" horiz-adv-x="718" 
d="M775 715l-117 -115q35 -67 35 -162q0 -123 -41.5 -224.5t-125.5 -165t-197 -63.5q-127 0 -192 75l-114 -114l-46 45l124 122q-31 65 -31 156q0 122 41.5 223.5t125.5 165t196 63.5q122 0 189 -69l108 108zM338 47q88 0 154 57.5t97.5 145.5t31.5 192q0 99 -47.5 158
t-148.5 59q-88 0 -154 -57t-97.5 -145t-31.5 -191q0 -100 47 -159.5t149 -59.5z" />
    <glyph glyph-name="i.loclTRK" horiz-adv-x="224" 
d="M194 600q-22 0 -35.5 13.5t-13.5 34.5t13.5 35t35.5 14q20 0 34.5 -14t14.5 -35t-14 -34.5t-35 -13.5zM31 0l96 483h66l-97 -483h-65z" />
    <glyph glyph-name="uni006A0301" horiz-adv-x="224" 
d="M133 573l103 153h74l-111 -153h-66zM-64 -204q-25 0 -46 4l12 58q11 -2 28 -2q39 0 59.5 18t28.5 61l109 548h66l-113 -568q-13 -63 -47 -91t-97 -28z" />
    <glyph glyph-name="oslash.ss04" horiz-adv-x="538" 
d="M537 491l-72 -80q30 -51 30 -128q0 -125 -70 -209.5t-189 -84.5q-80 0 -129 41l-63 -73l-45 38l72 78q-29 51 -29 123q0 126 72 212.5t187 86.5q76 0 126 -39l65 73zM239 48q90 0 139 70t49 167q0 150 -129 150q-88 0 -138 -72.5t-50 -166.5q0 -148 129 -148z" />
    <glyph glyph-name="f_i" horiz-adv-x="547" 
d="M53 0l85 427h-78l11 56h79l20 98q27 134 166 134q31 0 59 -5l-12 -57q-20 5 -44 5q-89 0 -107 -93l-16 -82h131l-11 -56h-132l-85 -427h-66zM519 600q-22 0 -36 13.5t-14 34.5t14 35t36 14q20 0 34.5 -14t14.5 -35t-14 -34.5t-35 -13.5zM355 0l96 483h66l-97 -483h-65z
" />
    <glyph glyph-name="f_l" horiz-adv-x="547" 
d="M53 0l85 427h-78l11 56h79l20 98q27 134 166 134q31 0 59 -5l-12 -57q-20 5 -44 5q-89 0 -107 -93l-16 -82h131l-11 -56h-132l-85 -427h-66zM355 0l141 706h65l-141 -706h-65z" />
    <glyph glyph-name="a.sc" horiz-adv-x="532" 
d="M406 0l-22 148h-267l-81 -148h-75l320 581h105l88 -581h-68zM149 206h227l-48 322h-2z" />
    <glyph glyph-name="aacute.sc" horiz-adv-x="532" 
d="M482 824l-126 -153h-69l120 153h75zM281 581h105l88 -581h-68l-22 148h-267l-81 -148h-75zM149 206h227l-48 322h-2z" />
    <glyph glyph-name="abreve.sc" horiz-adv-x="532" 
d="M352 668q-64 0 -93.5 30t-29.5 90q0 16 3 36h53q-3 -20 -3 -38q0 -37 17 -55t55 -18q47 0 73 26.5t41 84.5h55q-19 -79 -59 -117.5t-112 -38.5zM281 581h105l88 -581h-68l-22 148h-267l-81 -148h-75zM149 206h227l-48 322h-2z" />
    <glyph glyph-name="acircumflex.sc" horiz-adv-x="532" 
d="M374 790l-104 -120h-68l135 154h82l73 -154h-62zM281 581h105l88 -581h-68l-22 148h-267l-81 -148h-75zM149 206h227l-48 322h-2z" />
    <glyph glyph-name="adieresis.sc" horiz-adv-x="532" 
d="M269 690q-21 0 -34.5 13.5t-13.5 33.5q0 21 13.5 34.5t34.5 13.5t35 -13.5t14 -34.5q0 -20 -14.5 -33.5t-34.5 -13.5zM453 785q20 0 34 -13.5t14 -34.5q0 -20 -14 -33.5t-34 -13.5q-21 0 -34.5 13.5t-13.5 33.5q0 21 13.5 34.5t34.5 13.5zM281 581h105l88 -581h-68
l-22 148h-267l-81 -148h-75zM149 206h227l-48 322h-2z" />
    <glyph glyph-name="agrave.sc" horiz-adv-x="532" 
d="M408 671h-60l-74 153h66zM406 0l-22 148h-267l-81 -148h-75l320 581h105l88 -581h-68zM149 206h227l-48 322h-2z" />
    <glyph glyph-name="amacron.sc" horiz-adv-x="532" 
d="M227 761h276l-9 -50h-277zM281 581h105l88 -581h-68l-22 148h-267l-81 -148h-75zM149 206h227l-48 322h-2z" />
    <glyph glyph-name="aogonek.sc" horiz-adv-x="532" 
d="M365 -124q0 -40 48 -40q19 0 42 7l-10 -49q-25 -5 -47 -5q-43 0 -68 20.5t-25 56.5q0 39 28 70t78 64h-5l-22 148h-267l-81 -148h-75l320 581h105l88 -581q-35 -24 -54.5 -39.5t-37 -39t-17.5 -45.5zM149 206h227l-48 322h-2z" />
    <glyph glyph-name="aring.sc" horiz-adv-x="532" 
d="M358 654q-48 0 -77 27.5t-29 73.5t29 73.5t77 27.5t77.5 -28t29.5 -73t-29.5 -73t-77.5 -28zM358 815q-27 0 -44 -16.5t-17 -43.5t17 -43.5t44 -16.5q28 0 44.5 16.5t16.5 43.5t-17 43.5t-44 16.5zM406 0l-22 148h-267l-81 -148h-75l320 581h105l88 -581h-68zM149 206
h227l-48 322h-2z" />
    <glyph glyph-name="aringacute.sc" horiz-adv-x="532" 
d="M537 1099l-126 -153h-69l120 153h75zM358 654q-48 0 -77 27.5t-29 73.5t29 73.5t77 27.5t77.5 -28t29.5 -73t-29.5 -73t-77.5 -28zM358 815q-27 0 -44 -16.5t-17 -43.5t17 -43.5t44 -16.5q28 0 44.5 16.5t16.5 43.5t-17 43.5t-44 16.5zM281 581h105l88 -581h-68l-22 148
h-267l-81 -148h-75zM149 206h227l-48 322h-2z" />
    <glyph glyph-name="atilde.sc" horiz-adv-x="532" 
d="M492 824h49q-20 -85 -45.5 -121t-75.5 -36q-49 0 -72 55q-2 3 -6 11.5t-5.5 11.5t-5.5 9.5t-6.5 9t-6.5 6t-9 5t-10 1.5q-23 0 -37.5 -24.5t-28.5 -81.5h-49q18 82 45.5 119.5t73.5 37.5q25 0 41.5 -12.5t32.5 -43.5q2 -4 6.5 -12.5t6 -11.5t5.5 -9t6.5 -8.5t6.5 -6
t9 -4.5t10 -1q23 0 36.5 24t28.5 82zM281 581h105l88 -581h-68l-22 148h-267l-81 -148h-75zM149 206h227l-48 322h-2z" />
    <glyph glyph-name="ae.sc" horiz-adv-x="672" 
d="M677 520h-252l-14 -194h225l-13 -60h-217l-15 -205h194l-12 -61h-256l12 150h-200l-91 -150h-77l357 581h372zM333 207l25 317h-2l-192 -317h169z" />
    <glyph glyph-name="aeacute.sc" horiz-adv-x="672" 
d="M599 824l-126 -153h-69l120 153h75zM677 520h-252l-14 -194h225l-13 -60h-217l-15 -205h194l-12 -61h-256l12 150h-200l-91 -150h-77l357 581h372zM333 207l25 317h-2l-192 -317h169z" />
    <glyph glyph-name="b.sc" horiz-adv-x="532" 
d="M373 300q94 -28 94 -127q0 -86 -58.5 -129.5t-163.5 -43.5h-199l117 581h167q84 0 127 -35.5t43 -96.5q0 -58 -34.5 -97t-92.5 -52zM220 526l-40 -199h102q66 0 105.5 29.5t39.5 80.5q0 89 -117 89h-90zM237 55q158 0 158 113q0 104 -128 104h-98l-43 -217h111z" />
    <glyph glyph-name="c.sc" horiz-adv-x="612" 
d="M288 -13q-115 0 -171.5 66t-56.5 175q0 156 83.5 260.5t224.5 104.5q102 0 160 -52.5t58 -145.5q0 -8 -2 -26h-69q1 9 1 21q0 66 -40 104t-111 38q-112 0 -172.5 -85.5t-60.5 -213.5q0 -185 157 -185q76 0 127 38t68 109h72q-21 -99 -91 -153.5t-177 -54.5z" />
    <glyph glyph-name="cacute.sc" horiz-adv-x="612" 
d="M328 671l120 153h75l-126 -153h-69zM288 -13q-115 0 -171.5 66t-56.5 175q0 156 83.5 260.5t224.5 104.5q102 0 160 -52.5t58 -145.5q0 -8 -2 -26h-69q1 9 1 21q0 66 -40 104t-111 38q-112 0 -172.5 -85.5t-60.5 -213.5q0 -185 157 -185q76 0 127 38t68 109h72
q-21 -99 -91 -153.5t-177 -54.5z" />
    <glyph glyph-name="ccaron.sc" horiz-adv-x="612" 
d="M567 823l-136 -154h-82l-73 154h62l56 -119l104 119h69zM288 -13q-115 0 -171.5 66t-56.5 175q0 156 83.5 260.5t224.5 104.5q102 0 160 -52.5t58 -145.5q0 -8 -2 -26h-69q1 9 1 21q0 66 -40 104t-111 38q-112 0 -172.5 -85.5t-60.5 -213.5q0 -185 157 -185q76 0 127 38
t68 109h72q-21 -99 -91 -153.5t-177 -54.5z" />
    <glyph glyph-name="ccedilla.sc" horiz-adv-x="612" 
d="M584 369h-69q1 9 1 21q0 66 -40 104t-111 38q-112 0 -172.5 -85.5t-60.5 -213.5q0 -185 157 -185q76 0 127 38t68 109h72q-19 -93 -82 -146.5t-160 -60.5l-21 -42q91 -5 91 -75q0 -43 -33 -65t-87 -22q-48 0 -81 16l17 42q31 -12 63 -12q30 0 49 11.5t19 31.5
q0 38 -78 38h-31l39 77q-102 8 -151.5 73t-49.5 167q0 156 83.5 260.5t224.5 104.5q102 0 160 -52.5t58 -145.5q0 -8 -2 -26z" />
    <glyph glyph-name="ccircumflex.sc" horiz-adv-x="612" 
d="M242 670l135 154h82l73 -154h-62l-56 120l-104 -120h-68zM288 -13q-115 0 -171.5 66t-56.5 175q0 156 83.5 260.5t224.5 104.5q102 0 160 -52.5t58 -145.5q0 -8 -2 -26h-69q1 9 1 21q0 66 -40 104t-111 38q-112 0 -172.5 -85.5t-60.5 -213.5q0 -185 157 -185q76 0 127 38
t68 109h72q-21 -99 -91 -153.5t-177 -54.5z" />
    <glyph glyph-name="cdotaccent.sc" horiz-adv-x="612" 
d="M401 700q-22 0 -35.5 13.5t-13.5 33.5q0 22 13.5 36t35.5 14q21 0 35 -14.5t14 -35.5q0 -20 -14.5 -33.5t-34.5 -13.5zM288 -13q-115 0 -171.5 66t-56.5 175q0 156 83.5 260.5t224.5 104.5q102 0 160 -52.5t58 -145.5q0 -8 -2 -26h-69q1 9 1 21q0 66 -40 104t-111 38
q-112 0 -172.5 -85.5t-60.5 -213.5q0 -185 157 -185q76 0 127 38t68 109h72q-21 -99 -91 -153.5t-177 -54.5z" />
    <glyph glyph-name="d.sc" horiz-adv-x="609" 
d="M46 0l117 581h156q248 0 248 -242q0 -150 -86 -244.5t-244 -94.5h-191zM127 61h111q128 0 191.5 74t63.5 196q0 189 -178 189h-96z" />
    <glyph glyph-name="eth.sc" horiz-adv-x="609" 
d="M319 581q248 0 248 -242q0 -150 -86 -244.5t-244 -94.5h-191l55 273h-65l10 50h65l52 258h156zM238 61q128 0 191.5 74t63.5 196q0 189 -178 189h-96l-39 -197h160l-9 -50h-162l-42 -212h111z" />
    <glyph glyph-name="dcaron.sc" horiz-adv-x="609" 
d="M556 823l-136 -154h-82l-73 154h62l56 -119l104 119h69zM46 0l117 581h156q248 0 248 -242q0 -150 -86 -244.5t-244 -94.5h-191zM127 61h111q128 0 191.5 74t63.5 196q0 189 -178 189h-96z" />
    <glyph glyph-name="dcroat.sc" horiz-adv-x="609" 
d="M319 581q248 0 248 -242q0 -150 -86 -244.5t-244 -94.5h-191l55 273h-65l10 50h65l52 258h156zM238 61q128 0 191.5 74t63.5 196q0 189 -178 189h-96l-39 -197h160l-9 -50h-162l-42 -212h111z" />
    <glyph glyph-name="e.sc" horiz-adv-x="482" 
d="M46 0l117 581h337l-12 -61h-269l-39 -193h267l-12 -61h-267l-41 -205h269l-12 -61h-338z" />
    <glyph glyph-name="eacute.sc" horiz-adv-x="482" 
d="M280 671l120 153h75l-126 -153h-69zM46 0l117 581h337l-12 -61h-269l-39 -193h267l-12 -61h-267l-41 -205h269l-12 -61h-338z" />
    <glyph glyph-name="ebreve.sc" horiz-adv-x="482" 
d="M346 668q-64 0 -93.5 30t-29.5 90q0 16 3 36h53q-3 -20 -3 -38q0 -37 17 -55t55 -18q47 0 73 26.5t41 84.5h55q-19 -79 -59 -117.5t-112 -38.5zM46 0l117 581h337l-12 -61h-269l-39 -193h267l-12 -61h-267l-41 -205h269l-12 -61h-338z" />
    <glyph glyph-name="ecaron.sc" horiz-adv-x="482" 
d="M519 823l-136 -154h-82l-73 154h62l56 -119l104 119h69zM46 0l117 581h337l-12 -61h-269l-39 -193h267l-12 -61h-267l-41 -205h269l-12 -61h-338z" />
    <glyph glyph-name="ecircumflex.sc" horiz-adv-x="482" 
d="M195 670l135 154h82l73 -154h-62l-56 120l-104 -120h-68zM46 0l117 581h337l-12 -61h-269l-39 -193h267l-12 -61h-267l-41 -205h269l-12 -61h-338z" />
    <glyph glyph-name="edieresis.sc" horiz-adv-x="482" 
d="M262 690q-21 0 -34.5 13.5t-13.5 33.5q0 21 13.5 34.5t34.5 13.5t35 -13.5t14 -34.5q0 -20 -14.5 -33.5t-34.5 -13.5zM446 690q-21 0 -34.5 13.5t-13.5 33.5q0 21 13.5 34.5t34.5 13.5q20 0 34 -13.5t14 -34.5q0 -20 -14 -33.5t-34 -13.5zM46 0l117 581h337l-12 -61h-269
l-39 -193h267l-12 -61h-267l-41 -205h269l-12 -61h-338z" />
    <glyph glyph-name="edotaccent.sc" horiz-adv-x="482" 
d="M353 700q-22 0 -35.5 13.5t-13.5 33.5q0 22 13.5 36t35.5 14q21 0 35 -14.5t14 -35.5q0 -20 -14.5 -33.5t-34.5 -13.5zM46 0l117 581h337l-12 -61h-269l-39 -193h267l-12 -61h-267l-41 -205h269l-12 -61h-338z" />
    <glyph glyph-name="egrave.sc" horiz-adv-x="482" 
d="M401 671h-60l-74 153h66zM46 0l117 581h337l-12 -61h-269l-39 -193h267l-12 -61h-267l-41 -205h269l-12 -61h-338z" />
    <glyph glyph-name="emacron.sc" horiz-adv-x="482" 
d="M210 711l10 50h276l-9 -50h-277zM46 0l117 581h337l-12 -61h-269l-39 -193h267l-12 -61h-267l-41 -205h269l-12 -61h-338z" />
    <glyph glyph-name="eogonek.sc" horiz-adv-x="482" 
d="M488 520h-269l-39 -193h267l-12 -61h-267l-41 -205h269l-12 -61q-35 -24 -54.5 -39.5t-37 -39t-17.5 -45.5q0 -40 48 -40q19 0 42 7l-10 -49q-25 -5 -47 -5q-43 0 -68 20.5t-25 56.5q0 39 28 70t78 64h-275l117 581h337z" />
    <glyph glyph-name="uni0259.sc" horiz-adv-x="585" 
d="M334 593q106 0 158.5 -65t52.5 -174q0 -154 -80 -260.5t-207 -106.5q-93 0 -147 61t-54 171q0 36 6 80h408q3 27 3 56q0 82 -34.5 129.5t-108.5 47.5q-128 0 -174 -135h-73q28 94 94.5 145t155.5 51zM261 48q75 0 127 52.5t73 140.5h-336q-1 -8 -1 -24q0 -78 34 -123.5
t103 -45.5z" />
    <glyph glyph-name="f.sc" horiz-adv-x="468" 
d="M46 0l117 581h330l-12 -61h-262l-39 -193h260l-12 -61h-260l-53 -266h-69z" />
    <glyph glyph-name="g.sc" horiz-adv-x="618" 
d="M336 246l12 57h230l-8 -41q-26 -128 -92 -201.5t-190 -73.5q-116 0 -172.5 66t-56.5 178q0 151 86 256.5t227 105.5q102 0 158 -53.5t57 -152.5h-69q0 72 -39.5 108.5t-112.5 36.5q-111 0 -173.5 -90t-62.5 -215q0 -179 160 -179q91 0 141 53.5t68 140.5l1 4h-164z" />
    <glyph glyph-name="gbreve.sc" horiz-adv-x="618" 
d="M409 668q-64 0 -93.5 30t-29.5 90q0 16 3 36h53q-3 -20 -3 -38q0 -37 17 -55t55 -18q47 0 73 26.5t41 84.5h55q-19 -79 -59 -117.5t-112 -38.5zM336 246l12 57h230l-8 -41q-26 -128 -92 -201.5t-190 -73.5q-116 0 -172.5 66t-56.5 178q0 151 86 256.5t227 105.5
q102 0 158 -53.5t57 -152.5h-69q0 72 -39.5 108.5t-112.5 36.5q-111 0 -173.5 -90t-62.5 -215q0 -179 160 -179q91 0 141 53.5t68 140.5l1 4h-164z" />
    <glyph glyph-name="gcircumflex.sc" horiz-adv-x="618" 
d="M430 790l-104 -120h-68l135 154h82l73 -154h-62zM336 246l12 57h230l-8 -41q-26 -128 -92 -201.5t-190 -73.5q-116 0 -172.5 66t-56.5 178q0 151 86 256.5t227 105.5q102 0 158 -53.5t57 -152.5h-69q0 72 -39.5 108.5t-112.5 36.5q-111 0 -173.5 -90t-62.5 -215
q0 -179 160 -179q91 0 141 53.5t68 140.5l1 4h-164z" />
    <glyph glyph-name="uni0123.sc" horiz-adv-x="618" 
d="M336 246l12 57h230l-8 -41q-26 -128 -92 -201.5t-190 -73.5q-116 0 -172.5 66t-56.5 178q0 151 86 256.5t227 105.5q102 0 158 -53.5t57 -152.5h-69q0 72 -39.5 108.5t-112.5 36.5q-111 0 -173.5 -90t-62.5 -215q0 -179 160 -179q91 0 141 53.5t68 140.5l1 4h-164z
M174 -201l60 147h68l-67 -147h-61z" />
    <glyph glyph-name="gdotaccent.sc" horiz-adv-x="618" 
d="M416 700q-22 0 -35.5 13.5t-13.5 33.5q0 22 13.5 36t35.5 14q20 0 34.5 -14.5t14.5 -35.5q0 -20 -14.5 -33.5t-34.5 -13.5zM336 246l12 57h230l-8 -41q-26 -128 -92 -201.5t-190 -73.5q-116 0 -172.5 66t-56.5 178q0 151 86 256.5t227 105.5q102 0 158 -53.5t57 -152.5
h-69q0 72 -39.5 108.5t-112.5 36.5q-111 0 -173.5 -90t-62.5 -215q0 -179 160 -179q91 0 141 53.5t68 140.5l1 4h-164z" />
    <glyph glyph-name="h.sc" horiz-adv-x="611" 
d="M46 0l117 581h68l-51 -254h285l50 254h69l-116 -581h-69l53 265h-284l-53 -265h-69z" />
    <glyph glyph-name="hbar.sc" horiz-adv-x="611" 
d="M515 581h69l-116 -581h-69l53 265h-284l-53 -265h-69l117 581h68l-20 -98h285zM465 327l21 106h-285l-21 -106h285z" />
    <glyph glyph-name="hcircumflex.sc" horiz-adv-x="611" 
d="M241 670l135 154h82l73 -154h-62l-56 120l-104 -120h-68zM46 0l117 581h68l-51 -254h285l50 254h69l-116 -581h-69l53 265h-284l-53 -265h-69z" />
    <glyph glyph-name="i.sc" horiz-adv-x="258" 
d="M46 0l117 581h68l-116 -581h-69z" />
    <glyph glyph-name="dotlessi.sc" horiz-adv-x="258" 
d="M46 0l117 581h68l-116 -581h-69z" />
    <glyph glyph-name="iacute.sc" horiz-adv-x="258" 
d="M169 671l103 153h74l-111 -153h-66zM46 0l117 581h68l-116 -581h-69z" />
    <glyph glyph-name="ibreve.sc" horiz-adv-x="258" 
d="M215 667q-95 0 -95 100q0 25 6 57h49q-7 -38 -7 -56q0 -56 48 -56q36 0 56.5 26t32.5 86h51q-16 -80 -49.5 -118.5t-91.5 -38.5zM46 0l117 581h68l-116 -581h-69z" />
    <glyph glyph-name="icircumflex.sc" horiz-adv-x="258" 
d="M86 670l119 154h73l57 -154h-56l-43 116l-90 -116h-60zM46 0l117 581h68l-116 -581h-69z" />
    <glyph glyph-name="idieresis.sc" horiz-adv-x="258" 
d="M158 692q-19 0 -30.5 11.5t-11.5 30.5q0 20 12 31.5t32 11.5q18 0 29.5 -11.5t11.5 -29.5q0 -19 -12 -31.5t-31 -12.5zM287 692q-19 0 -30.5 11.5t-11.5 30.5t12 31t32 12q18 0 29.5 -11.5t11.5 -29.5q0 -19 -12 -31.5t-31 -12.5zM46 0l117 581h68l-116 -581h-69z" />
    <glyph glyph-name="i.sc.loclTRK" horiz-adv-x="258" 
d="M230 698q-22 0 -35.5 13.5t-13.5 34.5t13.5 35t35.5 14q20 0 34.5 -14t14.5 -35t-14 -34.5t-35 -13.5zM46 0l117 581h68l-116 -581h-69z" />
    <glyph glyph-name="igrave.sc" horiz-adv-x="258" 
d="M260 671h-59l-57 153h65zM46 0l117 581h68l-116 -581h-69z" />
    <glyph glyph-name="ij.sc" horiz-adv-x="572" 
d="M46 0l117 581h68l-116 -581h-69zM288 -2q-28 0 -58 5l12 63q16 -3 36 -3q62 0 94 27.5t45 94.5l79 396h69l-83 -417q-17 -86 -63.5 -126t-130.5 -40z" />
    <glyph glyph-name="imacron.sc" horiz-adv-x="258" 
d="M121 711l10 50h201l-10 -50h-201zM46 0l117 581h68l-116 -581h-69z" />
    <glyph glyph-name="iogonek.sc" horiz-adv-x="258" 
d="M231 581l-116 -581q-87 -89 -87 -131q0 -33 37 -33q18 0 37 8l-11 -48q-21 -7 -45 -7q-36 0 -56.5 17.5t-20.5 49.5q0 64 90 144h-13l117 581h68z" />
    <glyph glyph-name="itilde.sc" horiz-adv-x="258" 
d="M270 667q-26 0 -39 14t-18 44q-9 42 -17 49q-6 4 -13 4q-16 0 -27 -25t-23 -83h-46q19 85 40.5 121t59.5 36q28 0 39.5 -15.5t17.5 -47.5q4 -15 5.5 -20t5 -13.5t8 -11.5t11.5 -3q17 0 28 25.5t22 82.5h47q-19 -86 -40 -121.5t-61 -35.5zM46 0l117 581h68l-116 -581h-69z
" />
    <glyph glyph-name="j.sc" horiz-adv-x="314" 
d="M30 -2q-28 0 -58 5l12 63q17 -3 36 -3q62 0 94 27.5t45 94.5l79 396h69l-83 -417q-17 -86 -63.5 -126t-130.5 -40z" />
    <glyph glyph-name="uni006A0301.sc" horiz-adv-x="314" 
d="M245 671l103 153h74l-111 -153h-66zM30 -2q-28 0 -58 5l12 63q17 -3 36 -3q62 0 94 27.5t45 94.5l79 396h69l-83 -417q-17 -86 -63.5 -126t-130.5 -40z" />
    <glyph glyph-name="jcircumflex.sc" horiz-adv-x="314" 
d="M162 670l119 154h73l57 -154h-56l-43 116l-90 -116h-60zM30 -2q-28 0 -58 5l12 63q17 -3 36 -3q62 0 94 27.5t45 94.5l79 396h69l-83 -417q-17 -86 -63.5 -126t-130.5 -40z" />
    <glyph glyph-name="k.sc" horiz-adv-x="508" 
d="M532 581l-290 -269l205 -312h-81l-192 295l-59 -295h-69l117 581h68l-49 -245l265 245h85z" />
    <glyph glyph-name="uni0137.sc" horiz-adv-x="508" 
d="M532 581l-290 -269l205 -312h-81l-192 295l-59 -295h-69l117 581h68l-49 -245l265 245h85zM142 -201l60 147h68l-67 -147h-61z" />
    <glyph glyph-name="kgreenlandic.sc" horiz-adv-x="508" 
d="M532 581l-290 -269l205 -312h-81l-192 295l-59 -295h-69l117 581h68l-49 -245l265 245h85z" />
    <glyph glyph-name="l.sc" horiz-adv-x="421" 
d="M46 0l117 581h68l-103 -518h238l-13 -63h-307z" />
    <glyph glyph-name="lacute.sc" horiz-adv-x="421" 
d="M180 671l120 153h75l-126 -153h-69zM46 0l117 581h68l-103 -518h238l-13 -63h-307z" />
    <glyph glyph-name="lcaron.sc" horiz-adv-x="421" 
d="M46 0l117 581h68l-103 -518h238l-13 -63h-307zM255 415l62 166h61l-70 -166h-53z" />
    <glyph glyph-name="uni013C.sc" horiz-adv-x="421" 
d="M46 0l117 581h68l-103 -518h238l-13 -63h-307zM111 -201l60 147h68l-67 -147h-61z" />
    <glyph glyph-name="ldot.sc" horiz-adv-x="419" 
d="M46 0l117 581h68l-103 -518h238l-13 -63h-307zM338 288q-23 0 -37 14t-14 36q0 23 14 37.5t37 14.5q22 0 36.5 -14.5t14.5 -37.5q0 -22 -14.5 -36t-36.5 -14z" />
    <glyph glyph-name="lslash.sc" horiz-adv-x="421" 
d="M128 63h238l-13 -63h-307l52 259l-74 -43l13 65l74 43l52 257h68l-44 -219l163 97l-13 -66l-162 -96z" />
    <glyph glyph-name="m.sc" horiz-adv-x="754" 
d="M46 0l117 581h81l104 -464l290 464h90l-117 -581h-65l94 470l-293 -470h-36l-105 470l-94 -470h-66z" />
    <glyph glyph-name="n.sc" horiz-adv-x="633" 
d="M46 0l117 581h70l211 -478l96 478h66l-116 -581h-71l-211 478l-95 -478h-67z" />
    <glyph glyph-name="nacute.sc" horiz-adv-x="633" 
d="M341 671l120 153h75l-126 -153h-69zM46 0l117 581h70l211 -478l96 478h66l-116 -581h-71l-211 478l-95 -478h-67z" />
    <glyph glyph-name="napostrophe.sc" horiz-adv-x="776" 
d="M81 425l121 281h73l-137 -281h-57zM209 0l116 581h71l210 -478l96 478h67l-117 -581h-71l-210 478l-96 -478h-66z" />
    <glyph glyph-name="ncaron.sc" horiz-adv-x="633" 
d="M580 823l-136 -154h-82l-73 154h62l56 -119l104 119h69zM46 0l117 581h70l211 -478l96 478h66l-116 -581h-71l-211 478l-95 -478h-67z" />
    <glyph glyph-name="uni0146.sc" horiz-adv-x="633" 
d="M46 0l117 581h70l211 -478l96 478h66l-116 -581h-71l-211 478l-95 -478h-67zM171 -201l60 147h68l-67 -147h-61z" />
    <glyph glyph-name="eng.sc" horiz-adv-x="633" 
d="M540 581h66l-129 -646q-11 -53 -40 -78t-81 -25q-29 0 -49 4l11 57q9 -2 23 -2q62 0 73 63l9 47l-215 477l-95 -478h-67l117 581h70l213 -470z" />
    <glyph glyph-name="ntilde.sc" horiz-adv-x="633" 
d="M474 667q-49 0 -72 55q-2 3 -6 11.5t-5.5 11.5t-5.5 9.5t-6.5 9t-6.5 6t-9 5t-10 1.5q-23 0 -37.5 -24.5t-28.5 -81.5h-49q18 82 45.5 119.5t73.5 37.5q25 0 41.5 -12.5t32.5 -43.5q2 -4 6.5 -12.5t6 -11.5t5.5 -9t6.5 -8.5t6.5 -6t9 -4.5t10 -1q23 0 36.5 24t28.5 82h49
q-20 -85 -45.5 -121t-75.5 -36zM46 0l117 581h70l211 -478l96 478h66l-116 -581h-71l-211 478l-95 -478h-67z" />
    <glyph glyph-name="o.sc" horiz-adv-x="635" 
d="M289 -13q-115 0 -172 67.5t-57 180.5q0 149 83.5 253.5t222.5 104.5q115 0 171.5 -67.5t56.5 -180.5q0 -149 -83.5 -253.5t-221.5 -104.5zM294 50q72 0 125 43t78 109t25 144q0 184 -161 184q-108 0 -168.5 -87t-60.5 -210q0 -183 162 -183z" />
    <glyph glyph-name="oacute.sc" horiz-adv-x="635" 
d="M341 671l120 153h75l-126 -153h-69zM289 -13q-115 0 -172 67.5t-57 180.5q0 149 83.5 253.5t222.5 104.5q115 0 171.5 -67.5t56.5 -180.5q0 -149 -83.5 -253.5t-221.5 -104.5zM294 50q72 0 125 43t78 109t25 144q0 184 -161 184q-108 0 -168.5 -87t-60.5 -210
q0 -183 162 -183z" />
    <glyph glyph-name="obreve.sc" horiz-adv-x="635" 
d="M407 668q-64 0 -93.5 30t-29.5 90q0 16 3 36h53q-3 -20 -3 -38q0 -37 17 -55t55 -18q47 0 73 26.5t41 84.5h55q-19 -79 -59 -117.5t-112 -38.5zM289 -13q-115 0 -172 67.5t-57 180.5q0 149 83.5 253.5t222.5 104.5q115 0 171.5 -67.5t56.5 -180.5q0 -149 -83.5 -253.5
t-221.5 -104.5zM294 50q72 0 125 43t78 109t25 144q0 184 -161 184q-108 0 -168.5 -87t-60.5 -210q0 -183 162 -183z" />
    <glyph glyph-name="ocircumflex.sc" horiz-adv-x="635" 
d="M256 670l135 154h82l73 -154h-62l-56 120l-104 -120h-68zM289 -13q-115 0 -172 67.5t-57 180.5q0 149 83.5 253.5t222.5 104.5q115 0 171.5 -67.5t56.5 -180.5q0 -149 -83.5 -253.5t-221.5 -104.5zM294 50q72 0 125 43t78 109t25 144q0 184 -161 184q-108 0 -168.5 -87
t-60.5 -210q0 -183 162 -183z" />
    <glyph glyph-name="odieresis.sc" horiz-adv-x="635" 
d="M324 690q-21 0 -34.5 13.5t-13.5 33.5q0 21 13.5 34.5t34.5 13.5t35 -13.5t14 -34.5q0 -20 -14.5 -33.5t-34.5 -13.5zM508 690q-21 0 -34.5 13.5t-13.5 33.5q0 21 13.5 34.5t34.5 13.5q20 0 34 -13.5t14 -34.5q0 -20 -14 -33.5t-34 -13.5zM289 -13q-115 0 -172 67.5
t-57 180.5q0 149 83.5 253.5t222.5 104.5q115 0 171.5 -67.5t56.5 -180.5q0 -149 -83.5 -253.5t-221.5 -104.5zM294 50q72 0 125 43t78 109t25 144q0 184 -161 184q-108 0 -168.5 -87t-60.5 -210q0 -183 162 -183z" />
    <glyph glyph-name="ograve.sc" horiz-adv-x="635" 
d="M463 671h-60l-74 153h66zM289 -13q-115 0 -172 67.5t-57 180.5q0 149 83.5 253.5t222.5 104.5q115 0 171.5 -67.5t56.5 -180.5q0 -149 -83.5 -253.5t-221.5 -104.5zM294 50q72 0 125 43t78 109t25 144q0 184 -161 184q-108 0 -168.5 -87t-60.5 -210q0 -183 162 -183z" />
    <glyph glyph-name="ohungarumlaut.sc" horiz-adv-x="635" 
d="M295 671l135 153h71l-146 -153h-60zM432 671l136 153h71l-146 -153h-61zM289 -13q-115 0 -172 67.5t-57 180.5q0 149 83.5 253.5t222.5 104.5q115 0 171.5 -67.5t56.5 -180.5q0 -149 -83.5 -253.5t-221.5 -104.5zM294 50q72 0 125 43t78 109t25 144q0 184 -161 184
q-108 0 -168.5 -87t-60.5 -210q0 -183 162 -183z" />
    <glyph glyph-name="omacron.sc" horiz-adv-x="635" 
d="M271 711l10 50h276l-9 -50h-277zM289 -13q-115 0 -172 67.5t-57 180.5q0 149 83.5 253.5t222.5 104.5q115 0 171.5 -67.5t56.5 -180.5q0 -149 -83.5 -253.5t-221.5 -104.5zM294 50q72 0 125 43t78 109t25 144q0 184 -161 184q-108 0 -168.5 -87t-60.5 -210
q0 -183 162 -183z" />
    <glyph glyph-name="oslash.sc" horiz-adv-x="635" 
d="M656 581l-94 -91q32 -58 32 -145q0 -149 -83.5 -253.5t-221.5 -104.5q-110 0 -169 65l-53 -52h-68l93 90q-32 58 -32 145q0 149 83.5 253.5t222.5 104.5q109 0 168 -64l54 52h68zM361 530q-108 0 -168.5 -87t-60.5 -210q0 -54 14 -92l339 339q-40 50 -124 50zM294 50
q72 0 125 43t78 109t25 144q0 56 -14 94l-340 -339q41 -51 126 -51z" />
    <glyph glyph-name="oslashacute.sc" horiz-adv-x="635" 
d="M536 824l-126 -153h-69l120 153h75zM656 581l-94 -91q32 -58 32 -145q0 -149 -83.5 -253.5t-221.5 -104.5q-110 0 -169 65l-53 -52h-68l93 90q-32 58 -32 145q0 149 83.5 253.5t222.5 104.5q109 0 168 -64l54 52h68zM361 530q-108 0 -168.5 -87t-60.5 -210q0 -54 14 -92
l339 339q-40 50 -124 50zM294 50q72 0 125 43t78 109t25 144q0 56 -14 94l-340 -339q41 -51 126 -51z" />
    <glyph glyph-name="otilde.sc" horiz-adv-x="635" 
d="M475 667q-49 0 -72 55q-2 3 -6 11.5t-5.5 11.5t-5.5 9.5t-6.5 9t-6.5 6t-9 5t-10 1.5q-23 0 -37.5 -24.5t-28.5 -81.5h-49q18 82 45.5 119.5t73.5 37.5q25 0 41.5 -12.5t32.5 -43.5q2 -4 6.5 -12.5t6 -11.5t5.5 -9t6.5 -8.5t6.5 -6t9 -4.5t10 -1q23 0 36.5 24t28.5 82h49
q-20 -85 -45.5 -121t-75.5 -36zM289 -13q-115 0 -172 67.5t-57 180.5q0 149 83.5 253.5t222.5 104.5q115 0 171.5 -67.5t56.5 -180.5q0 -149 -83.5 -253.5t-221.5 -104.5zM294 50q72 0 125 43t78 109t25 144q0 184 -161 184q-108 0 -168.5 -87t-60.5 -210q0 -183 162 -183z
" />
    <glyph glyph-name="oe.sc" horiz-adv-x="874" 
d="M880 520h-269l-38 -194h266l-13 -60h-266l-41 -205h269l-12 -61h-331l13 66q-77 -77 -188 -77q-104 0 -157 67.5t-53 179.5q0 148 81.5 252t215.5 104q135 0 183 -118l21 107h332zM277 51q107 0 167.5 86.5t60.5 208.5q0 184 -151 184q-105 0 -163 -87t-58 -210
q0 -182 144 -182z" />
    <glyph glyph-name="p.sc" horiz-adv-x="503" 
d="M46 0l117 581h170q182 0 182 -141q0 -83 -55 -131t-146 -48h-147l-52 -261h-69zM179 319h120q69 0 106.5 29t37.5 84q0 91 -123 91h-100z" />
    <glyph glyph-name="thorn.sc" horiz-adv-x="504" 
d="M46 0l117 581h68l-20 -101h80q199 0 199 -161q0 -101 -60.5 -156t-169.5 -55h-124l-21 -108h-69zM148 167h100q83 0 127 38.5t44 110.5q0 53 -33 79t-108 26h-79z" />
    <glyph glyph-name="q.sc" horiz-adv-x="635" 
d="M594 345q0 -120 -55.5 -214.5t-153.5 -127.5l47 -102l-58 -31l-51 119q-22 -2 -34 -2q-115 0 -172 67.5t-57 180.5q0 149 83.5 253.5t222.5 104.5q115 0 171.5 -67.5t56.5 -180.5zM359 60q78 25 120.5 104.5t42.5 181.5q0 184 -161 184q-108 0 -168.5 -87t-60.5 -210
q0 -183 162 -183h2l-30 70l52 28z" />
    <glyph glyph-name="r.sc" horiz-adv-x="537" 
d="M527 437q0 -80 -53.5 -125.5t-146.5 -48.5l152 -263h-73l-152 263h-86l-53 -263h-69l117 581h188q176 0 176 -144zM304 318q73 0 113 29t40 87q0 46 -29.5 67.5t-93.5 21.5h-114l-41 -205h125z" />
    <glyph glyph-name="racute.sc" horiz-adv-x="537" 
d="M500 824l-126 -153h-69l120 153h75zM527 437q0 -80 -53.5 -125.5t-146.5 -48.5l152 -263h-73l-152 263h-86l-53 -263h-69l117 581h188q176 0 176 -144zM304 318q73 0 113 29t40 87q0 46 -29.5 67.5t-93.5 21.5h-114l-41 -205h125z" />
    <glyph glyph-name="rcaron.sc" horiz-adv-x="537" 
d="M408 669h-82l-73 154h62l56 -119l104 119h69zM351 581q176 0 176 -144q0 -80 -53.5 -125.5t-146.5 -48.5l152 -263h-73l-152 263h-86l-53 -263h-69l117 581h188zM304 318q73 0 113 29t40 87q0 46 -29.5 67.5t-93.5 21.5h-114l-41 -205h125z" />
    <glyph glyph-name="uni0157.sc" horiz-adv-x="537" 
d="M527 437q0 -80 -53.5 -125.5t-146.5 -48.5l152 -263h-73l-152 263h-86l-53 -263h-69l117 581h188q176 0 176 -144zM304 318q73 0 113 29t40 87q0 46 -29.5 67.5t-93.5 21.5h-114l-41 -205h125zM161 -201l60 147h68l-67 -147h-61z" />
    <glyph glyph-name="s.sc" horiz-adv-x="516" 
d="M241 -13q-105 0 -160 43t-55 122q0 19 3 37h72q-2 -11 -2 -32q0 -113 144 -113q61 0 100.5 27.5t39.5 78.5q0 21 -8.5 38t-17 27t-35 22.5t-38 17t-50.5 18.5q-73 26 -110.5 60.5t-37.5 94.5q0 76 56 120.5t150 44.5q92 0 141.5 -43t49.5 -113q0 -18 -3 -36h-70
q2 24 2 30q0 49 -32 77t-91 28q-58 0 -94 -26.5t-36 -76.5q0 -22 7.5 -38t28.5 -28.5t37 -19.5t52 -19q13 -5 20 -7q79 -28 117 -63.5t38 -98.5q0 -85 -60 -128.5t-158 -43.5z" />
    <glyph glyph-name="sacute.sc" horiz-adv-x="516" 
d="M255 671l120 153h75l-126 -153h-69zM241 -13q-105 0 -160 43t-55 122q0 19 3 37h72q-2 -11 -2 -32q0 -113 144 -113q61 0 100.5 27.5t39.5 78.5q0 21 -8.5 38t-17 27t-35 22.5t-38 17t-50.5 18.5q-73 26 -110.5 60.5t-37.5 94.5q0 76 56 120.5t150 44.5q92 0 141.5 -43
t49.5 -113q0 -18 -3 -36h-70q2 24 2 30q0 49 -32 77t-91 28q-58 0 -94 -26.5t-36 -76.5q0 -22 7.5 -38t28.5 -28.5t37 -19.5t52 -19q13 -5 20 -7q79 -28 117 -63.5t38 -98.5q0 -85 -60 -128.5t-158 -43.5z" />
    <glyph glyph-name="scaron.sc" horiz-adv-x="516" 
d="M494 823l-136 -154h-82l-73 154h62l56 -119l104 119h69zM241 -13q-105 0 -160 43t-55 122q0 19 3 37h72q-2 -11 -2 -32q0 -113 144 -113q61 0 100.5 27.5t39.5 78.5q0 21 -8.5 38t-17 27t-35 22.5t-38 17t-50.5 18.5q-73 26 -110.5 60.5t-37.5 94.5q0 76 56 120.5
t150 44.5q92 0 141.5 -43t49.5 -113q0 -18 -3 -36h-70q2 24 2 30q0 49 -32 77t-91 28q-58 0 -94 -26.5t-36 -76.5q0 -22 7.5 -38t28.5 -28.5t37 -19.5t52 -19q13 -5 20 -7q79 -28 117 -63.5t38 -98.5q0 -85 -60 -128.5t-158 -43.5z" />
    <glyph glyph-name="scedilla.sc" horiz-adv-x="516" 
d="M480 401h-70q2 24 2 30q0 49 -32 77t-91 28q-58 0 -94 -26.5t-36 -76.5q0 -22 7.5 -38t28.5 -28.5t37 -19.5t52 -19q13 -5 20 -7q79 -28 117 -63.5t38 -98.5q0 -80 -53 -123t-143 -48l-21 -42q91 -5 91 -75q0 -43 -33 -65t-87 -22q-48 0 -81 16l17 42q31 -12 63 -12
q30 0 49 11.5t19 31.5q0 38 -78 38h-31l39 77q-90 7 -137 49t-47 115q0 19 3 37h72q-2 -11 -2 -32q0 -113 144 -113q61 0 100.5 27.5t39.5 78.5q0 21 -8.5 38t-17 27t-35 22.5t-38 17t-50.5 18.5q-73 26 -110.5 60.5t-37.5 94.5q0 76 56 120.5t150 44.5q92 0 141.5 -43
t49.5 -113q0 -18 -3 -36z" />
    <glyph glyph-name="scircumflex.sc" horiz-adv-x="516" 
d="M170 670l135 154h82l73 -154h-62l-56 120l-104 -120h-68zM241 -13q-105 0 -160 43t-55 122q0 19 3 37h72q-2 -11 -2 -32q0 -113 144 -113q61 0 100.5 27.5t39.5 78.5q0 21 -8.5 38t-17 27t-35 22.5t-38 17t-50.5 18.5q-73 26 -110.5 60.5t-37.5 94.5q0 76 56 120.5
t150 44.5q92 0 141.5 -43t49.5 -113q0 -18 -3 -36h-70q2 24 2 30q0 49 -32 77t-91 28q-58 0 -94 -26.5t-36 -76.5q0 -22 7.5 -38t28.5 -28.5t37 -19.5t52 -19q13 -5 20 -7q79 -28 117 -63.5t38 -98.5q0 -85 -60 -128.5t-158 -43.5z" />
    <glyph glyph-name="uni0219.sc" horiz-adv-x="516" 
d="M241 -13q-105 0 -160 43t-55 122q0 19 3 37h72q-2 -11 -2 -32q0 -113 144 -113q61 0 100.5 27.5t39.5 78.5q0 21 -8.5 38t-17 27t-35 22.5t-38 17t-50.5 18.5q-73 26 -110.5 60.5t-37.5 94.5q0 76 56 120.5t150 44.5q92 0 141.5 -43t49.5 -113q0 -18 -3 -36h-70
q2 24 2 30q0 49 -32 77t-91 28q-58 0 -94 -26.5t-36 -76.5q0 -22 7.5 -38t28.5 -28.5t37 -19.5t52 -19q13 -5 20 -7q79 -28 117 -63.5t38 -98.5q0 -85 -60 -128.5t-158 -43.5zM137 -201l60 147h68l-67 -147h-61z" />
    <glyph glyph-name="germandbls.sc" horiz-adv-x="579" 
d="M565 581l-1 -4l-170 -241q126 -23 126 -145q0 -90 -63.5 -142t-166.5 -52q-56 0 -99 9l13 61q46 -7 83 -7q78 0 120.5 34t42.5 97q0 100 -128 100q-18 0 -32 -2v2l160 228h-232l-103 -519h-69l117 581h402z" />
    <glyph glyph-name="t.sc" horiz-adv-x="470" 
d="M152 0l104 520h-181l12 61h432l-13 -61h-182l-103 -520h-69z" />
    <glyph glyph-name="tbar.sc" horiz-adv-x="470" 
d="M506 520h-182l-31 -157h112l-9 -50h-113l-62 -313h-69l63 313h-114l10 50h114l31 157h-181l12 61h432z" />
    <glyph glyph-name="tcaron.sc" horiz-adv-x="482" 
d="M499 823l-136 -154h-82l-73 154h62l56 -119l104 119h69zM152 0l104 520h-181l12 61h432l-13 -61h-182l-103 -520h-69z" />
    <glyph glyph-name="uni0163.sc" horiz-adv-x="470" 
d="M87 581h432l-13 -61h-182l-103 -520h-6l-27 -54q91 -5 91 -75q0 -43 -33 -65t-87 -22q-48 0 -81 16l17 42q31 -12 63 -12q30 0 49 11.5t19 31.5q0 38 -78 38h-31l45 89h-10l104 520h-181z" />
    <glyph glyph-name="uni021B.sc" horiz-adv-x="470" 
d="M152 0l104 520h-181l12 61h432l-13 -61h-182l-103 -520h-69zM84 -201l60 147h68l-67 -147h-61z" />
    <glyph glyph-name="u.sc" horiz-adv-x="567" 
d="M253 -13q-190 0 -190 164q0 30 7 64l73 366h69l-76 -378q-6 -29 -6 -50q0 -52 29.5 -77.5t94.5 -25.5q69 0 105.5 30.5t49.5 93.5l82 407h69l-84 -417q-34 -177 -223 -177z" />
    <glyph glyph-name="uacute.sc" horiz-adv-x="567" 
d="M300 671l120 153h75l-126 -153h-69zM253 -13q-190 0 -190 164q0 30 7 64l73 366h69l-76 -378q-6 -29 -6 -50q0 -52 29.5 -77.5t94.5 -25.5q69 0 105.5 30.5t49.5 93.5l82 407h69l-84 -417q-34 -177 -223 -177z" />
    <glyph glyph-name="ubreve.sc" horiz-adv-x="567" 
d="M366 668q-64 0 -93.5 30t-29.5 90q0 16 3 36h53q-3 -20 -3 -38q0 -37 17 -55t55 -18q47 0 73 26.5t41 84.5h55q-19 -79 -59 -117.5t-112 -38.5zM253 -13q-190 0 -190 164q0 30 7 64l73 366h69l-76 -378q-6 -29 -6 -50q0 -52 29.5 -77.5t94.5 -25.5q69 0 105.5 30.5
t49.5 93.5l82 407h69l-84 -417q-34 -177 -223 -177z" />
    <glyph glyph-name="ucircumflex.sc" horiz-adv-x="567" 
d="M215 670l135 154h82l73 -154h-62l-56 120l-104 -120h-68zM253 -13q-190 0 -190 164q0 30 7 64l73 366h69l-76 -378q-6 -29 -6 -50q0 -52 29.5 -77.5t94.5 -25.5q69 0 105.5 30.5t49.5 93.5l82 407h69l-84 -417q-34 -177 -223 -177z" />
    <glyph glyph-name="udieresis.sc" horiz-adv-x="567" 
d="M283 690q-21 0 -34.5 13.5t-13.5 33.5q0 21 13.5 34.5t34.5 13.5t35 -13.5t14 -34.5q0 -20 -14.5 -33.5t-34.5 -13.5zM467 690q-21 0 -34.5 13.5t-13.5 33.5q0 21 13.5 34.5t34.5 13.5q20 0 34 -13.5t14 -34.5q0 -20 -14 -33.5t-34 -13.5zM253 -13q-190 0 -190 164
q0 30 7 64l73 366h69l-76 -378q-6 -29 -6 -50q0 -52 29.5 -77.5t94.5 -25.5q69 0 105.5 30.5t49.5 93.5l82 407h69l-84 -417q-34 -177 -223 -177z" />
    <glyph glyph-name="ugrave.sc" horiz-adv-x="567" 
d="M422 671h-60l-74 153h66zM253 -13q-190 0 -190 164q0 30 7 64l73 366h69l-76 -378q-6 -29 -6 -50q0 -52 29.5 -77.5t94.5 -25.5q69 0 105.5 30.5t49.5 93.5l82 407h69l-84 -417q-34 -177 -223 -177z" />
    <glyph glyph-name="uhungarumlaut.sc" horiz-adv-x="567" 
d="M254 671l135 153h71l-146 -153h-60zM391 671l136 153h71l-146 -153h-61zM253 -13q-190 0 -190 164q0 30 7 64l73 366h69l-76 -378q-6 -29 -6 -50q0 -52 29.5 -77.5t94.5 -25.5q69 0 105.5 30.5t49.5 93.5l82 407h69l-84 -417q-34 -177 -223 -177z" />
    <glyph glyph-name="umacron.sc" horiz-adv-x="567" 
d="M230 711l10 50h276l-9 -50h-277zM253 -13q-190 0 -190 164q0 30 7 64l73 366h69l-76 -378q-6 -29 -6 -50q0 -52 29.5 -77.5t94.5 -25.5q69 0 105.5 30.5t49.5 93.5l82 407h69l-84 -417q-34 -177 -223 -177z" />
    <glyph glyph-name="uogonek.sc" horiz-adv-x="567" 
d="M491 581h69l-84 -417q-11 -58 -36.5 -95t-72.5 -69q-35 -24 -54.5 -39.5t-37 -39t-17.5 -45.5q0 -40 48 -40q19 0 42 7l-10 -49q-25 -5 -47 -5q-43 0 -68 20.5t-25 56.5q0 61 89 122q-11 -1 -34 -1q-190 0 -190 164q0 30 7 64l73 366h69l-76 -378q-6 -29 -6 -50
q0 -52 29.5 -77.5t94.5 -25.5q69 0 105.5 30.5t49.5 93.5z" />
    <glyph glyph-name="uring.sc" horiz-adv-x="567" 
d="M371 654q-48 0 -77 27.5t-29 73.5t29 73.5t77 27.5t77.5 -28t29.5 -73t-29.5 -73t-77.5 -28zM371 695q28 0 44.5 16.5t16.5 43.5t-17 43.5t-44 16.5t-44 -16.5t-17 -43.5t17 -43.5t44 -16.5zM253 -13q-190 0 -190 164q0 30 7 64l73 366h69l-76 -378q-6 -29 -6 -50
q0 -52 29.5 -77.5t94.5 -25.5q69 0 105.5 30.5t49.5 93.5l82 407h69l-84 -417q-34 -177 -223 -177z" />
    <glyph glyph-name="utilde.sc" horiz-adv-x="567" 
d="M434 667q-49 0 -72 55q-2 3 -6 11.5t-5.5 11.5t-5.5 9.5t-6.5 9t-6.5 6t-9 5t-10 1.5q-23 0 -37.5 -24.5t-28.5 -81.5h-49q18 82 45.5 119.5t73.5 37.5q25 0 41.5 -12.5t32.5 -43.5q2 -4 6.5 -12.5t6 -11.5t5.5 -9t6.5 -8.5t6.5 -6t9 -4.5t10 -1q23 0 36.5 24t28.5 82h49
q-20 -85 -45.5 -121t-75.5 -36zM253 -13q-190 0 -190 164q0 30 7 64l73 366h69l-76 -378q-6 -29 -6 -50q0 -52 29.5 -77.5t94.5 -25.5q69 0 105.5 30.5t49.5 93.5l82 407h69l-84 -417q-34 -177 -223 -177z" />
    <glyph glyph-name="v.sc" horiz-adv-x="524" 
d="M507 581h76l-334 -581h-70l-102 581h69l81 -498z" />
    <glyph glyph-name="w.sc" horiz-adv-x="760" 
d="M749 581h70l-281 -581h-74l-35 485l-229 -485h-72l-51 581h65l39 -479l227 479h76l35 -475z" />
    <glyph glyph-name="wacute.sc" horiz-adv-x="760" 
d="M590 824l-126 -153h-69l120 153h75zM749 581h70l-281 -581h-74l-35 485l-229 -485h-72l-51 581h65l39 -479l227 479h76l35 -475z" />
    <glyph glyph-name="wcircumflex.sc" horiz-adv-x="760" 
d="M482 790l-104 -120h-68l135 154h82l73 -154h-62zM749 581h70l-281 -581h-74l-35 485l-229 -485h-72l-51 581h65l39 -479l227 479h76l35 -475z" />
    <glyph glyph-name="wdieresis.sc" horiz-adv-x="760" 
d="M377 690q-21 0 -34.5 13.5t-13.5 33.5q0 21 13.5 34.5t34.5 13.5t35 -13.5t14 -34.5q0 -20 -14.5 -33.5t-34.5 -13.5zM561 690q-21 0 -34.5 13.5t-13.5 33.5q0 21 13.5 34.5t34.5 13.5q20 0 34 -13.5t14 -34.5q0 -20 -14 -33.5t-34 -13.5zM749 581h70l-281 -581h-74
l-35 485l-229 -485h-72l-51 581h65l39 -479l227 479h76l35 -475z" />
    <glyph glyph-name="wgrave.sc" horiz-adv-x="760" 
d="M516 671h-60l-74 153h66zM749 581h70l-281 -581h-74l-35 485l-229 -485h-72l-51 581h65l39 -479l227 479h76l35 -475z" />
    <glyph glyph-name="x.sc" horiz-adv-x="558" 
d="M-31 0l276 309l-157 272h74l128 -225l193 225h86l-244 -278l171 -303h-74l-145 253l-221 -253h-87z" />
    <glyph glyph-name="y.sc" horiz-adv-x="477" 
d="M157 0l50 250l-130 331h70l102 -261l206 261h81l-261 -331l-50 -250h-68z" />
    <glyph glyph-name="yacute.sc" horiz-adv-x="477" 
d="M252 671l120 153h75l-126 -153h-69zM157 0l50 250l-130 331h70l102 -261l206 261h81l-261 -331l-50 -250h-68z" />
    <glyph glyph-name="ycircumflex.sc" horiz-adv-x="477" 
d="M167 670l135 154h82l73 -154h-62l-56 120l-104 -120h-68zM157 0l50 250l-130 331h70l102 -261l206 261h81l-261 -331l-50 -250h-68z" />
    <glyph glyph-name="ydieresis.sc" horiz-adv-x="477" 
d="M235 690q-21 0 -34.5 13.5t-13.5 33.5q0 21 13.5 34.5t34.5 13.5t35 -13.5t14 -34.5q0 -20 -14.5 -33.5t-34.5 -13.5zM419 690q-21 0 -34.5 13.5t-13.5 33.5q0 21 13.5 34.5t34.5 13.5q20 0 34 -13.5t14 -34.5q0 -20 -14 -33.5t-34 -13.5zM157 0l50 250l-130 331h70
l102 -261l206 261h81l-261 -331l-50 -250h-68z" />
    <glyph glyph-name="ygrave.sc" horiz-adv-x="477" 
d="M374 671h-60l-74 153h66zM157 0l50 250l-130 331h70l102 -261l206 261h81l-261 -331l-50 -250h-68z" />
    <glyph glyph-name="z.sc" horiz-adv-x="488" 
d="M-25 0l409 519h-297l13 62h413l-409 -520h321l-12 -61h-438z" />
    <glyph glyph-name="zacute.sc" horiz-adv-x="488" 
d="M251 671l120 153h75l-126 -153h-69zM-25 0l409 519h-297l13 62h413l-409 -520h321l-12 -61h-438z" />
    <glyph glyph-name="zcaron.sc" horiz-adv-x="488" 
d="M491 823l-136 -154h-82l-73 154h62l56 -119l104 119h69zM-25 0l409 519h-297l13 62h413l-409 -520h321l-12 -61h-438z" />
    <glyph glyph-name="zdotaccent.sc" horiz-adv-x="488" 
d="M324 700q-22 0 -35.5 13.5t-13.5 33.5q0 22 13.5 36t35.5 14q20 0 34.5 -14.5t14.5 -35.5q0 -20 -14.5 -33.5t-34.5 -13.5zM-25 0l409 519h-297l13 62h413l-409 -520h321l-12 -61h-438z" />
    <glyph glyph-name="m.sc.ss01" horiz-adv-x="706" 
d="M46 0l117 581h79l120 -261l222 261h96l-117 -581h-66l99 496l-231 -269h-31l-122 269l-99 -496h-67z" />
    <glyph glyph-name="q.sc.ss02" horiz-adv-x="635" 
d="M594 345q0 -119 -54.5 -212.5t-150.5 -128.5l39 -112l-65 -23l-37 120q-24 -2 -37 -2q-115 0 -172 67.5t-57 180.5q0 149 83.5 253.5t222.5 104.5q115 0 171.5 -67.5t56.5 -180.5zM294 50q72 0 125 43t78 109t25 144q0 184 -161 184q-108 0 -168.5 -87t-60.5 -210
q0 -183 162 -183z" />
    <glyph glyph-name="oslash.sc.ss04" horiz-adv-x="635" 
d="M656 590l-95 -98q33 -60 33 -147q0 -149 -83.5 -253.5t-221.5 -104.5q-100 0 -159 54l-86 -91l-44 41l93 97q-33 60 -33 147q0 149 83.5 253.5t222.5 104.5q101 0 158 -54l87 92zM294 50q72 0 125 43t78 109t25 144q0 184 -161 184q-108 0 -168.5 -87t-60.5 -210
q0 -183 162 -183z" />
    <glyph glyph-name="A.subs" horiz-adv-x="371" 
d="M237 -120l-14 94h-178l-52 -94h-59l215 388h82l61 -388h-55zM69 19h147l-32 207h-1z" />
    <glyph glyph-name="B.subs" horiz-adv-x="379" 
d="M229 80q61 -21 61 -85q0 -115 -153 -115h-138l77 388h115q120 0 120 -90q0 -78 -82 -98zM122 227l-25 -127h66q90 0 90 70q0 57 -73 57h-58zM133 -79q101 0 101 73q0 68 -77 68h-68l-28 -141h72z" />
    <glyph glyph-name="C.subs" horiz-adv-x="427" 
d="M160 -129q-73 0 -114.5 44.5t-41.5 124.5q0 98 59 167.5t160 69.5q65 0 105.5 -35.5t39.5 -100.5q0 -8 -2 -15h-57q7 103 -93 103q-73 0 -114.5 -56t-41.5 -130q0 -60 27.5 -91.5t77.5 -31.5q47 0 80 24t44 68h56q-15 -68 -64 -104.5t-121 -36.5z" />
    <glyph glyph-name="D.subs" horiz-adv-x="431" 
d="M-1 -120l77 388h114q89 0 128.5 -41t39.5 -121q0 -98 -58 -162t-159 -64h-142zM62 -72h80q76 0 117.5 50t41.5 128q0 115 -114 115h-66z" />
    <glyph glyph-name="E.subs" horiz-adv-x="343" 
d="M-1 -120l77 388h234l-9 -46h-180l-24 -121h178l-10 -47h-178l-25 -127h180l-9 -47h-234z" />
    <glyph glyph-name="F.subs" horiz-adv-x="331" 
d="M-1 -120l77 388h228l-9 -46h-174l-24 -122h172l-10 -47h-172l-34 -173h-54z" />
    <glyph glyph-name="G.subs" horiz-adv-x="433" 
d="M192 40l9 44h161l-6 -31q-16 -87 -64.5 -134.5t-127.5 -47.5q-80 0 -120.5 46t-40.5 122q0 99 59.5 168.5t156.5 69.5q69 0 109 -35.5t40 -103.5h-55q0 48 -26.5 70t-70.5 22q-70 0 -113 -53.5t-43 -134.5q0 -123 108 -123t131 121h-107z" />
    <glyph glyph-name="H.subs" horiz-adv-x="437" 
d="M-1 -120l77 388h54l-33 -166h186l33 166h54l-77 -388h-54l34 173h-186l-34 -173h-54z" />
    <glyph glyph-name="I.subs" horiz-adv-x="197" 
d="M-1 -120l77 388h54l-77 -388h-54z" />
    <glyph glyph-name="J.subs" horiz-adv-x="226" 
d="M-22 -122q-19 0 -36 3l10 52q16 -2 27 -2q39 0 59 17t28 59l52 261h56l-55 -272q-12 -61 -45.5 -89.5t-95.5 -28.5z" />
    <glyph glyph-name="K.subs" horiz-adv-x="369" 
d="M340 268l-196 -181l143 -207h-63l-133 192l-38 -192h-54l77 388h54l-32 -160l170 160h72z" />
    <glyph glyph-name="L.subs" horiz-adv-x="297" 
d="M-1 -120l77 388h54l-67 -338h157l-9 -50h-212z" />
    <glyph glyph-name="M.subs" horiz-adv-x="535" 
d="M-1 -120l77 388h61l73 -298l189 298h69l-77 -388h-52l60 302l-191 -302h-25l-72 302l-61 -302h-51z" />
    <glyph glyph-name="N.subs" horiz-adv-x="452" 
d="M-1 -120l77 388h56l139 -307l61 307h53l-77 -388h-56l-139 307l-61 -307h-53z" />
    <glyph glyph-name="O.subs" horiz-adv-x="444" 
d="M158 -129q-154 0 -154 168q0 102 58 170t154 68q156 0 156 -166q0 -103 -58.5 -171.5t-155.5 -68.5zM161 -79q73 0 114 55.5t41 136.5q0 114 -102 114q-73 0 -113 -55.5t-40 -137.5q0 -113 100 -113z" />
    <glyph glyph-name="P.subs" horiz-adv-x="357" 
d="M-1 -120l77 388h120q124 0 124 -102q0 -116 -146 -116h-87l-34 -170h-54zM96 93h69q100 0 100 73q0 58 -76 58h-67z" />
    <glyph glyph-name="Q.subs" horiz-adv-x="444" 
d="M372 111q0 -80 -36 -141t-100 -85l29 -72l-45 -17l-28 77q-22 -2 -34 -2q-154 0 -154 168q0 102 58 170t154 68q156 0 156 -166zM218 -68q47 20 72.5 69t25.5 112q0 114 -102 114q-73 0 -113 -55.5t-40 -137.5q0 -113 100 -113q9 0 13 1l-17 46l40 16z" />
    <glyph glyph-name="R.subs" horiz-adv-x="380" 
d="M329 169q0 -52 -35 -84t-96 -35l101 -170h-58l-99 170h-55l-34 -170h-54l77 388h131q122 0 122 -99zM122 225l-27 -133h85q93 0 93 75q0 58 -76 58h-75z" />
    <glyph glyph-name="S.subs" horiz-adv-x="362" 
d="M125 -129q-69 0 -107.5 28t-38.5 77q0 12 3 29h58q0 -4 -0.5 -11.5t-0.5 -10.5q0 -31 23.5 -48.5t67.5 -17.5q42 0 66 16t24 47q0 30 -23.5 46.5t-76.5 36.5q-28 10 -46 19.5t-34 31.5t-16 52q0 52 38.5 81.5t104.5 29.5q65 0 99 -26.5t34 -72.5q0 -12 -3 -29h-56
q1 10 1 21q0 29 -19.5 46t-57.5 17q-84 0 -84 -60q0 -21 15.5 -36.5t31.5 -22.5t48 -18q52 -17 78.5 -42t26.5 -67q0 -57 -42 -86.5t-114 -29.5z" />
    <glyph glyph-name="T.subs" horiz-adv-x="324" 
d="M62 -120l68 341h-120l9 47h295l-9 -47h-120l-68 -341h-55z" />
    <glyph glyph-name="U.subs" horiz-adv-x="404" 
d="M140 -129q-132 0 -132 113q0 19 6 45l48 239h54l-49 -246q-4 -17 -4 -34q0 -68 80 -68q45 0 69 20t33 63l53 265h54l-55 -274q-25 -123 -157 -123z" />
    <glyph glyph-name="V.subs" horiz-adv-x="366" 
d="M303 268h60l-225 -388h-54l-72 388h55l54 -322z" />
    <glyph glyph-name="W.subs" horiz-adv-x="525" 
d="M466 268h57l-189 -388h-58l-24 312l-147 -312h-57l-36 388h51l27 -311l146 311h58l23 -305z" />
    <glyph glyph-name="X.subs" horiz-adv-x="392" 
d="M-62 -120l193 209l-99 179h60l77 -139l129 139h71l-172 -183l112 -205h-60l-90 164l-149 -164h-72z" />
    <glyph glyph-name="Y.subs" horiz-adv-x="332" 
d="M66 -120l34 167l-88 221h55l66 -166l133 166h64l-175 -221l-34 -167h-55z" />
    <glyph glyph-name="Z.subs" horiz-adv-x="340" 
d="M-55 -120l269 339h-192l10 49h285l-269 -339h209l-10 -49h-302z" />
    <glyph glyph-name="a.subs" horiz-adv-x="356" 
d="M147 180q117 0 117 -95q0 -20 -5 -47l-32 -158h-52l7 36q-37 -43 -106 -43q-98 0 -98 82q0 97 150 97h81q5 21 5 32q0 54 -68 54q-71 0 -81 -56h-53q18 98 135 98zM91 -85q91 0 111 101h-73q-97 0 -97 -56q0 -45 59 -45z" />
    <glyph glyph-name="b.subs" horiz-adv-x="378" 
d="M186 180q59 0 87.5 -36t28.5 -94q0 -73 -42 -124.5t-111 -51.5q-80 0 -101 59l-10 -53h-51l84 424h52l-33 -167q37 43 96 43zM134 -79q53 0 83.5 36.5t30.5 88.5q0 39 -19 63t-58 24t-66 -26t-36 -72q-6 -30 -6 -46q0 -32 19 -50t52 -18z" />
    <glyph glyph-name="c.subs" horiz-adv-x="344" 
d="M115 -126q-63 0 -94.5 35.5t-31.5 94.5q0 74 45.5 125t119.5 51q59 0 90 -30t31 -86h-56q0 33 -17 51t-50 18q-52 0 -80 -37t-28 -90q0 -39 18.5 -62t55.5 -23q34 0 56.5 17.5t27.5 46.5h56q-10 -52 -49 -81.5t-94 -29.5z" />
    <glyph glyph-name="d.subs" horiz-adv-x="379" 
d="M279 304h52l-85 -424h-51l8 37q-39 -44 -98 -44q-60 0 -88 35.5t-28 93.5q0 73 42 125t111 52q79 0 101 -60zM120 -80q39 0 66 25.5t36 71.5q6 31 6 47q0 32 -19.5 50t-52.5 18q-53 0 -83 -36.5t-30 -89.5q0 -86 77 -86z" />
    <glyph glyph-name="e.subs" horiz-adv-x="357" 
d="M278 16h-236v-13q0 -87 80 -87q76 0 95 65h52q-12 -50 -53 -78.5t-95 -28.5q-67 0 -99.5 35t-32.5 96q0 75 46.5 125t121.5 50q59 0 92.5 -31.5t33.5 -91.5q0 -16 -5 -41zM154 138q-81 0 -106 -86h183v8q0 78 -77 78z" />
    <glyph glyph-name="f.subs" horiz-adv-x="214" 
d="M-8 -120l50 248h-48l9 44h47l11 51q16 87 107 87q23 0 42 -4l-9 -43q-12 3 -28 3q-54 0 -63 -51l-8 -43h80l-9 -44h-80l-50 -248h-51z" />
    <glyph glyph-name="g.subs" horiz-adv-x="377" 
d="M253 172h50l-60 -299q-23 -120 -157 -120q-63 0 -95 24.5t-30 73.5h54q-3 -56 72 -56q88 0 105 82l8 38q-39 -42 -95 -42q-60 0 -88 36t-28 94q0 73 42 124.5t111 51.5q80 0 101 -61zM120 -79q38 0 65 25.5t37 71.5q6 30 6 46q0 32 -19.5 50t-52.5 18q-53 0 -83 -36.5
t-30 -88.5q0 -86 77 -86z" />
    <glyph glyph-name="h.subs" horiz-adv-x="374" 
d="M183 180q97 0 97 -100q0 -16 -5 -43l-30 -157h-52l30 155q5 23 5 36q0 62 -63 62q-75 0 -92 -82l-34 -171h-52l84 424h52l-32 -161q36 37 92 37z" />
    <glyph glyph-name="i.subs" horiz-adv-x="170" 
d="M90 235q-15 0 -25 9.5t-10 23.5q0 15 9.5 25.5t25.5 10.5q15 0 25 -10t10 -25q0 -14 -10 -24t-25 -10zM-14 -120l59 292h52l-59 -292h-52z" />
    <glyph glyph-name="j.subs" horiz-adv-x="170" 
d="M90 235q-15 0 -25 9.5t-10 23.5q0 15 9.5 25.5t25.5 10.5q14 0 24.5 -10t10.5 -25q0 -14 -10.5 -24t-24.5 -10zM-64 -242q-18 0 -35 3l10 47q8 -2 20 -2q41 0 48 40l66 326h52l-68 -336q-8 -41 -30 -59.5t-63 -18.5z" />
    <glyph glyph-name="k.subs" horiz-adv-x="308" 
d="M280 172l-163 -140l120 -152h-61l-109 142l-28 -142h-52l84 424h52l-49 -248l134 116h72z" />
    <glyph glyph-name="l.subs" horiz-adv-x="170" 
d="M-14 -120l84 424h52l-84 -424h-52z" />
    <glyph glyph-name="m.subs" horiz-adv-x="562" 
d="M374 180q95 0 95 -100q0 -16 -5 -43l-31 -157h-51l30 155q5 23 5 36q0 62 -58 62q-72 0 -89 -82l-34 -171h-51l30 155q5 23 5 36q0 62 -58 62q-72 0 -89 -82l-34 -171h-52l59 292h48l-6 -32q34 40 91 40q71 0 88 -60q38 60 107 60z" />
    <glyph glyph-name="n.subs" horiz-adv-x="374" 
d="M183 180q97 0 97 -100q0 -16 -5 -43l-30 -157h-52l30 155q5 23 5 36q0 62 -63 62q-75 0 -92 -82l-34 -171h-52l59 292h48l-7 -34q37 42 96 42z" />
    <glyph glyph-name="o.subs" horiz-adv-x="357" 
d="M120 -127q-64 0 -97 37t-33 95q0 74 45 124.5t116 50.5q65 0 97.5 -37.5t32.5 -96.5q0 -73 -45 -123t-116 -50zM123 -80q50 0 77 36.5t27 90.5q0 39 -19 62.5t-59 23.5q-50 0 -77.5 -37t-27.5 -91q0 -38 19.5 -61.5t59.5 -23.5z" />
    <glyph glyph-name="p.subs" horiz-adv-x="378" 
d="M186 180q60 0 88 -36t28 -94q0 -73 -42 -124.5t-111 -51.5q-78 0 -100 56l-35 -171h-52l83 413h50l-8 -38q39 46 99 46zM135 -79q53 0 83 36.5t30 88.5q0 39 -19 63t-58 24t-66 -26t-36 -72q-6 -30 -6 -46q0 -33 19.5 -50.5t52.5 -17.5z" />
    <glyph glyph-name="q.subs" horiz-adv-x="378" 
d="M253 172h50l-82 -413h-52l32 156q-39 -42 -96 -42q-60 0 -88 35.5t-28 93.5q0 73 42 125t111 52q80 0 101 -61zM120 -80q38 0 65 25.5t37 71.5q6 31 6 47q0 32 -19.5 50t-52.5 18q-53 0 -83 -36.5t-30 -89.5q0 -86 77 -86z" />
    <glyph glyph-name="r.subs" horiz-adv-x="230" 
d="M174 177q18 0 31 -5l-10 -48q-10 3 -26 3q-81 0 -100 -95l-30 -152h-52l59 292h48l-8 -36q34 41 88 41z" />
    <glyph glyph-name="s.subs" horiz-adv-x="305" 
d="M92 -128q-116 0 -116 88q0 11 1 17h52q-1 -4 -1 -12q0 -51 67 -51t67 45q0 15 -9.5 25.5t-20 15t-32.5 11.5q-43 14 -65 32t-22 52q0 40 30.5 62.5t80.5 22.5q106 0 106 -81q0 -8 -1 -13h-49v11q0 44 -58 44q-57 0 -57 -43q0 -13 10.5 -22.5t19.5 -12.5t35 -11
q43 -14 64.5 -34t21.5 -55q0 -44 -34 -67.5t-90 -23.5z" />
    <glyph glyph-name="t.subs" horiz-adv-x="233" 
d="M91 -124q-43 0 -62.5 16.5t-19.5 54.5q0 19 4 36l29 145h-48l9 44h48l14 71h52l-14 -71h88l-9 -44h-88l-30 -148q-3 -13 -3 -23q0 -36 43 -36q15 0 37 5l-9 -46q-19 -4 -41 -4z" />
    <glyph glyph-name="u.subs" horiz-adv-x="374" 
d="M248 172h52l-58 -292h-49l7 34q-35 -41 -95 -41q-98 0 -98 99q0 16 5 44l31 156h51l-30 -155q-5 -23 -5 -36q0 -61 63 -61q75 0 92 82z" />
    <glyph glyph-name="v.subs" horiz-adv-x="318" 
d="M56 -120l-56 292h53l43 -229l134 229h60l-173 -292h-61z" />
    <glyph glyph-name="w.subs" horiz-adv-x="477" 
d="M390 172h59l-164 -292h-50l-25 223l-112 -223h-52l-46 292h53l28 -227l117 227h48l24 -224z" />
    <glyph glyph-name="x.subs" horiz-adv-x="334" 
d="M-54 -120l147 150l-86 142h57l63 -106l106 106h68l-144 -143l88 -149h-56l-67 112l-109 -112h-67z" />
    <glyph glyph-name="y.subs" horiz-adv-x="325" 
d="M237 172h61l-262 -412h-58l78 123l-56 289h53l40 -235z" />
    <glyph glyph-name="z.subs" horiz-adv-x="298" 
d="M264 172l-217 -247h166l-9 -45h-260l219 248h-154l9 44h246z" />
    <glyph glyph-name="A.sups" horiz-adv-x="371" 
d="M349 438l-14 94h-178l-52 -94h-59l215 388h82l61 -388h-55zM181 577h147l-32 207h-1z" />
    <glyph glyph-name="B.sups" horiz-adv-x="379" 
d="M341 638q61 -21 61 -85q0 -115 -153 -115h-138l77 388h115q120 0 120 -90q0 -78 -82 -98zM234 785l-25 -127h66q90 0 90 70q0 57 -73 57h-58zM245 479q101 0 101 73q0 68 -77 68h-68l-28 -141h72z" />
    <glyph glyph-name="C.sups" horiz-adv-x="427" 
d="M272 429q-73 0 -114.5 44.5t-41.5 124.5q0 98 59 167.5t160 69.5q65 0 105.5 -35.5t39.5 -100.5q0 -8 -2 -15h-57q7 103 -93 103q-73 0 -114.5 -56t-41.5 -130q0 -60 27.5 -91.5t77.5 -31.5q47 0 80 24t44 68h56q-15 -68 -64 -104.5t-121 -36.5z" />
    <glyph glyph-name="D.sups" horiz-adv-x="431" 
d="M111 438l77 388h114q89 0 128.5 -41t39.5 -121q0 -98 -58 -162t-159 -64h-142zM174 486h80q76 0 117.5 50t41.5 128q0 115 -114 115h-66z" />
    <glyph glyph-name="E.sups" horiz-adv-x="343" 
d="M111 438l77 388h234l-9 -46h-180l-24 -121h178l-10 -47h-178l-25 -127h180l-9 -47h-234z" />
    <glyph glyph-name="F.sups" horiz-adv-x="331" 
d="M111 438l77 388h228l-9 -46h-174l-24 -122h172l-10 -47h-172l-34 -173h-54z" />
    <glyph glyph-name="G.sups" horiz-adv-x="433" 
d="M304 598l9 44h161l-6 -31q-16 -87 -64.5 -134.5t-127.5 -47.5q-80 0 -120.5 46t-40.5 122q0 99 59.5 168.5t156.5 69.5q69 0 109 -35.5t40 -103.5h-55q0 48 -26.5 70t-70.5 22q-70 0 -113 -53.5t-43 -134.5q0 -123 108 -123t131 121h-107z" />
    <glyph glyph-name="H.sups" horiz-adv-x="437" 
d="M111 438l77 388h54l-33 -166h186l33 166h54l-77 -388h-54l34 173h-186l-34 -173h-54z" />
    <glyph glyph-name="I.sups" horiz-adv-x="197" 
d="M111 438l77 388h54l-77 -388h-54z" />
    <glyph glyph-name="J.sups" horiz-adv-x="226" 
d="M90 436q-20 0 -36 3l10 52q16 -2 27 -2q39 0 59 17t28 59l52 261h56l-55 -272q-12 -61 -45.5 -89.5t-95.5 -28.5z" />
    <glyph glyph-name="K.sups" horiz-adv-x="369" 
d="M452 826l-196 -181l143 -207h-63l-133 192l-38 -192h-54l77 388h54l-32 -160l170 160h72z" />
    <glyph glyph-name="L.sups" horiz-adv-x="297" 
d="M111 438l77 388h54l-67 -338h157l-9 -50h-212z" />
    <glyph glyph-name="M.sups" horiz-adv-x="535" 
d="M111 438l77 388h61l73 -298l189 298h69l-77 -388h-52l60 302l-191 -302h-25l-72 302l-61 -302h-51z" />
    <glyph glyph-name="N.sups" horiz-adv-x="452" 
d="M111 438l77 388h56l139 -307l61 307h53l-77 -388h-56l-139 307l-61 -307h-53z" />
    <glyph glyph-name="O.sups" horiz-adv-x="444" 
d="M270 429q-154 0 -154 168q0 102 58 170t154 68q156 0 156 -166q0 -103 -58.5 -171.5t-155.5 -68.5zM273 479q73 0 114 55.5t41 136.5q0 114 -102 114q-73 0 -113 -55.5t-40 -137.5q0 -113 100 -113z" />
    <glyph glyph-name="P.sups" horiz-adv-x="357" 
d="M111 438l77 388h120q124 0 124 -102q0 -116 -146 -116h-87l-34 -170h-54zM208 651h69q100 0 100 73q0 58 -76 58h-67z" />
    <glyph glyph-name="Q.sups" horiz-adv-x="444" 
d="M484 669q0 -80 -36 -141t-100 -85l29 -72l-45 -17l-28 77q-22 -2 -34 -2q-154 0 -154 168q0 102 58 170t154 68q156 0 156 -166zM330 490q47 20 72.5 69t25.5 112q0 114 -102 114q-73 0 -113 -55.5t-40 -137.5q0 -113 100 -113q9 0 13 1l-17 46l40 16z" />
    <glyph glyph-name="R.sups" horiz-adv-x="380" 
d="M441 727q0 -52 -35 -84t-96 -35l101 -170h-58l-99 170h-55l-34 -170h-54l77 388h131q122 0 122 -99zM234 783l-27 -133h85q93 0 93 75q0 58 -76 58h-75z" />
    <glyph glyph-name="S.sups" horiz-adv-x="362" 
d="M237 429q-69 0 -107.5 28t-38.5 77q0 12 3 29h58q0 -4 -0.5 -11.5t-0.5 -10.5q0 -31 23.5 -48.5t67.5 -17.5q42 0 66 16t24 47q0 30 -23.5 46.5t-76.5 36.5q-28 10 -46 19.5t-34 31.5t-16 52q0 52 38.5 81.5t104.5 29.5q65 0 99 -26.5t34 -72.5q0 -12 -3 -29h-56
q1 10 1 21q0 29 -19.5 46t-57.5 17q-84 0 -84 -60q0 -21 15.5 -36.5t31.5 -22.5t48 -18q52 -17 78.5 -42t26.5 -67q0 -57 -42 -86.5t-114 -29.5z" />
    <glyph glyph-name="T.sups" horiz-adv-x="324" 
d="M174 438l68 341h-120l9 47h295l-9 -47h-120l-68 -341h-55z" />
    <glyph glyph-name="U.sups" horiz-adv-x="404" 
d="M252 429q-132 0 -132 113q0 20 6 45l48 239h54l-49 -246q-4 -17 -4 -33q0 -69 80 -69q45 0 69 20t33 63l53 265h54l-55 -274q-25 -123 -157 -123z" />
    <glyph glyph-name="V.sups" horiz-adv-x="366" 
d="M415 826h60l-225 -388h-54l-72 388h55l54 -322z" />
    <glyph glyph-name="W.sups" horiz-adv-x="525" 
d="M578 826h57l-189 -388h-58l-24 312l-147 -312h-57l-36 388h51l27 -310l146 310h58l23 -304z" />
    <glyph glyph-name="X.sups" horiz-adv-x="392" 
d="M50 438l193 209l-99 179h60l77 -139l129 139h71l-172 -183l112 -205h-60l-90 164l-149 -164h-72z" />
    <glyph glyph-name="Y.sups" horiz-adv-x="332" 
d="M178 438l34 167l-88 221h55l66 -166l133 166h64l-175 -221l-34 -167h-55z" />
    <glyph glyph-name="Z.sups" horiz-adv-x="340" 
d="M57 438l269 339h-192l10 49h285l-269 -339h209l-10 -49h-302z" />
    <glyph glyph-name="a.sups" horiz-adv-x="356" 
d="M259 738q117 0 117 -95q0 -20 -5 -47l-32 -158h-52l7 36q-37 -43 -106 -43q-98 0 -98 82q0 97 150 97h81q5 21 5 32q0 54 -68 54q-71 0 -81 -56h-53q18 98 135 98zM203 473q91 0 111 101h-73q-97 0 -97 -56q0 -45 59 -45z" />
    <glyph glyph-name="b.sups" horiz-adv-x="378" 
d="M298 738q59 0 87.5 -36t28.5 -94q0 -73 -42 -124.5t-111 -51.5q-80 0 -101 59l-10 -53h-51l84 424h52l-33 -167q37 43 96 43zM246 479q53 0 83.5 36.5t30.5 88.5q0 39 -19 63t-58 24t-66 -26t-36 -72q-6 -30 -6 -46q0 -32 19 -50t52 -18z" />
    <glyph glyph-name="c.sups" horiz-adv-x="344" 
d="M227 432q-63 0 -94.5 35.5t-31.5 94.5q0 74 45.5 125t119.5 51q59 0 90 -30t31 -86h-56q0 33 -17 51t-50 18q-52 0 -80 -37t-28 -90q0 -39 18.5 -62t55.5 -23q34 0 56.5 17.5t27.5 46.5h56q-10 -52 -49 -81.5t-94 -29.5z" />
    <glyph glyph-name="d.sups" horiz-adv-x="379" 
d="M391 862h52l-85 -424h-51l8 37q-39 -44 -98 -44q-60 0 -88 35.5t-28 93.5q0 73 42 125t111 52q79 0 101 -60zM232 478q39 0 66 25.5t36 71.5q6 31 6 47q0 32 -19.5 50t-52.5 18q-53 0 -83 -36.5t-30 -89.5q0 -86 77 -86z" />
    <glyph glyph-name="e.sups" horiz-adv-x="357" 
d="M390 574h-236v-13q0 -87 80 -87q76 0 95 65h52q-12 -50 -53 -78.5t-95 -28.5q-67 0 -99.5 35t-32.5 96q0 75 46.5 125t121.5 50q59 0 92.5 -31.5t33.5 -91.5q0 -16 -5 -41zM266 696q-81 0 -106 -86h183v8q0 78 -77 78z" />
    <glyph glyph-name="f.sups" horiz-adv-x="214" 
d="M104 438l50 248h-48l9 44h47l11 51q16 87 107 87q23 0 42 -4l-9 -43q-12 3 -28 3q-54 0 -63 -51l-8 -43h80l-9 -44h-80l-50 -248h-51z" />
    <glyph glyph-name="g.sups" horiz-adv-x="377" 
d="M365 730h50l-60 -299q-23 -120 -157 -120q-63 0 -95 24.5t-30 73.5h54q-3 -56 72 -56q88 0 105 82l8 38q-39 -42 -95 -42q-60 0 -88 36t-28 94q0 73 42 124.5t111 51.5q80 0 101 -61zM232 479q38 0 65 25.5t37 71.5q6 30 6 46q0 32 -19.5 50t-52.5 18q-53 0 -83 -36.5
t-30 -88.5q0 -86 77 -86z" />
    <glyph glyph-name="h.sups" horiz-adv-x="374" 
d="M295 738q97 0 97 -100q0 -16 -5 -43l-30 -157h-52l30 155q5 23 5 36q0 62 -63 62q-75 0 -92 -82l-34 -171h-52l84 424h52l-32 -161q36 37 92 37z" />
    <glyph glyph-name="i.sups" horiz-adv-x="170" 
d="M202 793q-15 0 -25 9.5t-10 23.5q0 15 9.5 25.5t25.5 10.5q15 0 25 -10t10 -25q0 -14 -10 -24t-25 -10zM98 438l59 292h52l-59 -292h-52z" />
    <glyph glyph-name="j.sups" horiz-adv-x="170" 
d="M202 793q-15 0 -25 9.5t-10 23.5q0 15 9.5 25.5t25.5 10.5q14 0 24.5 -10t10.5 -25q0 -14 -10.5 -24t-24.5 -10zM48 316q-19 0 -35 3l10 47q8 -2 20 -2q41 0 48 40l66 326h52l-68 -336q-8 -41 -30 -59.5t-63 -18.5z" />
    <glyph glyph-name="k.sups" horiz-adv-x="308" 
d="M392 730l-163 -140l120 -152h-61l-109 142l-28 -142h-52l84 424h52l-49 -248l134 116h72z" />
    <glyph glyph-name="l.sups" horiz-adv-x="170" 
d="M98 438l84 424h52l-84 -424h-52z" />
    <glyph glyph-name="m.sups" horiz-adv-x="562" 
d="M486 738q95 0 95 -100q0 -16 -5 -43l-31 -157h-51l30 155q5 23 5 36q0 62 -58 62q-72 0 -89 -82l-34 -171h-51l30 155q5 23 5 36q0 62 -58 62q-72 0 -89 -82l-34 -171h-52l59 292h48l-6 -32q34 40 91 40q72 0 88 -60q38 60 107 60z" />
    <glyph glyph-name="n.sups" horiz-adv-x="374" 
d="M295 738q97 0 97 -100q0 -16 -5 -43l-30 -157h-52l30 155q5 23 5 36q0 62 -63 62q-75 0 -92 -82l-34 -171h-52l59 292h48l-7 -34q37 42 96 42z" />
    <glyph glyph-name="o.sups" horiz-adv-x="357" 
d="M232 431q-64 0 -97 37t-33 95q0 74 45 124.5t116 50.5q65 0 97.5 -37.5t32.5 -96.5q0 -73 -45 -123t-116 -50zM235 478q50 0 77 37t27 90q0 39 -19 62.5t-59 23.5q-50 0 -77.5 -37t-27.5 -91q0 -38 19.5 -61.5t59.5 -23.5z" />
    <glyph glyph-name="p.sups" horiz-adv-x="378" 
d="M298 738q60 0 88 -36t28 -94q0 -73 -42 -124.5t-111 -51.5q-78 0 -100 56l-35 -171h-52l83 413h50l-8 -38q39 46 99 46zM247 479q53 0 83 36.5t30 88.5q0 39 -19 63t-58 24t-66 -26t-36 -72q-6 -30 -6 -46q0 -33 19.5 -50.5t52.5 -17.5z" />
    <glyph glyph-name="q.sups" horiz-adv-x="378" 
d="M365 730h50l-82 -413h-52l32 156q-39 -42 -96 -42q-60 0 -88 35.5t-28 93.5q0 73 42 125t111 52q80 0 101 -61zM232 478q38 0 65 25.5t37 71.5q6 31 6 47q0 32 -19.5 50t-52.5 18q-53 0 -83 -36.5t-30 -89.5q0 -86 77 -86z" />
    <glyph glyph-name="r.sups" horiz-adv-x="230" 
d="M286 735q18 0 31 -5l-10 -48q-11 3 -26 3q-81 0 -100 -95l-30 -152h-52l59 292h48l-8 -36q34 41 88 41z" />
    <glyph glyph-name="s.sups" horiz-adv-x="305" 
d="M204 430q-116 0 -116 88q0 11 1 17h52q-1 -4 -1 -12q0 -51 67 -51t67 45q0 15 -9.5 25.5t-20 15t-32.5 11.5q-43 14 -65 32t-22 52q0 40 30.5 62.5t80.5 22.5q106 0 106 -81q0 -8 -1 -13h-49v11q0 44 -58 44q-57 0 -57 -43q0 -13 10.5 -22.5t19.5 -12.5t35 -11
q43 -14 64.5 -34t21.5 -55q0 -44 -34 -67.5t-90 -23.5z" />
    <glyph glyph-name="t.sups" horiz-adv-x="233" 
d="M203 434q-43 0 -62.5 16.5t-19.5 54.5q0 19 4 36l29 145h-48l9 44h48l14 71h52l-14 -71h88l-9 -44h-88l-30 -148q-3 -14 -3 -23q0 -36 43 -36q15 0 37 5l-9 -46q-19 -4 -41 -4z" />
    <glyph glyph-name="u.sups" horiz-adv-x="374" 
d="M360 730h52l-58 -292h-49l7 34q-35 -41 -95 -41q-98 0 -98 99q0 16 5 44l31 156h51l-30 -155q-5 -23 -5 -36q0 -61 63 -61q75 0 92 82z" />
    <glyph glyph-name="v.sups" horiz-adv-x="318" 
d="M168 438l-56 292h53l43 -229l134 229h60l-173 -292h-61z" />
    <glyph glyph-name="w.sups" horiz-adv-x="477" 
d="M502 730h59l-164 -292h-50l-25 223l-112 -223h-52l-46 292h53l28 -227l117 227h48l24 -224z" />
    <glyph glyph-name="x.sups" horiz-adv-x="334" 
d="M58 438l147 150l-86 142h57l63 -106l106 106h68l-144 -143l88 -149h-56l-67 112l-109 -112h-67z" />
    <glyph glyph-name="y.sups" horiz-adv-x="325" 
d="M349 730h61l-262 -412h-58l78 123l-56 289h53l40 -235z" />
    <glyph glyph-name="z.sups" horiz-adv-x="298" 
d="M376 730l-217 -247h166l-9 -45h-260l219 248h-154l9 44h246z" />
    <glyph glyph-name="zero.lf" horiz-adv-x="652" 
d="M300 -15q-116 0 -170.5 67.5t-54.5 180.5q0 77 15 147q21 99 59 173t102 121t145 47q116 0 170.5 -67.5t54.5 -180.5q0 -77 -15 -147q-21 -99 -59 -173t-102 -121t-145 -47zM302 49q90 0 148.5 78t82.5 201q15 77 15 143q0 186 -153 186q-91 0 -149.5 -78t-82.5 -201
q-15 -77 -15 -143q0 -186 154 -186z" />
    <glyph glyph-name="one.lf" horiz-adv-x="339" 
d="M108 0l129 642h-123l26 64h178l-141 -706h-69z" />
    <glyph glyph-name="two.lf" horiz-adv-x="548" 
d="M-20 0l1 3l342 296q56 48 84.5 77t50.5 70.5t22 86.5q0 58 -33 91.5t-102 33.5q-153 0 -187 -190h-69q22 116 86 184.5t174 68.5q103 0 153.5 -50t50.5 -136q0 -73 -37 -128.5t-113 -121.5q-47 -40 -263 -222h328l-12 -63h-476z" />
    <glyph glyph-name="three.lf" horiz-adv-x="582" 
d="M566 551q0 -74 -44.5 -120.5t-121.5 -59.5q115 -35 115 -158q0 -105 -72 -166.5t-190 -61.5q-116 0 -167.5 49.5t-51.5 144.5q0 35 7 69h67q-6 -33 -6 -63q0 -67 35.5 -102.5t117.5 -35.5q87 0 138.5 46t51.5 123q0 129 -177 129h-9l11 56h28q93 0 146 37.5t53 108.5
q0 55 -35 85.5t-104 30.5q-157 0 -189 -179h-69q21 112 86.5 174.5t176.5 62.5q101 0 152 -46t51 -124z" />
    <glyph glyph-name="four.lf" horiz-adv-x="578" 
d="M560 245l-13 -60h-100l-37 -185h-69l37 185h-385l1 3l427 518h130l-92 -461h101zM120 245h270l86 430h-1z" />
    <glyph glyph-name="five.lf" horiz-adv-x="570" 
d="M553 644h-287l-73 -199q51 12 101 12q113 0 168.5 -57.5t55.5 -157.5q0 -114 -74 -185.5t-193 -71.5q-211 0 -211 188q0 20 5 52h68q-4 -21 -4 -46q0 -133 143 -133q90 0 142 53t52 137q0 163 -186 163q-84 0 -159 -26l120 333h358z" />
    <glyph glyph-name="six.lf" horiz-adv-x="638" 
d="M367 455q101 0 156 -57.5t55 -148.5q0 -111 -79 -187.5t-196 -76.5q-225 0 -225 263q0 126 38 231.5t117 173.5t186 68q100 0 153.5 -55t53.5 -151h-69q1 70 -35.5 108.5t-104.5 38.5q-73 0 -130.5 -45.5t-89.5 -116t-45 -159.5q33 53 89 83.5t126 30.5zM304 45
q89 0 145.5 59.5t56.5 145.5q0 67 -39.5 107t-113.5 40q-91 0 -145.5 -57t-54.5 -141q0 -67 38.5 -110.5t112.5 -43.5z" />
    <glyph glyph-name="seven.lf" horiz-adv-x="502" 
d="M50 0l400 642h-336l12 64h445l-437 -706h-84z" />
    <glyph glyph-name="eight.lf" horiz-adv-x="621" 
d="M437 372q117 -36 117 -162q0 -103 -75 -164t-192 -61q-120 0 -180 50.5t-60 137.5q0 83 54 139.5t141 67.5q-53 18 -79.5 59t-26.5 96q0 86 69 136t173 50q111 0 169 -43.5t58 -122.5q0 -72 -46.5 -122t-121.5 -61zM206 526q0 -58 37.5 -91t108.5 -33q78 0 130 40.5
t52 103.5q0 57 -39.5 89t-117.5 32q-77 0 -124 -38t-47 -103zM289 43q85 0 138.5 45t53.5 119q0 63 -40.5 100t-119.5 37q-88 0 -144.5 -46t-56.5 -119q0 -63 42.5 -99.5t126.5 -36.5z" />
    <glyph glyph-name="nine.lf" horiz-adv-x="633" 
d="M380 723q225 0 225 -263q0 -93 -22.5 -177.5t-64 -151t-107.5 -105.5t-147 -39q-100 0 -153.5 55.5t-53.5 150.5h70q-1 -70 35.5 -108.5t103.5 -38.5q109 0 178 92.5t88 230.5q-32 -54 -88 -85t-127 -31q-101 0 -156 57.5t-55 148.5q0 112 78.5 188t195.5 76zM331 311
q90 0 144.5 57t54.5 141q0 67 -38.5 110.5t-112.5 43.5q-89 0 -145.5 -59.5t-56.5 -145.5q0 -67 40 -107t114 -40z" />
    <glyph glyph-name="zero.dnom" horiz-adv-x="424" 
d="M177 -8q-71 0 -104.5 42.5t-33.5 114.5q0 31 7 70q16 80 62 128.5t120 48.5q72 0 105.5 -42.5t33.5 -114.5q0 -31 -7 -70q-14 -79 -61.5 -128t-121.5 -49zM180 41q50 0 81 37.5t43 98.5q6 30 6 62q0 108 -84 108q-51 0 -82 -37.5t-43 -98.5q-6 -30 -6 -62q0 -108 85 -108
z" />
    <glyph glyph-name="one.dnom" horiz-adv-x="256" 
d="M60 0l67 337h-81l19 51h130l-78 -388h-57z" />
    <glyph glyph-name="two.dnom" horiz-adv-x="343" 
d="M-26 0l1 3l200 167q47 39 66 63.5t19 57.5q0 60 -71 60q-82 0 -100 -90h-54q12 64 50.5 100.5t103.5 36.5q63 0 94.5 -27.5t31.5 -77.5q0 -41 -21 -71.5t-64 -64.5l-128 -105h167l-10 -52h-285z" />
    <glyph glyph-name="three.dnom" horiz-adv-x="369" 
d="M331 299q0 -75 -85 -97q58 -20 58 -85q0 -59 -43.5 -93t-113.5 -34q-138 0 -138 116q0 16 3 34h51q-3 -14 -3 -27q0 -77 87 -77q47 0 74.5 22.5t27.5 60.5q0 63 -90 63h-12l9 43h21q98 0 98 69q0 58 -74 58q-45 0 -70.5 -24t-32.5 -61h-52q11 59 53 95t111 36
q59 0 90 -27t31 -72z" />
    <glyph glyph-name="four.dnom" horiz-adv-x="362" 
d="M186 0l20 99h-231v2l240 287h104l-48 -241h57l-10 -48h-57l-20 -99h-55zM77 147h138l44 221z" />
    <glyph glyph-name="five.dnom" horiz-adv-x="368" 
d="M146 -8q-134 0 -134 107q0 10 2 22h53q-1 -8 -1 -18q0 -65 82 -65q47 0 74.5 25t27.5 65q0 84 -114 84q-47 0 -90 -13l70 189h219l-16 -45h-166l-35 -93q22 4 41 4q74 0 110.5 -33t36.5 -89q0 -63 -44.5 -101.5t-115.5 -38.5z" />
    <glyph glyph-name="six.dnom" horiz-adv-x="410" 
d="M212 253q63 0 96.5 -33t33.5 -83q0 -63 -47 -104t-117 -41q-149 0 -149 153q0 107 54.5 179t147.5 72q61 0 94.5 -30t37.5 -83h-55q-6 69 -84 69q-56 0 -91 -42t-45 -109q46 52 124 52zM178 37q51 0 78.5 28t27.5 70q0 74 -87 74q-49 0 -79 -29t-30 -66q0 -35 23.5 -56
t66.5 -21z" />
    <glyph glyph-name="seven.dnom" horiz-adv-x="323" 
d="M13 0l220 338h-186l10 50h276l-253 -388h-67z" />
    <glyph glyph-name="eight.dnom" horiz-adv-x="385" 
d="M347 300q0 -34 -23.5 -61t-66.5 -36q62 -22 62 -90q0 -57 -45 -89t-115 -32q-71 0 -109 29.5t-38 81.5q0 42 27.5 70.5t75.5 36.5q-54 21 -54 81q0 49 41.5 77t104.5 28q68 0 104 -25t36 -71zM200 228q42 0 67.5 18t25.5 51q0 59 -89 59q-41 0 -65 -17.5t-24 -51.5
q0 -59 85 -59zM163 37q46 0 74 21t28 58q0 30 -23.5 48t-70.5 18q-45 0 -73.5 -21t-28.5 -56q0 -32 24.5 -50t69.5 -18z" />
    <glyph glyph-name="nine.dnom" horiz-adv-x="410" 
d="M232 396q149 0 149 -153q0 -107 -54.5 -179t-147.5 -72q-61 0 -94.5 30t-37.5 83h55q6 -69 84 -69q56 0 91 42t45 109q-46 -52 -124 -52q-63 0 -96.5 33t-33.5 83q0 63 47 104t117 41zM213 179q49 0 79 29t30 66q0 35 -23.5 56t-66.5 21q-51 0 -78.5 -28t-27.5 -70
q0 -74 87 -74z" />
    <glyph glyph-name="zero.numr" horiz-adv-x="424" 
d="M241 310q-71 0 -104.5 42.5t-33.5 114.5q0 31 7 70q16 80 62 128.5t120 48.5q72 0 105.5 -42.5t33.5 -114.5q0 -31 -7 -70q-14 -79 -61.5 -128t-121.5 -49zM244 359q50 0 81 37.5t43 98.5q6 30 6 62q0 108 -84 108q-51 0 -82 -37.5t-43 -98.5q-6 -30 -6 -62
q0 -108 85 -108z" />
    <glyph glyph-name="one.numr" horiz-adv-x="256" 
d="M124 318l67 337h-81l19 51h130l-78 -388h-57z" />
    <glyph glyph-name="two.numr" horiz-adv-x="343" 
d="M38 318l1 3l200 167q47 39 66 63.5t19 57.5q0 60 -71 60q-82 0 -100 -90h-54q12 64 50.5 100.5t103.5 36.5q63 0 94.5 -27.5t31.5 -77.5q0 -41 -21 -71.5t-64 -64.5l-128 -105h167l-10 -52h-285z" />
    <glyph glyph-name="three.numr" horiz-adv-x="369" 
d="M395 617q0 -75 -85 -97q58 -20 58 -85q0 -59 -43.5 -93t-113.5 -34q-138 0 -138 116q0 16 3 34h51q-3 -14 -3 -27q0 -77 87 -77q47 0 74.5 22.5t27.5 60.5q0 63 -90 63h-12l9 43h21q98 0 98 69q0 58 -74 58q-45 0 -70.5 -24t-32.5 -61h-52q11 59 53 95t111 36
q59 0 90 -27t31 -72z" />
    <glyph glyph-name="four.numr" horiz-adv-x="362" 
d="M250 318l20 99h-231v2l240 287h104l-48 -241h57l-10 -48h-57l-20 -99h-55zM141 465h138l44 221z" />
    <glyph glyph-name="five.numr" horiz-adv-x="368" 
d="M210 310q-134 0 -134 107q0 10 2 22h53q-1 -8 -1 -18q0 -65 82 -65q47 0 74.5 25t27.5 65q0 84 -114 84q-47 0 -90 -13l70 189h219l-16 -45h-166l-35 -93q22 4 41 4q74 0 110.5 -33t36.5 -89q0 -63 -44.5 -101.5t-115.5 -38.5z" />
    <glyph glyph-name="six.numr" horiz-adv-x="410" 
d="M276 571q63 0 96.5 -33t33.5 -83q0 -63 -47 -104t-117 -41q-149 0 -149 153q0 107 54.5 179t147.5 72q61 0 94.5 -30t37.5 -83h-55q-6 69 -84 69q-56 0 -91 -42t-45 -109q45 52 124 52zM242 355q51 0 78.5 28t27.5 70q0 74 -87 74q-49 0 -79 -29t-30 -66q0 -35 23.5 -56
t66.5 -21z" />
    <glyph glyph-name="seven.numr" horiz-adv-x="323" 
d="M77 318l220 338h-186l10 50h276l-253 -388h-67z" />
    <glyph glyph-name="eight.numr" horiz-adv-x="385" 
d="M411 618q0 -34 -23.5 -61t-66.5 -36q62 -22 62 -90q0 -57 -45 -89t-115 -32q-71 0 -109 29.5t-38 81.5q0 42 27.5 70.5t75.5 36.5q-54 21 -54 81q0 49 41.5 77t104.5 28q68 0 104 -25t36 -71zM264 546q42 0 67.5 18t25.5 51q0 59 -89 59q-41 0 -65 -17.5t-24 -51.5
q0 -59 85 -59zM227 355q46 0 74 21t28 58q0 30 -23.5 48t-70.5 18q-45 0 -73.5 -21t-28.5 -56q0 -32 24.5 -50t69.5 -18z" />
    <glyph glyph-name="nine.numr" horiz-adv-x="410" 
d="M296 714q149 0 149 -153q0 -107 -54.5 -179t-147.5 -72q-61 0 -94.5 30t-37.5 83h55q6 -69 84 -69q56 0 91 42t45 109q-46 -52 -124 -52q-63 0 -96.5 33t-33.5 83q0 63 47 104t117 41zM277 497q49 0 79 29t30 66q0 35 -23.5 56t-66.5 21q-51 0 -78.5 -28t-27.5 -70
q0 -74 87 -74z" />
    <glyph glyph-name="zero.sc" horiz-adv-x="592" 
d="M256 -13q-184 0 -184 214q0 50 12 117q24 122 94.5 198.5t176.5 76.5q183 0 183 -214q0 -58 -12 -117q-23 -122 -93.5 -198.5t-176.5 -76.5zM262 50q77 0 126.5 61.5t68.5 159.5q11 53 11 109q0 72 -26.5 111t-91.5 39q-78 0 -127.5 -61t-68.5 -159q-12 -60 -12 -109
q0 -151 120 -151z" />
    <glyph glyph-name="one.sc" horiz-adv-x="333" 
d="M92 0l104 516h-104l26 65h158l-116 -581h-68z" />
    <glyph glyph-name="two.sc" horiz-adv-x="491" 
d="M-17 0l1 3l290 250q76 66 97 93q30 40 30 85q0 100 -107 100q-126 0 -154 -148h-67q40 210 224 210q88 0 131.5 -42.5t43.5 -116.5q0 -58 -30.5 -100.5t-94.5 -95.5q-37 -30 -110 -90t-104 -85h275l-13 -63h-412z" />
    <glyph glyph-name="three.sc" horiz-adv-x="527" 
d="M488 451q0 -59 -36.5 -97t-101.5 -52q97 -26 97 -130q0 -85 -64 -135t-164 -50q-99 0 -143 41.5t-44 119.5q0 21 5 58h66q-4 -23 -4 -47q0 -112 124 -112q71 0 112.5 35t41.5 92q0 105 -147 105h-6l10 53h26q78 0 118.5 30t40.5 83q0 92 -108 92q-129 0 -159 -137h-65
q37 193 233 193q84 0 126 -38t42 -104z" />
    <glyph glyph-name="four.sc" horiz-adv-x="509" 
d="M480 207l-12 -61h-86l-29 -146h-68l29 146h-327v3l354 432h128l-75 -374h86zM108 207h219l69 345h-2z" />
    <glyph glyph-name="five.sc" horiz-adv-x="516" 
d="M225 -13q-186 0 -186 152q0 26 4 50h66q-4 -26 -4 -39q0 -48 29.5 -75.5t91.5 -27.5q74 0 115 41.5t41 107.5q0 127 -162 127q-72 0 -129 -17l100 275h311l-26 -62h-243l-56 -152q37 10 81 10q98 0 146 -48t48 -131q0 -94 -62 -152.5t-165 -58.5z" />
    <glyph glyph-name="six.sc" horiz-adv-x="579" 
d="M326 376q88 0 134 -46.5t46 -123.5q0 -94 -67.5 -156.5t-168.5 -62.5q-197 0 -197 213q0 107 31.5 194.5t98.5 143t158 55.5q87 0 134.5 -45t49.5 -124h-67q-1 53 -32.5 82.5t-85.5 29.5q-89 0 -143.5 -70t-70.5 -178q62 88 180 88zM271 47q73 0 119 45t46 112
q0 53 -31 84.5t-94 31.5q-71 0 -117 -44.5t-46 -109.5q0 -52 30.5 -85.5t92.5 -33.5z" />
    <glyph glyph-name="seven.sc" horiz-adv-x="451" 
d="M42 0l332 516h-282l14 65h386l-367 -581h-83z" />
    <glyph glyph-name="eight.sc" horiz-adv-x="562" 
d="M525 460q0 -61 -39 -102.5t-102 -51.5q98 -29 98 -135q0 -86 -65.5 -135t-168.5 -49q-101 0 -151.5 42t-50.5 115q0 68 44.5 114.5t116.5 55.5q-90 28 -90 116q0 77 64 120t161 43q90 0 136.5 -35t46.5 -98zM308 334q65 0 106.5 32t41.5 85q0 42 -29 66t-87 24
q-70 0 -112 -30t-42 -83q0 -44 31.5 -69t90.5 -25zM412 171q0 50 -33.5 79t-97.5 29q-71 0 -117.5 -36t-46.5 -93q0 -49 34 -77.5t101 -28.5q71 0 115.5 35t44.5 92z" />
    <glyph glyph-name="nine.sc" horiz-adv-x="579" 
d="M329 593q197 0 197 -214q0 -106 -31.5 -193.5t-98.5 -143t-158 -55.5q-87 0 -134.5 45t-49.5 123h67q1 -52 33 -81.5t86 -29.5q87 0 141.5 69t71.5 177q-64 -87 -180 -87q-88 0 -134 47t-46 124q0 94 67.5 156.5t168.5 62.5zM288 259q71 0 117 44.5t46 109.5
q0 53 -30.5 86.5t-92.5 33.5q-73 0 -119 -45t-46 -112q0 -53 31 -85t94 -32z" />
    <glyph glyph-name="colon.case" horiz-adv-x="270" 
d="M194 487q-23 0 -37 14t-14 36q0 23 14 37t37 14q22 0 36.5 -14t14.5 -37q0 -22 -14.5 -36t-36.5 -14zM122 125q-23 0 -37 14t-14 36q0 23 14 37.5t37 14.5q22 0 36.5 -14.5t14.5 -37.5q0 -22 -14.5 -36t-36.5 -14z" />
    <glyph glyph-name="semicolon.case" horiz-adv-x="290" 
d="M189 487q-23 0 -37 14t-14 36q0 23 14 37t37 14q22 0 36.5 -14t14.5 -37q0 -22 -14.5 -36t-36.5 -14zM-27 -31l128 325h68l-141 -325h-55z" />
    <glyph glyph-name="exclamdown.case" horiz-adv-x="264" 
d="M217 715q23 0 37 -14t14 -36q0 -23 -14 -37.5t-37 -14.5q-22 0 -36.5 14.5t-14.5 37.5q0 22 14.5 36t36.5 14zM216 519l-96 -523h-73l112 523h57z" />
    <glyph glyph-name="questiondown.case" horiz-adv-x="482" 
d="M333 720q23 0 37 -14t14 -36q0 -23 -14 -37.5t-37 -14.5q-22 0 -36.5 14.5t-14.5 37.5q0 22 14.5 36t36.5 14zM345 524q-144 -168 -178 -214q-74 -102 -74 -168q0 -44 28 -71.5t90 -27.5q75 0 109.5 38.5t48.5 112.5h67q-18 -101 -71.5 -154.5t-155.5 -53.5
q-93 0 -140 42.5t-47 114.5q0 68 46.5 139t162.5 207q20 23 30 35h84z" />
    <glyph glyph-name="periodcentered.case" horiz-adv-x="264" 
d="M159 326q-23 0 -37 13.5t-14 36.5t14 37t37 14q22 0 36.5 -14t14.5 -37q0 -22 -15 -36t-36 -14z" />
    <glyph glyph-name="periodcentered.loclCAT.case" horiz-adv-x="39" 
d="M-59 338q-23 0 -37 14t-14 36q0 23 14 37.5t37 14.5q22 0 36.5 -14.5t14.5 -37.5q0 -22 -14.5 -36t-36.5 -14z" />
    <glyph glyph-name="slash.case" horiz-adv-x="435" 
d="M-22 -50l462 806h74l-462 -806h-74z" />
    <glyph glyph-name="periodcentered.loclCAT" horiz-adv-x="115" 
d="M75 283q-23 0 -37 14t-14 36q0 23 14 37t37 14q22 0 37 -14t15 -37q0 -22 -15 -36t-37 -14z" />
    <glyph glyph-name="parenleft.case" horiz-adv-x="383" 
d="M195 -131q-56 166 -56 330q0 336 242 639h71q-253 -300 -253 -643q0 -170 57 -326h-61z" />
    <glyph glyph-name="parenright.case" horiz-adv-x="383" 
d="M232 838q57 -169 57 -330q0 -334 -242 -639h-72q253 299 253 643q0 169 -56 326h60z" />
    <glyph glyph-name="braceleft.case" horiz-adv-x="342" 
d="M381 838h56l-10 -52h-26q-51 0 -76.5 -22.5t-34.5 -66.5l-49 -242q-11 -56 -33 -78.5t-71 -25.5q34 -5 49 -23t15 -55q0 -15 -7 -54l-42 -209q-3 -17 -3 -29q0 -61 79 -61h26l-11 -51h-35q-58 0 -86.5 28.5t-28.5 79.5q0 22 5 40l40 208q7 33 7 48q0 29 -18.5 40
t-64.5 11l12 59q62 0 83.5 20.5t32.5 79.5l48 238q11 53 47 85t96 32z" />
    <glyph glyph-name="braceright.case" horiz-adv-x="342" 
d="M241 434q0 -28 18.5 -39.5t64.5 -11.5l-11 -59q-62 0 -84 -20.5t-33 -79.5l-48 -238q-11 -53 -47 -85t-96 -32h-56l10 52h26q51 0 76.5 22.5t35.5 66.5l48 242q11 55 33 77.5t71 25.5q-34 5 -49 23.5t-15 55.5q0 16 7 54l42 209q3 17 3 29q0 61 -79 61h-26l11 51h35
q58 0 86.5 -28.5t28.5 -79.5q0 -21 -4 -40l-41 -208q-7 -33 -7 -48z" />
    <glyph glyph-name="bracketleft.case" horiz-adv-x="373" 
d="M86 -131l194 969h189l-11 -54h-129l-173 -861h129l-10 -54h-189z" />
    <glyph glyph-name="bracketright.case" horiz-adv-x="373" 
d="M331 838l-194 -969h-188l11 54h129l172 861h-129l11 54h188z" />
    <glyph glyph-name="hyphen.case" horiz-adv-x="381" 
d="M74 341l12 62h273l-13 -62h-272z" />
    <glyph glyph-name="uni00AD.case" horiz-adv-x="381" 
d="M74 341l12 62h273l-13 -62h-272z" />
    <glyph glyph-name="endash.case" horiz-adv-x="491" 
d="M74 343l12 60h384l-12 -60h-384z" />
    <glyph glyph-name="emdash.case" horiz-adv-x="960" 
d="M74 343l12 60h853l-12 -60h-853z" />
    <glyph glyph-name="guillemotleft.case" horiz-adv-x="459" 
d="M168 209l-120 161l183 159h80l-189 -165l116 -155h-70zM355 209l-120 161l184 159h80l-190 -165l116 -155h-70z" />
    <glyph glyph-name="guillemotright.case" horiz-adv-x="459" 
d="M155 529l120 -161l-183 -159h-81l190 165l-116 155h70zM342 529l121 -161l-184 -159h-80l189 165l-116 155h70z" />
    <glyph glyph-name="guilsinglleft.case" horiz-adv-x="272" 
d="M168 209l-120 161l183 159h80l-189 -165l116 -155h-70z" />
    <glyph glyph-name="guilsinglright.case" horiz-adv-x="272" 
d="M155 529l120 -161l-183 -159h-81l190 165l-116 155h70z" />
    <glyph glyph-name="periodcentered.loclCAT.sc" horiz-adv-x="62" 
d="M-19 288q-23 0 -37 14t-14 36q0 23 14 37.5t37 14.5q22 0 36.5 -14.5t14.5 -37.5q0 -22 -14.5 -36t-36.5 -14z" />
    <glyph glyph-name="slash.sc" horiz-adv-x="407" 
d="M-19 -50l390 681h74l-390 -681h-74z" />
    <glyph glyph-name="cent.ss06" horiz-adv-x="514" 
d="M505 420h-68q1 6 1 16q0 52 -31.5 81t-85.5 29q-86 0 -137 -71.5t-51 -170.5q0 -66 30.5 -105.5t94.5 -39.5q58 0 98.5 33.5t51.5 88.5h71q-17 -84 -77 -132t-144 -49l-20 -100h-54l21 105q-71 14 -106.5 67.5t-35.5 132.5q0 120 67.5 206t174.5 93l20 102h54l-21 -103
q70 -8 109 -50.5t39 -110.5q0 -15 -1 -22z" />
    <glyph glyph-name="dollar.ss06" horiz-adv-x="594" 
d="M571 485h-70q5 27 5 45q0 61 -38.5 96.5t-111.5 35.5q-75 0 -120.5 -37t-45.5 -97q0 -18 4 -33t15.5 -27.5t20 -21t29 -18t31 -14t37 -14t36.5 -13.5q93 -35 135 -75.5t42 -114.5q0 -99 -71 -155.5t-193 -56.5h-4l-18 -93h-56l19 97q-90 13 -134 66t-44 135q0 13 2 43h74
q-4 -21 -4 -42q0 -69 42.5 -107.5t127.5 -38.5q86 0 136 39.5t50 105.5q0 22 -5 39.5t-19 32t-25 24t-37 20.5t-40 16.5t-48 17.5q-86 30 -130 71t-44 112q0 89 66 143t175 55l18 92h55l-18 -96q78 -13 119 -62t41 -122q0 -28 -4 -48z" />
    <glyph glyph-name="paragraph.ss07" horiz-adv-x="625" 
d="M208 -201l103 516h-39q-192 0 -192 176q0 102 58 158.5t165 56.5h395l-11 -58h-68l-169 -849h-63l169 849h-117l-169 -849h-62zM275 373h47l55 276h-76q-79 0 -120 -42.5t-41 -117.5q0 -57 31.5 -86.5t103.5 -29.5z" />
    <glyph glyph-name="caroncomb.alt" 
d="M-2 540l62 166h61l-70 -166h-53z" />
    <glyph glyph-name="uni0335.Eth" 
d="M-288 333l10 54h308l-11 -54h-307z" />
    <glyph glyph-name="uni0335.Tbar" 
d="M-379 293l11 52h339l-11 -52h-339z" />
    <glyph glyph-name="caron.alt" horiz-adv-x="190" 
d="M110 540l62 166h61l-70 -166h-53z" />
    <glyph glyph-name="uni0308.case" 
d="M-181 805q-21 0 -34 13t-13 33q0 21 13 34.5t34 13.5q20 0 34 -13.5t14 -34.5q0 -20 -14 -33t-34 -13zM24 805q-21 0 -34.5 13t-13.5 33q0 21 13.5 34.5t34.5 13.5q20 0 33.5 -13.5t13.5 -34.5q0 -20 -13.5 -33t-33.5 -13z" />
    <glyph glyph-name="uni0307.case" 
d="M24 798q-21 0 -34 12t-13 32t13 32t34 12q19 0 32 -12.5t13 -31.5t-13 -31.5t-32 -12.5z" />
    <glyph glyph-name="gravecomb.case" 
d="M57 779h-68l-108 124h75z" />
    <glyph glyph-name="acutecomb.case" 
d="M-144 779l140 124h86l-146 -124h-80z" />
    <glyph glyph-name="uni030B.case" 
d="M-265 780l133 123h75l-143 -123h-65zM-124 780l132 123h74l-141 -123h-65z" />
    <glyph glyph-name="uni0302.case" 
d="M-272 779l148 124h84l97 -124h-68l-73 89l-107 -89h-81z" />
    <glyph glyph-name="uni030C.case" 
d="M82 903l-147 -124h-84l-98 124h69l72 -89l107 89h81z" />
    <glyph glyph-name="uni0306.case" 
d="M-85 774q-118 0 -118 100q0 9 2 29h50q-1 -6 -1 -18q0 -66 74 -66q80 0 106 84h54q-32 -129 -167 -129z" />
    <glyph glyph-name="uni030A.case" 
d="M-38 746q-48 0 -77 27.5t-29 73.5t29 73.5t77 27.5t77.5 -28t29.5 -73q0 -46 -29.5 -73.5t-77.5 -27.5zM-38 787q28 0 44.5 16.5t16.5 43.5t-17 43.5t-44 16.5q-28 0 -44.5 -16.5t-16.5 -43.5t16.5 -43.5t44.5 -16.5z" />
    <glyph glyph-name="tildecomb.case" 
d="M-44 775q-46 0 -80 42q-2 2 -7.5 8.5t-7 8.5t-6.5 7t-8 6.5l-8 4t-10.5 3.5t-11.5 1q-49 0 -73 -79h-50q32 129 127 129q46 0 81 -43q2 -2 6 -7.5t6 -7.5t6 -6.5t6 -6l6 -4.5t7.5 -4t8.5 -2t10 -1q50 0 74 79h50q-35 -128 -126 -128z" />
    <glyph glyph-name="uni0304.case" 
d="M-222 815l10 51h287l-10 -51h-287z" />
    <glyph glyph-name="uni0337.case" 
d="M-147 396l201 120l-13 -66l-202 -119l2 8l-113 -66l13 65l113 66l-9 -47z" />
    <glyph glyph-name="uni0338.case" 
d="M-750 0l139 131l3 1l502 492l4 -2l85 84h70l-138 -131l-2 1l-503 -492l-3 1l-87 -85h-70z" />
    <glyph glyph-name="uni0308.narrow.case" 
d="M-109 795q-19 0 -31.5 12t-12.5 31t12.5 31.5t31.5 12.5q18 0 30.5 -12.5t12.5 -31.5t-12.5 -31t-30.5 -12zM25 794q-19 0 -31 12t-12 31t12 31.5t31 12.5q18 0 30.5 -12.5t12.5 -31.5t-12.5 -31t-30.5 -12z" />
    <glyph glyph-name="uni0302.narrow.case" 
d="M-188 779l108 124h77l60 -124h-59l-42 88l-77 -88h-67z" />
    <glyph glyph-name="uni0306.narrow.case" 
d="M-55 774q-100 0 -100 90q0 19 4 39h51q-3 -19 -3 -33q0 -27 12 -39t39 -12q35 0 53 19.5t27 64.5h54q-13 -65 -45.5 -97t-91.5 -32z" />
    </font>
</defs>
</svg>
